<svg width="257" height="321" viewBox="0 0 257 321" fill="none" xmlns="http://www.w3.org/2000/svg">
<g opacity="0.4">
<g clip-path="url(#clip0_5083_16175)">
<path d="M68.2354 246.193C67.9517 245.955 67.7697 245.617 67.7268 245.248C67.6839 244.88 67.7832 244.51 68.0045 244.212C68.2257 243.915 68.5522 243.713 68.9172 243.648C69.2823 243.583 69.6583 243.66 69.9684 243.863L71.2686 244.941C73.0362 242.805 74.2523 240.077 74.2611 237.274C74.2621 236.998 74.3418 236.728 74.4909 236.495C74.6401 236.262 74.8524 236.077 75.1031 235.96C75.3538 235.844 75.6324 235.801 75.9064 235.838C76.1804 235.874 76.4384 235.987 76.6502 236.165C78.2949 237.545 79.4292 239.275 80.1479 241.177C81.3241 239.126 82.1917 236.841 82.2806 234.458C82.291 234.181 82.3801 233.913 82.5375 233.686C82.6949 233.458 82.9141 233.28 83.1692 233.172C83.4244 233.065 83.7049 233.032 83.9779 233.079C84.2509 233.125 84.5049 233.248 84.7102 233.434C90.5878 238.765 92.5449 244.33 91.3979 249.736C94.5092 250.296 97.4525 251.721 99.8705 253.75C100.077 253.924 100.232 254.152 100.317 254.408C100.401 254.665 100.413 254.94 100.35 255.202C100.288 255.465 100.153 255.705 99.9613 255.896C99.7698 256.086 99.529 256.22 99.2659 256.281C95.423 257.177 92.7695 259.242 91.1237 261.601L92.3907 262.664C92.671 262.904 92.8499 263.241 92.8912 263.607C92.9325 263.974 92.833 264.342 92.6129 264.638C92.3929 264.934 92.0686 265.135 91.7058 265.201C91.343 265.267 90.9686 265.193 90.6585 264.993L68.2354 246.193ZM76.7041 240.688C76.1188 242.931 74.9751 245.034 73.4974 246.813L74.7206 247.837C75.8935 246.763 76.9851 245.598 77.9758 244.354C77.7346 243.049 77.3485 241.857 76.7041 240.688ZM84.7483 237.586C84.3792 239.067 83.793 240.474 83.1034 241.832C81.543 244.814 79.3393 247.488 76.9661 249.724L84.6968 256.21C86.1641 254.654 87.4838 252.663 88.2198 250.371C89.7309 245.669 87.9327 241.13 84.7483 237.586ZM95.7096 254.376L95.6966 254.368C94.1109 253.461 92.3273 252.806 90.5142 252.545C89.6589 254.59 88.4451 256.466 86.9298 258.084L88.8865 259.726C90.6269 257.315 93.0038 255.559 95.7096 254.376Z" fill="#3D3D3D"/>
</g>
<g clip-path="url(#clip1_5083_16175)">
<path d="M189.631 38.4101C189.392 38.6939 189.054 38.8758 188.686 38.9187C188.318 38.9616 187.947 38.8623 187.65 38.641C187.352 38.4198 187.15 38.0933 187.085 37.7283C187.021 37.3632 187.098 36.9872 187.301 36.6771L188.378 35.3769C186.242 33.6093 183.515 32.3932 180.712 32.3844C180.435 32.3834 180.165 32.3037 179.932 32.1546C179.7 32.0055 179.514 31.7931 179.398 31.5424C179.281 31.2918 179.239 31.0131 179.275 30.7391C179.311 30.4651 179.425 30.2071 179.602 29.9953C180.982 28.3506 182.713 27.2164 184.615 26.4976C182.563 25.3214 180.278 24.4538 177.896 24.3649C177.619 24.3545 177.351 24.2654 177.123 24.108C176.895 23.9506 176.717 23.7314 176.61 23.4763C176.502 23.2211 176.47 22.9406 176.516 22.6676C176.562 22.3946 176.686 22.1406 176.872 21.9353C182.202 16.0577 187.767 14.1006 193.173 15.2476C193.733 12.1363 195.159 9.19297 197.188 6.77501C197.361 6.56808 197.589 6.41359 197.846 6.32884C198.102 6.2441 198.377 6.23246 198.64 6.29523C198.903 6.35799 199.143 6.49267 199.333 6.68419C199.524 6.87571 199.657 7.1165 199.719 7.37957C200.614 11.2225 202.679 13.876 205.039 15.5218L206.102 14.2548C206.341 13.9745 206.679 13.7956 207.045 13.7543C207.411 13.713 207.78 13.8125 208.076 14.0326C208.372 14.2526 208.573 14.5769 208.639 14.9397C208.705 15.3025 208.63 15.6769 208.431 15.987L189.631 38.4101ZM184.125 29.9414C186.368 30.5267 188.471 31.6704 190.25 33.1482L191.275 31.9249C190.201 30.752 189.036 29.6604 187.792 28.6697C186.486 28.9109 185.294 29.297 184.125 29.9414ZM181.024 21.8972C182.505 22.2663 183.912 22.8525 185.27 23.5421C188.252 25.1025 190.926 27.3062 193.161 29.6794L199.648 21.9487C198.092 20.4814 196.1 19.1617 193.809 18.4257C189.107 16.9146 184.568 18.7128 181.024 21.8972ZM197.813 10.9359L197.806 10.9489C196.899 12.5346 196.243 14.3182 195.983 16.1313C198.028 16.9866 199.904 18.2004 201.522 19.7157L203.163 17.759C200.752 16.0186 198.997 13.6417 197.813 10.9359Z" fill="#3D3D3D"/>
</g>
<g clip-path="url(#clip2_5083_16175)">
<path d="M29.954 176.428C29.5833 176.427 29.2267 176.285 28.9571 176.031C28.6875 175.776 28.5253 175.428 28.5036 175.058C28.4818 174.688 28.6023 174.324 28.8402 174.039C29.0782 173.755 29.4157 173.572 29.7838 173.529L31.4726 173.518C31.4537 170.746 30.6319 167.875 28.8369 165.722C28.66 165.509 28.5473 165.251 28.512 164.977C28.4766 164.703 28.5201 164.424 28.6373 164.174C28.7545 163.924 28.9406 163.712 29.1738 163.564C29.407 163.415 29.6776 163.336 29.954 163.336C32.101 163.336 34.0821 163.933 35.8552 164.928C35.4378 162.6 34.6334 160.292 33.1701 158.41C33.0001 158.191 32.8961 157.929 32.8703 157.653C32.8445 157.377 32.8978 157.1 33.0242 156.853C33.1505 156.607 33.3445 156.402 33.5835 156.262C33.8224 156.122 34.0963 156.053 34.373 156.064C42.3019 156.369 47.3783 159.374 49.9747 164.253C52.7181 162.682 55.889 161.882 59.0454 161.882C59.3156 161.882 59.5804 161.957 59.8101 162.099C60.0399 162.241 60.2256 162.444 60.3464 162.686C60.4672 162.927 60.5184 163.198 60.4941 163.467C60.4699 163.736 60.3712 163.993 60.2091 164.209C57.841 167.366 57.1356 170.653 57.3916 173.518H59.0454C59.4142 173.522 59.7679 173.665 60.0351 173.919C60.3023 174.173 60.4629 174.519 60.4845 174.888C60.5061 175.256 60.3871 175.618 60.1516 175.902C59.916 176.186 59.5814 176.369 59.2156 176.416L29.954 176.428ZM32.9024 166.766C33.8959 168.861 34.3716 171.207 34.3832 173.52L35.9789 173.518C36.1869 171.942 36.2741 170.347 36.2334 168.758C35.2094 167.912 34.1476 167.248 32.9024 166.766ZM37.0712 159.22C37.7403 160.592 38.1956 162.046 38.5404 163.53C39.2618 166.817 39.2924 170.282 38.9113 173.52H49.0031C49.1267 171.385 48.8576 169.011 47.9485 166.782C46.0838 162.209 41.7884 159.888 37.0712 159.22ZM56.2599 165.035L56.2454 165.038C54.4475 165.363 52.6599 166.007 51.1035 166.973C51.7629 169.089 52.0387 171.306 51.918 173.52H54.4723C54.2555 170.554 54.9479 167.681 56.2599 165.035Z" fill="#3D3D3D"/>
</g>
<g clip-path="url(#clip3_5083_16175)">
<path d="M231.074 310.224L217.131 288.754L225.606 283.25L228.22 287.276L225.395 289.11L227.138 291.794L229.963 289.959L235.191 298.011L232.366 299.845L234.109 302.529L236.934 300.694L239.549 304.72M224.011 314.81L210.068 293.34L212.893 291.506L226.836 312.976M235.613 286.29L240.841 294.341L238.016 296.176L232.788 288.125M242.374 302.885L239.759 298.86L242.584 297.025C244.152 296.007 244.634 293.996 243.666 292.507L238.438 284.456C237.471 282.966 235.438 282.588 233.87 283.606L231.045 285.441L228.431 281.415C227.463 279.926 225.431 279.548 223.863 280.566L208.325 290.656C206.758 291.675 206.276 293.685 207.243 295.175L221.186 316.645C222.153 318.134 224.186 318.512 225.754 317.494L241.291 307.404C242.859 306.385 243.341 304.375 242.374 302.885Z" fill="#3D3D3D"/>
</g>
<g clip-path="url(#clip4_5083_16175)">
<path d="M56.4756 91.1493L32.4194 99.905L28.9632 90.4092L33.4737 88.7675L34.6258 91.9328L37.6328 90.8383L36.4808 87.673L45.5018 84.3896L46.6539 87.5549L49.6609 86.4605L48.5088 83.2952L53.0194 81.6535M59.3557 99.0625L35.2996 107.818L34.1475 104.653L58.2037 95.8972M34.1766 81.3425L43.1977 78.0591L44.3497 81.2244L35.3287 84.5077M51.8673 78.4882L47.3568 80.1299L46.2047 76.9646C45.5653 75.2079 43.7145 74.2864 42.0456 74.8938L33.0246 78.1772C31.3557 78.7846 30.5302 80.6802 31.1696 82.4369L32.3217 85.6022L27.8112 87.2439C26.1423 87.8513 25.3168 89.7469 25.9562 91.5037L32.2926 108.913C32.932 110.669 34.7828 111.591 36.4517 110.984L60.5078 102.228C62.1767 101.62 63.0021 99.7248 62.3627 97.9681L56.0264 80.559C55.387 78.8023 53.5362 77.8808 51.8673 78.4882Z" fill="#3D3D3D"/>
</g>
<g clip-path="url(#clip5_5083_16175)">
<path d="M225.76 174.76L212.96 152.589L221.712 147.537L224.112 151.694L221.195 153.378L222.795 156.149L225.712 154.465L230.512 162.779L227.595 164.463L229.195 167.234L232.112 165.55L234.512 169.707M218.468 178.97L205.668 156.8L208.585 155.116L221.385 177.286M231.546 151.097L236.346 159.41L233.429 161.095L228.629 152.781M237.429 168.023L235.029 163.866L237.946 162.182C239.565 161.247 240.151 159.264 239.263 157.726L234.463 149.412C233.575 147.874 231.565 147.391 229.946 148.325L227.029 150.01L224.629 145.853C223.741 144.315 221.731 143.831 220.112 144.766L204.068 154.029C202.449 154.963 201.862 156.946 202.75 158.484L215.55 180.654C216.438 182.192 218.449 182.676 220.068 181.741L236.112 172.478C237.731 171.544 238.317 169.561 237.429 168.023Z" fill="#3D3D3D"/>
</g>
<path d="M251.744 65.4827L248.371 64.3993C248.144 64.3285 247.901 64.3309 247.676 64.406C247.45 64.4811 247.254 64.6252 247.115 64.8178L244.801 68.4867L232.095 62.1586C231.093 61.5711 229.975 61.2094 228.819 61.0988C227.663 60.9882 226.497 61.1313 225.402 61.5182C224.307 61.9051 223.309 62.5264 222.479 63.3388C221.649 64.1511 221.007 65.1349 220.596 66.2214C220.427 66.7699 220.482 67.3632 220.75 67.8711C221.018 68.3789 221.476 68.7597 222.025 68.9299L230.372 71.6384L231.209 71.9093L232.785 77.3017C232.833 77.488 232.928 77.6586 233.062 77.7967C233.196 77.9349 233.363 78.0358 233.548 78.0896L237.34 79.3208C237.539 79.4067 237.758 79.4364 237.972 79.4063C238.187 79.3763 238.389 79.2878 238.557 79.1506C238.725 79.0133 238.852 78.8325 238.924 78.628C238.996 78.4235 239.01 78.2032 238.965 77.9911L238.177 74.1499L238.719 74.3223L246.869 76.957C247.132 77.0546 247.413 77.0989 247.693 77.0873C247.974 77.0757 248.249 77.0083 248.504 76.8891C248.758 76.77 248.986 76.6014 249.175 76.3932C249.363 76.185 249.509 75.9414 249.602 75.6766L252.458 66.8123C252.536 66.5413 252.504 66.2509 252.371 66.0027C252.238 65.7545 252.013 65.5679 251.744 65.4827Z" stroke="#3D3D3D" stroke-width="2.28571" stroke-linecap="round" stroke-linejoin="round"/>
<path d="M34.7758 9.29861L31.4953 10.637C31.2761 10.7286 31.0913 10.8868 30.9669 11.0892C30.8426 11.2916 30.785 11.528 30.8024 11.7649L31.3876 16.0631L17.5871 19.3824C16.442 19.5763 15.353 20.0179 14.3963 20.6763C13.4396 21.3347 12.6381 22.1941 12.048 23.1943C11.4578 24.1946 11.0932 25.3117 10.9795 26.4675C10.8658 27.6233 11.0059 28.79 11.3899 29.886C11.6128 30.4151 12.0365 30.8341 12.5681 31.051C13.0996 31.2679 13.6955 31.265 14.2249 31.0429L22.3602 27.7523L23.1756 27.4216L27.849 30.5395C28.0054 30.6515 28.1883 30.7207 28.3797 30.7405C28.571 30.7603 28.7642 30.73 28.9402 30.6525L32.6364 29.1582C32.8441 29.0961 33.0307 28.9782 33.1759 28.8172C33.3211 28.6562 33.4191 28.4584 33.4594 28.2454C33.4997 28.0324 33.4807 27.8124 33.4043 27.6095C33.328 27.4066 33.1973 27.2286 33.0266 27.095L29.9539 24.659L30.4797 24.4428L38.4166 21.2222C38.6812 21.1278 38.9243 20.9816 39.1318 20.7923C39.3393 20.603 39.5071 20.3743 39.6253 20.1195C39.7436 19.8647 39.81 19.589 39.8206 19.3083C39.8313 19.0276 39.786 18.7476 39.6873 18.4846L36.1775 9.85818C36.0625 9.60095 35.8518 9.39864 35.5901 9.29417C35.3285 9.18971 35.0364 9.1913 34.7758 9.29861Z" stroke="#3D3D3D" stroke-width="2.28571" stroke-linecap="round" stroke-linejoin="round"/>
<path d="M208.013 226.427L205.388 228.807C205.213 228.968 205.094 229.18 205.046 229.412C204.998 229.645 205.025 229.887 205.122 230.104L207.142 233.942L195.309 241.782C194.3 242.355 193.427 243.143 192.754 244.089C192.08 245.035 191.621 246.116 191.408 247.258C191.196 248.4 191.235 249.574 191.524 250.699C191.812 251.824 192.343 252.873 193.078 253.771C193.469 254.192 194.01 254.441 194.584 254.463C195.158 254.485 195.717 254.279 196.138 253.889L202.657 248.014L203.311 247.425L208.768 248.756C208.954 248.808 209.149 248.81 209.336 248.763C209.522 248.717 209.694 248.622 209.832 248.489L212.795 245.821C212.969 245.691 213.104 245.517 213.185 245.316C213.266 245.115 213.291 244.895 213.256 244.681C213.221 244.467 213.128 244.267 212.987 244.103C212.845 243.938 212.662 243.816 212.456 243.748L208.735 242.51L209.155 242.127L215.512 236.386C215.728 236.207 215.907 235.987 216.037 235.738C216.167 235.489 216.247 235.217 216.271 234.937C216.295 234.657 216.263 234.375 216.177 234.108C216.091 233.84 215.952 233.593 215.77 233.379L209.521 226.473C209.325 226.271 209.058 226.153 208.776 226.144C208.495 226.136 208.221 226.237 208.013 226.427Z" stroke="#3D3D3D" stroke-width="2.28571" stroke-linecap="round" stroke-linejoin="round"/>
<path d="M37.8484 289.575L35.4687 286.95C35.3077 286.776 35.0958 286.656 34.8631 286.608C34.6303 286.561 34.3885 286.588 34.1719 286.685L30.333 288.705L22.4938 276.872C21.9199 275.862 21.1326 274.99 20.1866 274.316C19.2407 273.642 18.1591 273.183 17.0173 272.971C15.8755 272.758 14.7011 272.798 13.5761 273.086C12.4511 273.375 11.4027 273.905 10.5041 274.641C10.0831 275.031 9.83435 275.573 9.81233 276.146C9.7903 276.72 9.99684 277.279 10.3866 277.701L16.2612 284.22L16.8508 284.873L15.5193 290.331C15.4677 290.516 15.4651 290.712 15.5119 290.898C15.5588 291.085 15.6534 291.256 15.7864 291.395L18.4547 294.357C18.5841 294.531 18.7588 294.666 18.9597 294.747C19.1606 294.829 19.3801 294.853 19.594 294.818C19.8079 294.783 20.0081 294.69 20.1727 294.549C20.3372 294.408 20.4598 294.224 20.5269 294.018L21.7652 290.298L22.1481 290.718L27.8891 297.075C28.0683 297.291 28.2888 297.469 28.5376 297.6C28.7865 297.73 29.0588 297.809 29.3387 297.833C29.6185 297.857 29.9004 297.825 30.1678 297.739C30.4352 297.653 30.6828 297.515 30.8962 297.332L37.802 291.084C38.0043 290.888 38.1224 290.62 38.1311 290.339C38.1397 290.057 38.0383 289.783 37.8484 289.575Z" stroke="#3D3D3D" stroke-width="2.28571" stroke-linecap="round" stroke-linejoin="round"/>
</g>
<defs>
<clipPath id="clip0_5083_16175">
<rect width="32" height="32" fill="white" transform="translate(84.0693 225.062) rotate(40)"/>
</clipPath>
<clipPath id="clip1_5083_16175">
<rect width="32" height="32" fill="white" transform="translate(168.5 22.5762) rotate(-50)"/>
</clipPath>
<clipPath id="clip2_5083_16175">
<rect width="32" height="32" fill="white" transform="translate(28.5 150.062)"/>
</clipPath>
<clipPath id="clip3_5083_16175">
<rect width="32" height="32" fill="white" transform="translate(232.338 275.062) rotate(57)"/>
</clipPath>
<clipPath id="clip4_5083_16175">
<rect width="32" height="32" fill="white" transform="translate(22.5 82.0078) rotate(-20)"/>
</clipPath>
<clipPath id="clip5_5083_16175">
<rect width="32" height="32" fill="white" transform="translate(228.863 139.713) rotate(60)"/>
</clipPath>
</defs>
</svg>
