<svg width="454" height="315" viewBox="0 0 454 315" fill="none" xmlns="http://www.w3.org/2000/svg">
<g opacity="0.4" clip-path="url(#clip0_5387_19350)">
<g clip-path="url(#clip1_5387_19350)">
<path d="M350.461 242.964C350.129 243.369 349.656 243.63 349.139 243.695C348.622 243.761 348.099 243.625 347.678 243.316C347.257 243.007 346.97 242.547 346.874 242.032C346.778 241.517 346.882 240.984 347.163 240.543L348.662 238.691C345.638 236.218 341.788 234.532 337.847 234.555C337.459 234.557 337.078 234.447 336.749 234.239C336.42 234.031 336.156 233.733 335.99 233.38C335.823 233.027 335.759 232.634 335.807 232.246C335.855 231.858 336.011 231.492 336.258 231.19C338.178 228.847 340.596 227.221 343.261 226.181C340.363 224.543 337.139 223.345 333.789 223.249C333.399 223.238 333.022 223.115 332.699 222.895C332.377 222.676 332.124 222.368 331.97 222.008C331.815 221.649 331.766 221.253 331.828 220.866C331.89 220.479 332.06 220.118 332.319 219.826C339.739 211.447 347.539 208.61 355.153 210.164C355.902 205.758 357.869 201.577 360.691 198.133C360.933 197.838 361.251 197.617 361.611 197.494C361.97 197.37 362.357 197.351 362.727 197.436C363.097 197.522 363.436 197.709 363.706 197.977C363.977 198.246 364.167 198.585 364.257 198.956C365.564 204.379 368.499 208.106 371.837 210.404L373.316 208.599C373.649 208.199 374.121 207.942 374.636 207.879C375.15 207.816 375.669 207.952 376.088 208.26C376.507 208.567 376.794 209.023 376.891 209.536C376.988 210.048 376.888 210.578 376.612 211.019L350.461 242.964ZM342.615 231.057C345.776 231.857 348.747 233.448 351.266 235.515L352.692 233.773C351.167 232.127 349.515 230.598 347.754 229.213C345.922 229.57 344.251 230.131 342.615 231.057ZM338.156 219.72C340.242 220.224 342.227 221.035 344.145 221.993C348.357 224.163 352.143 227.245 355.315 230.574L364.338 219.56C362.132 217.504 359.316 215.663 356.086 214.651C349.457 212.573 343.098 215.172 338.156 219.72ZM361.622 204.009L361.612 204.027C360.357 206.281 359.457 208.812 359.113 211.379C361.999 212.563 364.651 214.256 366.945 216.379L369.229 213.591C365.817 211.16 363.319 207.821 361.622 204.009Z" fill="#707070"/>
</g>
<g clip-path="url(#clip2_5387_19350)">
<path d="M56.8452 73.8868C57.2471 74.2207 57.507 74.6964 57.5719 75.2166C57.6368 75.7368 57.5018 76.2623 57.1945 76.6858C56.8871 77.1093 56.4307 77.3987 55.9183 77.4949C55.4059 77.5912 54.8764 77.487 54.4378 77.2037L52.5966 75.6959C50.1382 78.7385 48.4625 82.6113 48.485 86.5752C48.487 86.966 48.3783 87.3494 48.1716 87.6803C47.9648 88.0113 47.6686 88.2762 47.3177 88.4439C46.9667 88.6116 46.5755 88.6753 46.1898 88.6275C45.8042 88.5796 45.4401 88.4223 45.1401 88.1738C42.8109 86.2428 41.1947 83.8101 40.1606 81.1294C38.5327 84.0448 37.3413 87.2876 37.246 90.6579C37.2348 91.0493 37.1129 91.4294 36.8944 91.7535C36.676 92.0776 36.3701 92.3323 36.0127 92.4876C35.6554 92.6429 35.2614 92.6923 34.877 92.6301C34.4927 92.5679 34.134 92.3967 33.8431 92.1365C25.5141 84.6717 22.6935 76.8261 24.2387 69.1665C19.8578 68.4136 15.7023 66.4346 12.2779 63.5956C11.9848 63.3527 11.7648 63.0324 11.6425 62.6708C11.5201 62.3091 11.5004 61.9203 11.5853 61.548C11.6703 61.1756 11.8567 60.8344 12.1235 60.5626C12.3904 60.2908 12.7272 60.0992 13.0963 60.0091C18.4877 58.6942 22.1923 55.7411 24.4767 52.3836L22.6824 50.8961C22.2853 50.5608 22.0296 50.0864 21.967 49.5686C21.9044 49.0509 22.0397 48.5287 22.3454 48.1074C22.6511 47.6862 23.1044 47.3975 23.6137 47.2998C24.1229 47.202 24.6501 47.3025 25.0885 47.5808L56.8452 73.8868ZM45.0081 81.7787C45.8031 78.5993 47.3848 75.6109 49.4401 73.0764L47.7077 71.6428C46.0722 73.1765 44.5521 74.8378 43.1747 76.6096C43.5301 78.4529 44.0877 80.1334 45.0081 81.7787ZM33.738 86.2649C34.2385 84.1661 35.0451 82.1691 35.9977 80.2399C38.1542 76.0034 41.219 72.1946 44.5275 69.0037L33.5788 59.9269C31.5354 62.146 29.7048 64.9788 28.6987 68.2284C26.6328 74.8966 29.2172 81.2935 33.738 86.2649ZM18.1195 62.6594L18.1379 62.6693C20.3784 63.9324 22.8941 64.837 25.4462 65.1828C26.6231 62.28 28.3063 59.6122 30.4163 57.3051L27.6452 55.0077C25.2285 58.4395 21.9087 60.9519 18.1195 62.6594Z" fill="#707070"/>
</g>
<g clip-path="url(#clip3_5387_19350)">
<path d="M252.858 297.974C252.862 298.499 252.667 299.005 252.312 299.389C251.958 299.773 251.471 300.007 250.951 300.043C250.431 300.078 249.917 299.912 249.514 299.579C249.112 299.246 248.85 298.771 248.784 298.251L248.749 295.863C244.852 295.925 240.825 297.123 237.821 299.688C237.525 299.941 237.163 300.103 236.778 300.157C236.393 300.21 236.001 300.152 235.648 299.99C235.294 299.827 234.995 299.566 234.783 299.238C234.572 298.911 234.457 298.529 234.454 298.138C234.427 295.102 235.241 292.293 236.618 289.773C233.351 290.392 230.116 291.559 227.488 293.652C227.183 293.895 226.815 294.045 226.428 294.085C226.04 294.125 225.65 294.053 225.302 293.877C224.954 293.702 224.663 293.43 224.463 293.094C224.264 292.758 224.163 292.371 224.175 291.98C224.505 280.763 228.667 273.547 235.493 269.814C233.251 265.954 232.087 261.48 232.047 257.016C232.044 256.634 232.146 256.259 232.343 255.932C232.54 255.605 232.823 255.34 233.162 255.166C233.5 254.992 233.879 254.917 234.258 254.948C234.636 254.979 234.999 255.115 235.305 255.341C239.771 258.651 244.402 259.607 248.427 259.209L248.406 256.871C248.406 256.349 248.603 255.847 248.957 255.466C249.311 255.085 249.796 254.854 250.313 254.818C250.831 254.783 251.342 254.947 251.744 255.277C252.145 255.606 252.408 256.077 252.478 256.594L252.858 297.974ZM239.239 293.926C242.171 292.494 245.464 291.792 248.715 291.747L248.693 289.491C246.474 289.216 244.232 289.113 241.997 289.19C240.822 290.649 239.9 292.159 239.239 293.926ZM228.578 288.125C230.498 287.161 232.538 286.499 234.619 285.993C239.231 284.932 244.102 284.845 248.659 285.344L248.533 271.072C245.53 270.924 242.196 271.334 239.074 272.648C232.669 275.342 229.458 281.445 228.578 288.125ZM236.515 260.916L236.519 260.936C236.998 263.475 237.926 265.995 239.303 268.184C242.27 267.225 245.384 266.807 248.497 266.95L248.465 263.338C244.298 263.681 240.251 262.738 236.515 260.916Z" fill="#707070"/>
</g>
<g clip-path="url(#clip4_5387_19350)">
<path d="M438.453 11.8855L408.443 31.8713L400.601 19.9551L406.227 16.2077L408.842 20.1798L412.593 17.6816L409.979 13.7095L421.232 6.21483L423.847 10.1869L427.598 7.68867L424.984 3.71661L430.61 -0.030731M444.988 21.8156L414.979 41.8014L412.365 37.8294L442.374 17.8435M404.75 5.76538L416.004 -1.72929L418.618 2.24277L407.364 9.73745M427.996 -4.00279L422.369 -0.255456L419.755 -4.22752C418.304 -6.43201 415.472 -7.08787 413.39 -5.70135L402.136 1.79332C400.054 3.17984 399.548 6.05911 400.999 8.26361L403.613 12.2357L397.986 15.983C395.905 17.3695 395.399 20.2488 396.849 22.4533L411.228 44.2996C412.678 46.5041 415.511 47.16 417.593 45.7735L447.603 25.7877C449.685 24.4012 450.191 21.5219 448.74 19.3174L434.362 -2.52896C432.911 -4.73345 430.078 -5.38931 427.996 -4.00279Z" fill="#707070"/>
</g>
<g clip-path="url(#clip5_5387_19350)">
<path d="M132.643 261.533L145.251 295.443L131.944 300.449L129.58 294.091L134.016 292.422L132.44 288.184L128.004 289.852L123.276 277.136L127.712 275.467L126.136 271.229L121.7 272.898L119.336 266.539M143.732 257.361L156.34 291.271L151.904 292.94L139.296 259.03M119.133 293.19L114.405 280.474L118.841 278.805L123.569 291.521M114.901 268.208L117.265 274.566L112.829 276.235C110.368 277.161 109.095 279.79 109.97 282.143L114.698 294.859C115.573 297.211 118.248 298.355 120.709 297.429L125.145 295.76L127.509 302.118C128.384 304.471 131.059 305.614 133.52 304.688L157.916 295.51C160.377 294.583 161.65 291.955 160.775 289.602L148.167 255.692C147.292 253.34 144.617 252.196 142.156 253.122L117.76 262.301C115.299 263.227 114.026 265.856 114.901 268.208Z" fill="#707070"/>
</g>
<g clip-path="url(#clip6_5387_19350)">
<path d="M248.08 21.0874L217.071 39.4659L209.859 27.1531L215.673 23.7072L218.077 27.8114L221.954 25.5141L219.55 21.4098L231.178 14.5179L233.582 18.6221L237.458 16.3248L235.054 12.2206L240.868 8.77462M254.09 31.348L223.081 49.7265L220.677 45.6222L251.686 27.2437M214.742 13.2013L226.37 6.30941L228.774 10.4137L217.146 17.3056M238.464 4.67037L232.65 8.11634L230.246 4.0121C228.912 1.73424 226.117 0.930153 223.966 2.20516L212.338 9.0971C210.186 10.3721 209.531 13.2208 210.866 15.4987L213.27 19.6029L207.455 23.0489C205.304 24.3239 204.649 27.1726 205.983 29.4504L219.205 52.0238C220.539 54.3017 223.334 55.1057 225.485 53.8307L256.494 35.4522C258.645 34.1772 259.3 31.3285 257.966 29.0507L244.744 6.47731C243.41 4.19945 240.615 3.39536 238.464 4.67037Z" fill="#707070"/>
</g>
<path d="M94.1322 -14.2878L92.6511 -9.5038C92.5545 -9.18223 92.5608 -8.83823 92.6692 -8.52048C92.7776 -8.20273 92.9826 -7.92732 93.2551 -7.73318L98.4416 -4.50589L89.7034 13.5408C88.8899 14.9649 88.3953 16.5505 88.2542 18.1868C88.1131 19.8231 88.3288 21.4707 88.8864 23.0144C89.4439 24.5581 90.3298 25.9608 91.4821 27.1244C92.6344 28.2881 94.0254 29.1846 95.5579 29.7513C96.3312 29.9839 97.1646 29.8983 97.8752 29.5133C98.5858 29.1283 99.1154 28.4753 99.3478 27.6978L103.052 15.8597L103.422 14.6724L110.983 12.3765C111.245 12.3064 111.483 12.1691 111.676 11.9781C111.868 11.7871 112.008 11.549 112.082 11.2872L113.765 5.90935C113.884 5.62686 113.923 5.31707 113.878 5.01384C113.833 4.71061 113.706 4.42564 113.511 4.19009C113.316 3.95455 113.06 3.77751 112.772 3.67833C112.483 3.57916 112.173 3.56168 111.876 3.6278L106.486 4.7901L106.721 4.02188L110.324 -7.53676C110.458 -7.91041 110.517 -8.30716 110.497 -8.7039C110.477 -9.10064 110.379 -9.48943 110.208 -9.84765C110.037 -10.2059 109.797 -10.5264 109.502 -10.7904C109.207 -11.0545 108.863 -11.2569 108.49 -11.3859L95.9926 -15.3142C95.6107 -15.4201 95.2028 -15.3721 94.8555 -15.1805C94.5082 -14.9889 94.2487 -14.6687 94.1322 -14.2878Z" stroke="#707070" stroke-width="3.22295" stroke-linecap="round" stroke-linejoin="round"/>
<path d="M17.8448 293.241L19.7671 297.863C19.8986 298.172 20.1233 298.432 20.4094 298.605C20.6955 298.778 21.0285 298.857 21.3613 298.829L27.3966 297.948L32.2345 317.423C32.5213 319.039 33.1557 320.574 34.0932 321.919C35.0307 323.263 36.2487 324.386 37.6623 325.208C39.0758 326.03 40.6507 326.532 42.277 326.678C43.9033 326.824 45.5417 326.612 47.0778 326.055C47.8188 325.733 48.4026 325.129 48.7009 324.374C48.9992 323.62 48.9877 322.777 48.6689 322.031L43.9418 310.568L43.4668 309.419L47.7919 302.771C47.9473 302.548 48.0424 302.289 48.0679 302.018C48.0933 301.747 48.0483 301.474 47.9371 301.226L45.7905 296.018C45.7007 295.725 45.5325 295.463 45.3044 295.259C45.0762 295.056 44.7969 294.92 44.497 294.866C44.197 294.811 43.888 294.841 43.6038 294.951C43.3195 295.062 43.0709 295.249 42.8852 295.492L39.4987 299.868L39.1883 299.127L34.5621 287.943C34.426 287.57 34.2175 287.228 33.9488 286.937C33.6801 286.646 33.3565 286.412 32.9968 286.248C32.6372 286.084 32.2486 285.993 31.8539 285.982C31.4592 285.97 31.0661 286.038 30.6976 286.18L18.614 291.252C18.2538 291.418 17.9721 291.718 17.8284 292.089C17.6848 292.461 17.6907 292.874 17.8448 293.241Z" stroke="#707070" stroke-width="3.22298" stroke-linecap="round" stroke-linejoin="round"/>
<path d="M320.934 45.5433L324.312 49.2256C324.541 49.4705 324.84 49.637 325.168 49.7014C325.496 49.7659 325.835 49.725 326.139 49.5847L331.51 46.68L342.678 63.3158C343.497 64.7365 344.615 65.9602 345.953 66.9013C347.291 67.8424 348.818 68.4782 350.425 68.7644C352.033 69.0506 353.684 68.9802 355.262 68.5581C356.84 68.1361 358.307 67.3725 359.561 66.3209C360.148 65.7635 360.491 64.9947 360.515 64.1831C360.539 63.3716 360.241 62.5837 359.688 61.9925L351.349 52.8467L350.512 51.9304L352.316 44.1953C352.386 43.9327 352.387 43.6561 352.319 43.3929C352.251 43.1296 352.116 42.8888 351.927 42.694L348.139 38.5383C347.955 38.2939 347.708 38.1052 347.424 37.9926C347.141 37.8801 346.832 37.8482 346.531 37.9003C346.231 37.9525 345.951 38.0867 345.721 38.2884C345.492 38.49 345.322 38.7513 345.23 39.0436L343.535 44.3205L342.992 43.7312L334.842 34.8134C334.587 34.5098 334.275 34.2602 333.924 34.0792C333.572 33.8981 333.188 33.7892 332.795 33.7588C332.401 33.7283 332.005 33.777 331.63 33.902C331.255 34.0269 330.909 34.2257 330.611 34.4866L320.981 43.4094C320.699 43.6892 320.536 44.0685 320.527 44.4668C320.519 44.8652 320.665 45.2513 320.934 45.5433Z" stroke="#707070" stroke-width="3.22298" stroke-linecap="round" stroke-linejoin="round"/>
<path d="M411.827 285.392L408.166 288.79C407.923 289.02 407.757 289.321 407.693 289.65C407.629 289.98 407.67 290.322 407.809 290.627L410.697 296.03L394.159 307.264C392.747 308.088 391.53 309.213 390.595 310.559C389.659 311.905 389.027 313.44 388.742 315.058C388.458 316.675 388.528 318.335 388.948 319.923C389.367 321.51 390.126 322.986 391.172 324.248C391.726 324.838 392.49 325.183 393.297 325.207C394.103 325.231 394.887 324.932 395.474 324.375L404.566 315.986L405.477 315.144L413.167 316.959C413.428 317.03 413.703 317.031 413.964 316.962C414.226 316.894 414.466 316.758 414.659 316.568L418.79 312.758C419.033 312.572 419.221 312.324 419.333 312.039C419.445 311.753 419.476 311.443 419.425 311.141C419.373 310.839 419.239 310.557 419.039 310.326C418.838 310.095 418.579 309.924 418.288 309.831L413.042 308.127L413.628 307.58L422.493 299.382C422.795 299.126 423.043 298.812 423.223 298.458C423.403 298.105 423.511 297.718 423.542 297.322C423.572 296.926 423.524 296.528 423.399 296.151C423.275 295.774 423.078 295.426 422.818 295.126L413.948 285.438C413.67 285.155 413.293 284.991 412.897 284.982C412.501 284.974 412.117 285.12 411.827 285.392Z" stroke="#707070" stroke-width="3.22298" stroke-linecap="round" stroke-linejoin="round"/>
</g>
<defs>
<clipPath id="clip0_5387_19350">
<rect width="343.183" height="449.882" fill="white" transform="matrix(-0.00878981 -0.999961 0.99996 -0.00889438 3.78125 330.531)"/>
</clipPath>
<clipPath id="clip1_5387_19350">
<rect width="45.1449" height="45.0986" fill="white" transform="matrix(0.63378 -0.773579 0.769808 0.638195 320.559 220.835)"/>
</clipPath>
<clipPath id="clip2_5387_19350">
<rect width="45.0986" height="45.1449" fill="white" transform="matrix(-0.769808 -0.638195 0.63378 -0.773579 34.8486 103.968)"/>
</clipPath>
<clipPath id="clip3_5387_19350">
<rect width="45.2549" height="44.9882" fill="white" transform="matrix(-0.00878981 -0.999961 0.99996 -0.00889438 215.811 300.358)"/>
</clipPath>
<clipPath id="clip4_5387_19350">
<rect width="45.0675" height="45.176" fill="white" transform="matrix(0.832355 -0.55433 0.549738 0.83528 389.006 10.5371)"/>
</clipPath>
<clipPath id="clip5_5387_19350">
<rect width="45.2238" height="45.0194" fill="white" transform="matrix(-0.34849 -0.937277 0.93598 -0.352148 120.214 309.693)"/>
</clipPath>
<clipPath id="clip6_5387_19350">
<rect width="45.055" height="45.1884" fill="white" transform="matrix(0.860292 -0.509891 0.505388 0.86284 198.771 17.1377)"/>
</clipPath>
</defs>
</svg>
