<svg width="454" height="315" viewBox="0 0 454 315" fill="none" xmlns="http://www.w3.org/2000/svg">
<g opacity="0.4" clip-path="url(#clip0_5387_19217)">
<g clip-path="url(#clip1_5387_19217)">
<path d="M350.462 243.427C350.13 243.831 349.657 244.093 349.14 244.158C348.623 244.224 348.1 244.088 347.679 243.779C347.258 243.469 346.971 243.01 346.875 242.495C346.779 241.979 346.883 241.447 347.164 241.006L348.663 239.153C345.639 236.68 341.789 234.995 337.848 235.017C337.46 235.02 337.079 234.91 336.75 234.702C336.421 234.494 336.157 234.196 335.99 233.843C335.824 233.49 335.76 233.097 335.808 232.709C335.856 232.321 336.012 231.954 336.259 231.653C338.179 229.31 340.597 227.684 343.262 226.644C340.364 225.006 337.14 223.808 333.79 223.712C333.4 223.701 333.023 223.578 332.7 223.358C332.378 223.138 332.125 222.831 331.971 222.471C331.816 222.112 331.767 221.715 331.829 221.329C331.891 220.942 332.061 220.581 332.32 220.289C339.74 211.91 347.54 209.073 355.154 210.627C355.903 206.221 357.87 202.04 360.692 198.596C360.934 198.301 361.252 198.079 361.612 197.956C361.971 197.833 362.358 197.813 362.728 197.899C363.098 197.984 363.437 198.172 363.707 198.44C363.978 198.709 364.168 199.048 364.258 199.419C365.565 204.842 368.5 208.569 371.838 210.867L373.317 209.062C373.65 208.662 374.122 208.405 374.637 208.342C375.151 208.279 375.67 208.415 376.089 208.723C376.508 209.03 376.795 209.486 376.892 209.999C376.989 210.511 376.889 211.041 376.613 211.482L350.462 243.427ZM342.616 231.52C345.777 232.32 348.748 233.911 351.267 235.978L352.693 234.235C351.168 232.59 349.516 231.061 347.755 229.676C345.923 230.033 344.252 230.594 342.616 231.52ZM338.157 220.183C340.243 220.686 342.228 221.498 344.146 222.456C348.358 224.625 352.144 227.708 355.316 231.037L364.339 220.023C362.133 217.967 359.317 216.126 356.087 215.114C349.458 213.036 343.099 215.635 338.157 220.183ZM361.623 204.472L361.613 204.49C360.357 206.744 359.458 209.275 359.114 211.842C362 213.026 364.652 214.719 366.946 216.842L369.229 214.054C365.818 211.623 363.32 208.284 361.623 204.472Z" fill="#3D3D3D"/>
</g>
<g clip-path="url(#clip2_5387_19217)">
<path d="M56.8423 74.3497C57.2441 74.6836 57.5041 75.1593 57.569 75.6795C57.6339 76.1997 57.4989 76.7252 57.1916 77.1487C56.8842 77.5721 56.4277 77.8616 55.9154 77.9578C55.403 78.0541 54.8734 77.9499 54.4349 77.6665L52.5936 76.1587C50.1353 79.2014 48.4596 83.0742 48.4821 87.038C48.4841 87.4289 48.3754 87.8123 48.1686 88.1432C47.9619 88.4742 47.6657 88.739 47.3147 88.9068C46.9638 89.0745 46.5726 89.1382 46.1869 89.0904C45.8013 89.0425 45.4371 88.8852 45.1372 88.6367C42.8079 86.7057 41.1918 84.2729 40.1577 81.5923C38.5297 84.5077 37.3384 87.7505 37.243 91.1208C37.2319 91.5122 37.11 91.8923 36.8915 92.2164C36.6731 92.5405 36.3672 92.7952 36.0098 92.9505C35.6524 93.1058 35.2584 93.1552 34.8741 93.093C34.4898 93.0308 34.1311 92.8595 33.8401 92.5994C25.5111 85.1346 22.6906 77.289 24.2358 69.6294C19.8549 68.8765 15.6994 66.8975 12.2749 64.0585C11.9819 63.8156 11.7618 63.4953 11.6395 63.1336C11.5172 62.772 11.4974 62.3832 11.5824 62.0109C11.6674 61.6385 11.8537 61.2973 12.1206 61.0255C12.3875 60.7537 12.7243 60.5621 13.0934 60.472C18.4847 59.1571 22.1894 56.204 24.4738 52.8465L22.6795 51.359C22.2823 51.0237 22.0266 50.5492 21.9641 50.0315C21.9015 49.5138 22.0367 48.9915 22.3424 48.5703C22.6481 48.1491 23.1015 47.8604 23.6107 47.7627C24.12 47.6649 24.6471 47.7654 25.0856 48.0437L56.8423 74.3497ZM45.0051 82.2416C45.8001 79.0621 47.3819 76.0738 49.4372 73.5393L47.7047 72.1057C46.0692 73.6394 44.5491 75.3007 43.1718 77.0724C43.5272 78.9158 44.0848 80.5963 45.0051 82.2416ZM33.735 86.7277C34.2355 84.629 35.0422 82.632 35.9947 80.7028C38.1513 76.4663 41.2161 72.6575 44.5246 69.4666L33.5759 60.3898C31.5325 62.6089 29.7019 65.4417 28.6958 68.6913C26.6299 75.3594 29.2143 81.7564 33.735 86.7277ZM18.1166 63.1223L18.135 63.1322C20.3755 64.3953 22.8911 65.2999 25.4433 65.6457C26.6202 62.7429 28.3033 60.075 30.4134 57.768L27.6423 55.4706C25.2255 58.9024 21.9058 61.4148 18.1166 63.1223Z" fill="#3D3D3D"/>
</g>
<g clip-path="url(#clip3_5387_19217)">
<path d="M252.859 298.437C252.863 298.961 252.668 299.468 252.313 299.852C251.959 300.236 251.472 300.47 250.952 300.505C250.432 300.541 249.918 300.375 249.515 300.042C249.112 299.709 248.851 299.234 248.785 298.714L248.75 296.326C244.853 296.387 240.826 297.586 237.822 300.151C237.526 300.404 237.164 300.566 236.779 300.62C236.394 300.673 236.002 300.615 235.649 300.452C235.295 300.29 234.995 300.029 234.784 299.701C234.573 299.373 234.458 298.992 234.455 298.601C234.428 295.565 235.242 292.756 236.619 290.236C233.352 290.855 230.117 292.022 227.489 294.114C227.184 294.357 226.816 294.508 226.429 294.548C226.041 294.588 225.651 294.516 225.303 294.34C224.955 294.165 224.664 293.893 224.464 293.557C224.265 293.221 224.164 292.834 224.176 292.443C224.506 281.226 228.668 274.01 235.494 270.277C233.252 266.417 232.088 261.943 232.048 257.479C232.045 257.097 232.147 256.722 232.344 256.395C232.541 256.068 232.824 255.803 233.162 255.629C233.501 255.455 233.88 255.38 234.259 255.411C234.637 255.442 235 255.578 235.306 255.804C239.772 259.114 244.403 260.07 248.428 259.672L248.407 257.334C248.407 256.812 248.604 256.31 248.958 255.929C249.312 255.548 249.797 255.317 250.314 255.281C250.832 255.246 251.343 255.41 251.745 255.74C252.146 256.069 252.409 256.54 252.479 257.057L252.859 298.437ZM239.24 294.388C242.172 292.957 245.465 292.255 248.716 292.21L248.694 289.953C246.475 289.679 244.232 289.576 241.998 289.653C240.823 291.112 239.901 292.622 239.24 294.388ZM228.579 288.587C230.499 287.624 232.539 286.962 234.62 286.456C239.232 285.395 244.103 285.308 248.66 285.807L248.534 271.535C245.531 271.387 242.197 271.797 239.075 273.111C232.67 275.805 229.459 281.908 228.579 288.587ZM236.516 261.379L236.52 261.399C236.999 263.938 237.927 266.458 239.304 268.647C242.271 267.688 245.385 267.27 248.498 267.413L248.466 263.801C244.299 264.144 240.252 263.201 236.516 261.379Z" fill="#3D3D3D"/>
</g>
<g clip-path="url(#clip4_5387_19217)">
<path d="M438.453 12.3474L408.443 32.3332L400.601 20.417L406.227 16.6696L408.842 20.6417L412.593 18.1435L409.979 14.1714L421.232 6.67675L423.847 10.6488L427.598 8.15058L424.984 4.17852L430.61 0.431183M444.988 22.2775L414.979 42.2633L412.365 38.2913L442.374 18.3055M404.75 6.2273L416.004 -1.26738L418.618 2.70468L407.364 10.1994M427.996 -3.54088L422.369 0.206458L419.755 -3.7656C418.304 -5.9701 415.472 -6.62595 413.39 -5.23944L402.136 2.25524C400.054 3.64175 399.548 6.52103 400.999 8.72552L403.613 12.6976L397.986 16.4449C395.905 17.8314 395.399 20.7107 396.849 22.9152L411.228 44.7616C412.678 46.966 415.511 47.6219 417.593 46.2354L447.603 26.2496C449.685 24.8631 450.191 21.9838 448.74 19.7793L434.362 -2.06704C432.911 -4.27154 430.078 -4.92739 427.996 -3.54088Z" fill="#3D3D3D"/>
</g>
<g clip-path="url(#clip5_5387_19217)">
<path d="M132.642 261.995L145.25 295.905L131.943 300.911L129.579 294.553L134.015 292.884L132.439 288.646L128.003 290.314L123.275 277.598L127.711 275.929L126.135 271.691L121.699 273.359L119.335 267.001M143.731 257.823L156.339 291.733L151.903 293.402L139.295 259.492M119.132 293.652L114.404 280.936L118.84 279.267L123.568 291.983M114.9 268.67L117.264 275.028L112.828 276.697C110.367 277.623 109.094 280.252 109.969 282.605L114.697 295.321C115.572 297.673 118.247 298.817 120.708 297.891L125.144 296.222L127.508 302.58C128.383 304.932 131.058 306.076 133.519 305.15L157.915 295.972C160.376 295.045 161.649 292.417 160.774 290.064L148.166 256.154C147.291 253.802 144.616 252.658 142.155 253.584L117.759 262.763C115.298 263.689 114.025 266.318 114.9 268.67Z" fill="#3D3D3D"/>
</g>
<g clip-path="url(#clip6_5387_19217)">
<path d="M248.078 21.5493L217.069 39.9278L209.857 27.615L215.672 24.1691L218.076 28.2733L221.952 25.976L219.548 21.8718L231.176 14.9798L233.58 19.0841L237.456 16.7868L235.052 12.6825L240.866 9.23653M254.088 31.8099L223.079 50.1884L220.675 46.0841L251.684 27.7056M214.74 13.6633L226.368 6.77132L228.772 10.8756L217.144 17.7675M238.462 5.13229L232.648 8.57826L230.244 4.47401C228.91 2.19615 226.115 1.39207 223.964 2.66708L212.336 9.55901C210.184 10.834 209.529 13.6827 210.864 15.9606L213.268 20.0648L207.454 23.5108C205.302 24.7858 204.647 27.6345 205.981 29.9123L219.203 52.4857C220.537 54.7636 223.332 55.5677 225.483 54.2926L256.492 35.9141C258.643 34.6391 259.298 31.7904 257.964 29.5126L244.742 6.93922C243.408 4.66136 240.613 3.85728 238.462 5.13229Z" fill="#3D3D3D"/>
</g>
<path d="M94.1312 -13.8259L92.6501 -9.04189C92.5535 -8.72031 92.5598 -8.37632 92.6682 -8.05857C92.7767 -7.74082 92.9816 -7.4654 93.2542 -7.27126L98.4407 -4.04398L89.7024 14.0027C88.8889 15.4268 88.3943 17.0124 88.2532 18.6487C88.1121 20.285 88.3278 21.9326 88.8854 23.4763C89.4429 25.0201 90.3288 26.4227 91.4811 27.5864C92.6334 28.75 94.0244 29.6465 95.5569 30.2132C96.3302 30.4458 97.1636 30.3602 97.8742 29.9752C98.5848 29.5902 99.1144 28.9373 99.3469 28.1598L103.051 16.3216L103.421 15.1343L110.982 12.8384C111.244 12.7683 111.482 12.631 111.675 12.44C111.867 12.249 112.007 12.0109 112.081 11.7491L113.764 6.37126C113.883 6.08878 113.922 5.77898 113.877 5.47575C113.832 5.17253 113.705 4.88755 113.51 4.65201C113.315 4.41646 113.059 4.23942 112.771 4.14025C112.482 4.04108 112.172 4.02359 111.875 4.08971L106.485 5.25201L106.72 4.4838L110.323 -7.07485C110.457 -7.4485 110.516 -7.84525 110.496 -8.24199C110.476 -8.63872 110.378 -9.02752 110.207 -9.38574C110.036 -9.74396 109.797 -10.0644 109.502 -10.3285C109.207 -10.5926 108.862 -10.795 108.489 -10.9239L95.9916 -14.8523C95.6097 -14.9582 95.2018 -14.9102 94.8545 -14.7186C94.5072 -14.5269 94.2478 -14.2067 94.1312 -13.8259Z" stroke="#3D3D3D" stroke-width="3.22295" stroke-linecap="round" stroke-linejoin="round"/>
<path d="M17.8448 293.703L19.7671 298.325C19.8986 298.634 20.1233 298.893 20.4094 299.067C20.6955 299.24 21.0285 299.319 21.3613 299.291L27.3966 298.41L32.2345 317.884C32.5213 319.501 33.1557 321.036 34.0932 322.38C35.0307 323.725 36.2487 324.848 37.6623 325.67C39.0758 326.492 40.6507 326.994 42.277 327.14C43.9033 327.286 45.5417 327.074 47.0778 326.517C47.8188 326.195 48.4026 325.591 48.7009 324.836C48.9992 324.082 48.9877 323.239 48.6689 322.493L43.9418 311.03L43.4668 309.881L47.7919 303.233C47.9473 303.01 48.0424 302.751 48.0679 302.48C48.0933 302.209 48.0483 301.936 47.9371 301.688L45.7905 296.48C45.7007 296.187 45.5325 295.925 45.3044 295.721C45.0762 295.518 44.7969 295.382 44.497 295.327C44.197 295.273 43.888 295.303 43.6038 295.413C43.3195 295.524 43.0709 295.711 42.8852 295.954L39.4987 300.33L39.1883 299.589L34.5621 288.405C34.426 288.032 34.2175 287.69 33.9488 287.399C33.6801 287.108 33.3565 286.874 32.9968 286.71C32.6372 286.545 32.2486 286.455 31.8539 286.444C31.4592 286.432 31.0661 286.5 30.6976 286.642L18.614 291.714C18.2538 291.879 17.9721 292.18 17.8284 292.551C17.6848 292.923 17.6907 293.336 17.8448 293.703Z" stroke="#3D3D3D" stroke-width="3.22298" stroke-linecap="round" stroke-linejoin="round"/>
<path d="M320.934 46.0052L324.312 49.6875C324.541 49.9325 324.84 50.0989 325.168 50.1634C325.496 50.2278 325.835 50.1869 326.139 50.0466L331.51 47.142L342.678 63.7777C343.497 65.1985 344.615 66.4221 345.953 67.3632C347.291 68.3043 348.818 68.9401 350.425 69.2263C352.033 69.5125 353.684 69.4421 355.262 69.02C356.84 68.598 358.307 67.8344 359.561 66.7828C360.148 66.2254 360.491 65.4566 360.515 64.645C360.539 63.8335 360.241 63.0456 359.688 62.4544L351.349 53.3086L350.512 52.3923L352.316 44.6573C352.386 44.3946 352.387 44.118 352.319 43.8548C352.251 43.5915 352.116 43.3507 351.927 43.1559L348.139 39.0003C347.955 38.7559 347.708 38.5671 347.424 38.4546C347.141 38.342 346.832 38.3101 346.531 38.3623C346.231 38.4144 345.951 38.5487 345.721 38.7503C345.492 38.9519 345.322 39.2132 345.23 39.5055L343.535 44.7824L342.992 44.1931L334.842 35.2753C334.587 34.9717 334.275 34.7221 333.924 34.5411C333.572 34.36 333.188 34.2511 332.795 34.2207C332.401 34.1902 332.005 34.2389 331.63 34.3639C331.255 34.4888 330.909 34.6876 330.611 34.9485L320.981 43.8713C320.699 44.1511 320.536 44.5304 320.527 44.9288C320.519 45.3271 320.665 45.7133 320.934 46.0052Z" stroke="#3D3D3D" stroke-width="3.22298" stroke-linecap="round" stroke-linejoin="round"/>
<path d="M411.826 285.853L408.165 289.252C407.922 289.481 407.756 289.783 407.692 290.112C407.628 290.442 407.669 290.784 407.808 291.089L410.696 296.492L394.158 307.726C392.746 308.55 391.529 309.675 390.594 311.021C389.658 312.367 389.026 313.902 388.741 315.52C388.457 317.137 388.527 318.797 388.947 320.385C389.366 321.972 390.125 323.448 391.171 324.71C391.725 325.3 392.489 325.645 393.296 325.669C394.103 325.693 394.886 325.394 395.473 324.837L404.565 316.448L405.476 315.606L413.166 317.421C413.427 317.492 413.702 317.493 413.963 317.424C414.225 317.356 414.465 317.22 414.658 317.03L418.789 313.219C419.032 313.034 419.22 312.786 419.332 312.5C419.444 312.215 419.475 311.905 419.424 311.603C419.372 311.3 419.238 311.019 419.038 310.788C418.837 310.557 418.578 310.386 418.287 310.293L413.041 308.589L413.627 308.042L422.492 299.844C422.794 299.588 423.042 299.274 423.222 298.92C423.402 298.566 423.51 298.18 423.541 297.784C423.571 297.388 423.523 296.99 423.398 296.613C423.274 296.236 423.077 295.887 422.817 295.588L413.947 285.9C413.669 285.617 413.292 285.453 412.896 285.444C412.5 285.435 412.116 285.582 411.826 285.853Z" stroke="#3D3D3D" stroke-width="3.22298" stroke-linecap="round" stroke-linejoin="round"/>
</g>
<defs>
<clipPath id="clip0_5387_19217">
<rect width="343.183" height="449.882" fill="white" transform="matrix(-0.00878981 -0.999961 0.99996 -0.00889438 3.78027 330.993)"/>
</clipPath>
<clipPath id="clip1_5387_19217">
<rect width="45.1449" height="45.0986" fill="white" transform="matrix(0.63378 -0.773579 0.769808 0.638195 320.559 221.297)"/>
</clipPath>
<clipPath id="clip2_5387_19217">
<rect width="45.0986" height="45.1449" fill="white" transform="matrix(-0.769808 -0.638195 0.63378 -0.773579 34.8486 104.43)"/>
</clipPath>
<clipPath id="clip3_5387_19217">
<rect width="45.2549" height="44.9882" fill="white" transform="matrix(-0.00878981 -0.999961 0.99996 -0.00889438 215.811 300.82)"/>
</clipPath>
<clipPath id="clip4_5387_19217">
<rect width="45.0675" height="45.176" fill="white" transform="matrix(0.832355 -0.55433 0.549738 0.83528 389.006 10.999)"/>
</clipPath>
<clipPath id="clip5_5387_19217">
<rect width="45.2238" height="45.0194" fill="white" transform="matrix(-0.34849 -0.937277 0.93598 -0.352148 120.213 310.155)"/>
</clipPath>
<clipPath id="clip6_5387_19217">
<rect width="45.055" height="45.1884" fill="white" transform="matrix(0.860292 -0.509891 0.505388 0.86284 198.771 17.5996)"/>
</clipPath>
</defs>
</svg>
