<svg width="256" height="310" viewBox="0 0 256 310" fill="none" xmlns="http://www.w3.org/2000/svg">
<g opacity="0.4" clip-path="url(#clip0_4299_17036)">
<g clip-path="url(#clip1_4299_17036)">
<path d="M67.7354 236.133C67.4517 235.894 67.2697 235.556 67.2268 235.188C67.1839 234.82 67.2832 234.449 67.5045 234.151C67.7257 233.854 68.0522 233.652 68.4172 233.587C68.7823 233.523 69.1583 233.6 69.4684 233.803L70.7686 234.88C72.5362 232.744 73.7523 230.017 73.7611 227.214C73.7621 226.937 73.8418 226.667 73.9909 226.434C74.1401 226.202 74.3524 226.016 74.6031 225.9C74.8538 225.783 75.1324 225.741 75.4064 225.777C75.6804 225.813 75.9384 225.927 76.1502 226.104C77.7949 227.484 78.9292 229.215 79.6479 231.117C80.8241 229.065 81.6917 226.78 81.7806 224.398C81.791 224.121 81.8801 223.853 82.0375 223.625C82.1949 223.397 82.4141 223.219 82.6692 223.112C82.9244 223.004 83.2049 222.972 83.4779 223.018C83.7509 223.064 84.0049 223.188 84.2102 223.374C90.0878 228.704 92.0449 234.269 90.8979 239.675C94.0092 240.235 96.9525 241.661 99.3705 243.69C99.5774 243.863 99.7319 244.091 99.8167 244.348C99.9014 244.604 99.913 244.879 99.8503 245.142C99.7875 245.405 99.6528 245.645 99.4613 245.835C99.2698 246.026 99.029 246.159 98.7659 246.221C94.923 247.116 92.2695 249.181 90.6237 251.541L91.8907 252.604C92.171 252.843 92.3499 253.18 92.3912 253.547C92.4325 253.913 92.333 254.282 92.1129 254.578C91.8929 254.874 91.5686 255.075 91.2058 255.141C90.843 255.207 90.4686 255.132 90.1585 254.933L67.7354 236.133ZM76.2041 230.627C75.6188 232.87 74.4751 234.973 72.9974 236.752L74.2206 237.777C75.3935 236.703 76.4851 235.538 77.4758 234.294C77.2346 232.988 76.8485 231.796 76.2041 230.627ZM84.2483 227.526C83.8792 229.007 83.293 230.414 82.6034 231.772C81.043 234.754 78.8393 237.428 76.4661 239.663L84.1968 246.15C85.6641 244.594 86.9838 242.602 87.7198 240.311C89.2309 235.609 87.4327 231.069 84.2483 227.526ZM95.2096 244.315L95.1966 244.308C93.6109 243.401 91.8273 242.745 90.0142 242.485C89.1589 244.53 87.9451 246.406 86.4298 248.024L88.3865 249.665C90.1269 247.254 92.5038 245.498 95.2096 244.315Z" fill="#505050"/>
</g>
<g clip-path="url(#clip2_4299_17036)">
<path d="M189.132 28.3476C188.893 28.6314 188.555 28.8133 188.187 28.8562C187.819 28.8991 187.448 28.7998 187.151 28.5785C186.853 28.3573 186.651 28.0308 186.586 27.6658C186.522 27.3007 186.599 26.9247 186.802 26.6146L187.879 25.3144C185.743 23.5468 183.016 22.3307 180.213 22.3219C179.936 22.3209 179.666 22.2412 179.433 22.0921C179.201 21.943 179.015 21.7306 178.899 21.4799C178.782 21.2293 178.74 20.9506 178.776 20.6766C178.812 20.4026 178.926 20.1446 179.103 19.9328C180.483 18.2881 182.214 17.1539 184.116 16.4351C182.064 15.2589 179.779 14.3913 177.397 14.3024C177.12 14.292 176.852 14.2029 176.624 14.0455C176.396 13.8881 176.218 13.6689 176.111 13.4138C176.003 13.1586 175.971 12.8781 176.017 12.6051C176.063 12.3321 176.187 12.0781 176.373 11.8728C181.703 5.99525 187.268 4.03813 192.674 5.18509C193.234 2.0738 194.66 -0.869532 196.689 -3.28749C196.862 -3.49442 197.09 -3.64891 197.347 -3.73365C197.603 -3.8184 197.878 -3.83003 198.141 -3.76727C198.404 -3.70451 198.644 -3.56983 198.834 -3.37831C199.025 -3.18679 199.158 -2.946 199.22 -2.68293C200.115 1.16 202.18 3.81347 204.54 5.45927L205.603 4.19235C205.842 3.91198 206.18 3.73307 206.546 3.6918C206.912 3.65054 207.281 3.75 207.577 3.97006C207.873 4.19013 208.074 4.51438 208.14 4.87721C208.206 5.24004 208.131 5.61436 207.932 5.92446L189.132 28.3476ZM183.626 19.8789C185.869 20.4642 187.972 21.6079 189.751 23.0857L190.776 21.8624C189.702 20.6895 188.537 19.5979 187.293 18.6072C185.987 18.8484 184.795 19.2345 183.626 19.8789ZM180.525 11.8347C182.006 12.2038 183.413 12.79 184.771 13.4796C187.753 15.04 190.427 17.2437 192.662 19.6169L199.149 11.8862C197.593 10.4189 195.601 9.09916 193.31 8.36319C188.608 6.8521 184.068 8.6503 180.525 11.8347ZM197.314 0.873367L197.307 0.886377C196.4 2.47211 195.744 4.25574 195.484 6.06883C197.529 6.92408 199.405 8.13795 201.023 9.65318L202.664 7.69653C200.253 5.95613 198.497 3.57916 197.314 0.873367Z" fill="#505050"/>
</g>
<g clip-path="url(#clip3_4299_17036)">
<path d="M29.4538 166.365C29.083 166.365 28.7264 166.223 28.4569 165.968C28.1873 165.714 28.0251 165.366 28.0033 164.996C27.9816 164.626 28.102 164.261 28.34 163.977C28.5779 163.693 28.9155 163.51 29.2836 163.466L30.9724 163.456C30.9534 160.683 30.1316 157.812 28.3367 155.659C28.1598 155.447 28.0471 155.189 28.0117 154.915C27.9764 154.64 28.0198 154.362 28.137 154.112C28.2543 153.861 28.4404 153.65 28.6736 153.501C28.9068 153.353 29.1774 153.274 29.4538 153.274C31.6007 153.274 33.5819 153.87 35.355 154.865C34.9375 152.538 34.1331 150.229 32.6698 148.347C32.4999 148.129 32.3959 147.866 32.3701 147.59C32.3442 147.315 32.3976 147.037 32.5239 146.791C32.6502 146.545 32.8443 146.339 33.0832 146.199C33.3222 146.059 33.5961 145.991 33.8728 146.001C41.8016 146.306 46.8781 149.312 49.4745 154.19C52.2178 152.619 55.3888 151.819 58.5452 151.819C58.8153 151.819 59.0801 151.895 59.3099 152.037C59.5397 152.179 59.7254 152.382 59.8462 152.623C59.967 152.865 60.0181 153.135 59.9939 153.404C59.9696 153.674 59.8709 153.931 59.7088 154.147C57.3408 157.303 56.6353 160.59 56.8913 163.456H58.5452C58.9139 163.459 59.2677 163.602 59.5348 163.857C59.802 164.111 59.9626 164.457 59.9843 164.825C60.0059 165.193 59.8869 165.556 59.6513 165.84C59.4157 166.123 59.0812 166.307 58.7154 166.353L29.4538 166.365ZM32.4022 156.704C33.3957 158.798 33.8713 161.145 33.8829 163.457L35.4786 163.456C35.6866 161.879 35.7739 160.285 35.7332 158.695C34.7091 157.85 33.6473 157.185 32.4022 156.704ZM36.571 149.157C37.2401 150.529 37.6954 151.984 38.0401 153.467C38.7616 156.755 38.7921 160.219 38.411 163.457H48.5028C48.6265 161.322 48.3574 158.948 47.4483 156.72C45.5835 152.147 41.2882 149.825 36.571 149.157ZM55.7597 154.973L55.7451 154.976C53.9473 155.3 52.1596 155.944 50.6032 156.91C51.2626 159.027 51.5385 161.244 51.4178 163.457H53.972C53.7553 160.491 54.4477 157.619 55.7597 154.973Z" fill="#505050"/>
</g>
<g clip-path="url(#clip4_4299_17036)">
<path d="M230.574 300.161L216.631 278.691L225.106 273.187L227.72 277.213L224.895 279.048L226.638 281.731L229.463 279.897L234.691 287.948L231.866 289.783L233.609 292.466L236.434 290.632L239.049 294.657M223.511 304.748L209.568 283.278L212.393 281.443L226.336 302.913M235.113 276.228L240.341 284.279L237.516 286.113L232.288 278.062M241.874 292.823L239.259 288.797L242.084 286.963C243.652 285.944 244.134 283.934 243.166 282.444L237.938 274.393C236.971 272.904 234.938 272.526 233.37 273.544L230.545 275.379L227.931 271.353C226.963 269.863 224.931 269.486 223.363 270.504L207.825 280.594C206.258 281.612 205.776 283.623 206.743 285.112L220.686 306.582C221.653 308.072 223.686 308.45 225.254 307.431L240.791 297.341C242.359 296.323 242.841 294.312 241.874 292.823Z" fill="#505050"/>
</g>
<g clip-path="url(#clip5_4299_17036)">
<path d="M55.9756 81.0868L31.9194 89.8425L28.4632 80.3467L32.9737 78.705L34.1258 81.8703L37.1328 80.7758L35.9808 77.6105L45.0018 74.3271L46.1539 77.4924L49.1609 76.398L48.0088 73.2327L52.5194 71.591M58.8557 89L34.7996 97.7557L33.6475 94.5905L57.7037 85.8347M33.6766 71.28L42.6977 67.9966L43.8497 71.1619L34.8287 74.4452M51.3673 68.4257L46.8568 70.0674L45.7047 66.9021C45.0653 65.1454 43.2145 64.2239 41.5456 64.8313L32.5246 68.1147C30.8557 68.7221 30.0302 70.6177 30.6696 72.3744L31.8217 75.5397L27.3112 77.1814C25.6423 77.7888 24.8168 79.6844 25.4562 81.4412L31.7926 98.8502C32.432 100.607 34.2828 101.528 35.9517 100.921L60.0078 92.1653C61.6767 91.5579 62.5021 89.6623 61.8627 87.9056L55.5264 70.4965C54.887 68.7398 53.0362 67.8183 51.3673 68.4257Z" fill="#505050"/>
</g>
<g clip-path="url(#clip6_4299_17036)">
<path d="M225.261 164.695L212.461 142.525L221.213 137.472L223.613 141.629L220.696 143.313L222.296 146.085L225.213 144.401L230.013 152.714L227.096 154.399L228.696 157.17L231.613 155.486L234.013 159.643M217.969 168.906L205.169 146.736L208.086 145.051L220.886 167.222M231.047 141.032L235.847 149.346L232.93 151.03L228.13 142.716M236.93 157.958L234.53 153.801L237.447 152.117C239.066 151.183 239.652 149.2 238.764 147.662L233.964 139.348C233.076 137.81 231.066 137.326 229.447 138.261L226.53 139.945L224.13 135.788C223.242 134.25 221.232 133.766 219.613 134.701L203.569 143.964C201.95 144.899 201.363 146.882 202.251 148.42L215.051 170.59C215.939 172.128 217.95 172.612 219.569 171.677L235.613 162.414C237.232 161.479 237.818 159.496 236.93 157.958Z" fill="#505050"/>
</g>
<path d="M251.244 55.4202L247.871 54.3368C247.644 54.266 247.401 54.2684 247.176 54.3435C246.95 54.4186 246.754 54.5627 246.615 54.7553L244.301 58.4242L231.595 52.0961C230.593 51.5086 229.475 51.1469 228.319 51.0363C227.163 50.9257 225.997 51.0688 224.902 51.4557C223.807 51.8426 222.809 52.4639 221.979 53.2763C221.149 54.0886 220.507 55.0724 220.096 56.1589C219.927 56.7074 219.982 57.3007 220.25 57.8086C220.518 58.3164 220.976 58.6972 221.525 58.8674L229.872 61.5759L230.709 61.8468L232.285 67.2392C232.333 67.4255 232.428 67.5961 232.562 67.7342C232.696 67.8724 232.863 67.9733 233.048 68.0271L236.84 69.2583C237.039 69.3442 237.258 69.3739 237.472 69.3438C237.687 69.3138 237.889 69.2253 238.057 69.0881C238.225 68.9508 238.352 68.77 238.424 68.5655C238.496 68.361 238.51 68.1407 238.465 67.9286L237.677 64.0874L238.219 64.2598L246.369 66.8945C246.632 66.9921 246.913 67.0364 247.193 67.0248C247.474 67.0132 247.749 66.9458 248.004 66.8266C248.258 66.7075 248.486 66.5389 248.675 66.3307C248.863 66.1225 249.009 65.8789 249.102 65.6141L251.958 56.7498C252.036 56.4788 252.004 56.1884 251.871 55.9402C251.738 55.692 251.513 55.5054 251.244 55.4202Z" stroke="#505050" stroke-width="2.28571" stroke-linecap="round" stroke-linejoin="round"/>
<path d="M34.2758 -0.76389L30.9953 0.574513C30.7761 0.666102 30.5913 0.824286 30.4669 1.02669C30.3426 1.22908 30.285 1.46545 30.3024 1.70236L30.8876 6.00061L17.0871 9.31991C15.942 9.51381 14.853 9.95539 13.8963 10.6138C12.9396 11.2722 12.1381 12.1316 11.548 13.1318C10.9578 14.1321 10.5932 15.2492 10.4795 16.405C10.3658 17.5608 10.5059 18.7275 10.8899 19.8235C11.1128 20.3526 11.5365 20.7716 12.0681 20.9885C12.5996 21.2054 13.1955 21.2025 13.7249 20.9804L21.8602 17.6898L22.6756 17.3591L27.349 20.477C27.5054 20.589 27.6883 20.6582 27.8797 20.678C28.071 20.6978 28.2642 20.6675 28.4402 20.59L32.1364 19.0957C32.3441 19.0336 32.5307 18.9157 32.6759 18.7547C32.8211 18.5937 32.9191 18.3959 32.9594 18.1829C32.9997 17.9699 32.9807 17.7499 32.9043 17.547C32.828 17.3441 32.6973 17.1661 32.5266 17.0325L29.4539 14.5965L29.9797 14.3803L37.9166 11.1597C38.1812 11.0653 38.4243 10.9191 38.6318 10.7298C38.8393 10.5405 39.0071 10.3118 39.1253 10.057C39.2436 9.80223 39.31 9.52646 39.3206 9.24577C39.3313 8.96508 39.286 8.68508 39.1873 8.42207L35.6775 -0.204319C35.5625 -0.461548 35.3518 -0.663858 35.0901 -0.768326C34.8285 -0.872794 34.5364 -0.871201 34.2758 -0.76389Z" stroke="#505050" stroke-width="2.28571" stroke-linecap="round" stroke-linejoin="round"/>
<path d="M207.513 216.363L204.888 218.742C204.713 218.903 204.594 219.115 204.546 219.348C204.498 219.581 204.525 219.822 204.622 220.039L206.642 223.878L194.809 231.717C193.8 232.291 192.927 233.078 192.254 234.024C191.58 234.97 191.121 236.052 190.908 237.194C190.696 238.335 190.735 239.51 191.024 240.635C191.312 241.76 191.843 242.808 192.578 243.707C192.969 244.128 193.51 244.377 194.084 244.399C194.658 244.421 195.217 244.214 195.638 243.824L202.157 237.95L202.811 237.36L208.268 238.692C208.454 238.743 208.649 238.746 208.836 238.699C209.022 238.652 209.194 238.558 209.332 238.425L212.295 235.756C212.469 235.627 212.604 235.452 212.685 235.251C212.766 235.05 212.791 234.831 212.756 234.617C212.721 234.403 212.628 234.203 212.487 234.038C212.345 233.874 212.162 233.751 211.956 233.684L208.235 232.446L208.655 232.063L215.012 226.322C215.228 226.143 215.407 225.922 215.537 225.673C215.667 225.424 215.747 225.152 215.771 224.872C215.795 224.592 215.763 224.311 215.677 224.043C215.591 223.776 215.452 223.528 215.27 223.315L209.021 216.409C208.825 216.207 208.558 216.089 208.276 216.08C207.995 216.071 207.721 216.173 207.513 216.363Z" stroke="#505050" stroke-width="2.28571" stroke-linecap="round" stroke-linejoin="round"/>
<path d="M37.3484 279.513L34.9687 276.888C34.8077 276.713 34.5958 276.594 34.3631 276.546C34.1303 276.498 33.8885 276.525 33.6719 276.622L29.833 278.642L21.9938 266.809C21.4199 265.8 20.6326 264.927 19.6866 264.254C18.7407 263.58 17.6591 263.121 16.5173 262.908C15.3755 262.696 14.2011 262.735 13.0761 263.024C11.9511 263.312 10.9027 263.843 10.0041 264.578C9.58314 264.969 9.33435 265.51 9.31233 266.084C9.2903 266.658 9.49684 267.217 9.88659 267.638L15.7612 274.157L16.3508 274.811L15.0193 280.268C14.9677 280.454 14.9651 280.649 15.0119 280.836C15.0588 281.022 15.1534 281.194 15.2864 281.332L17.9547 284.295C18.0841 284.469 18.2588 284.604 18.4597 284.685C18.6606 284.766 18.8801 284.791 19.094 284.756C19.3079 284.721 19.5081 284.628 19.6727 284.487C19.8372 284.345 19.9598 284.162 20.0269 283.956L21.2652 280.235L21.6481 280.655L27.3891 287.012C27.5683 287.228 27.7888 287.407 28.0376 287.537C28.2865 287.667 28.5588 287.747 28.8387 287.771C29.1185 287.795 29.4004 287.763 29.6678 287.677C29.9352 287.591 30.1828 287.452 30.3962 287.27L37.302 281.021C37.5043 280.825 37.6224 280.558 37.6311 280.276C37.6397 279.995 37.5383 279.721 37.3484 279.513Z" stroke="#505050" stroke-width="2.28571" stroke-linecap="round" stroke-linejoin="round"/>
</g>
<defs>
<clipPath id="clip0_4299_17036">
<rect width="256" height="310" fill="white"/>
</clipPath>
<clipPath id="clip1_4299_17036">
<rect width="32" height="32" fill="white" transform="translate(83.5693 215) rotate(40)"/>
</clipPath>
<clipPath id="clip2_4299_17036">
<rect width="32" height="32" fill="white" transform="translate(168 12.5156) rotate(-50)"/>
</clipPath>
<clipPath id="clip3_4299_17036">
<rect width="32" height="32" fill="white" transform="translate(28 140)"/>
</clipPath>
<clipPath id="clip4_4299_17036">
<rect width="32" height="32" fill="white" transform="translate(231.838 265) rotate(57)"/>
</clipPath>
<clipPath id="clip5_4299_17036">
<rect width="32" height="32" fill="white" transform="translate(22 71.9453) rotate(-20)"/>
</clipPath>
<clipPath id="clip6_4299_17036">
<rect width="32" height="32" fill="white" transform="translate(228.364 129.648) rotate(60)"/>
</clipPath>
</defs>
</svg>
