<svg width="700" height="569" viewBox="0 0 700 569" fill="none" xmlns="http://www.w3.org/2000/svg">
<g clip-path="url(#clip0_4703_19936)">
<path d="M140.716 471.14L43.0457 579.037L222.508 585.649L303.191 475.647L140.716 471.14Z" fill="#FFBEA5"/>
<path d="M246.987 347.296L120.066 495.513L272.942 515.96L347.592 411.421L246.987 347.296Z" fill="#FFBEA5"/>
<path d="M257.604 333.05C257.604 333.05 248.736 347.552 245.47 350.032C242.205 352.512 247.411 359.544 249.143 362.555C250.874 365.566 256.809 376.103 261.762 383.633C266.716 391.164 266.708 392.414 272.189 395.448C277.671 398.482 280.14 403.498 285.116 407.279C290.093 411.06 299.477 429.868 299.477 429.868L285.281 421.03C285.281 421.03 284.005 425.272 291.704 433.57C299.402 441.868 298.138 444.11 298.138 444.11C298.138 444.11 298.055 457.61 296.527 462.1C294.999 466.591 289.453 474.057 286.914 480.291C284.375 486.526 292.848 488.648 297.401 482.356C306.227 470.161 327.173 438.54 327.173 438.54L346.581 413.16C346.581 413.16 336.257 425.096 327.523 422.542C318.788 419.987 311.757 424.944 304.292 419.398C296.826 413.851 294.172 398.335 289.212 391.804C284.253 385.273 277.497 386.231 273.271 382.205C269.046 378.178 257.604 333.05 257.604 333.05Z" fill="#F1AA92"/>
<path d="M548.828 131.658C545.421 116.636 418.688 153.852 399.608 166.734C388.535 174.209 319.549 214.697 307.9 223.193C295.701 232.091 249.994 265.309 244.849 288.777C238.42 318.098 249.303 376.806 266.136 403.911C282.968 431.016 281.965 431.51 310.915 439.689C339.865 447.869 352.489 427.947 375.612 408.09C389.119 396.49 433.314 294.945 447.289 299.032C461.264 303.118 512.41 360.436 532.546 338.561C550.145 319.441 488.329 292.786 488.329 292.786C488.329 292.786 489.412 279.292 494.4 281.323C499.387 283.354 523.818 310.259 539.386 283.602C548.989 267.161 498.24 226.346 506.24 226.395C514.24 226.445 537.662 239.09 544.295 217.631C552.093 192.403 496.547 176.834 508.572 172.909C520.596 168.983 555.993 163.244 548.828 131.658Z" fill="#FFBEA5"/>
<mask id="mask0_4703_19936" style="mask-type:luminance" maskUnits="userSpaceOnUse" x="0" y="-132" width="705" height="705">
<path d="M4.45038 -131.719L704.437 -127.382L700.1 572.605L0.113263 568.268L4.45038 -131.719Z" fill="white"/>
</mask>
<g mask="url(#mask0_4703_19936)">
<g opacity="0.58">
<mask id="mask1_4703_19936" style="mask-type:luminance" maskUnits="userSpaceOnUse" x="402" y="48" width="116" height="338">
<path d="M404.239 48.8471L402.581 384.826L516.08 385.387L517.737 49.4064L404.239 48.8471Z" fill="white"/>
</mask>
<g mask="url(#mask1_4703_19936)">
<path d="M548.828 131.658C545.421 116.636 418.688 153.852 399.608 166.734C388.536 174.209 319.549 214.697 307.9 223.193C295.701 232.091 249.994 265.309 244.849 288.777C238.42 318.098 249.304 376.806 266.136 403.911C282.968 431.016 281.965 431.51 310.915 439.689C339.865 447.869 352.489 427.947 375.612 408.09C389.119 396.49 433.314 294.945 447.289 299.032C461.264 303.118 512.41 360.436 532.546 338.561C550.145 319.441 488.329 292.786 488.329 292.786C488.329 292.786 489.412 279.292 494.4 281.323C499.387 283.354 523.818 310.259 539.387 283.602C548.989 267.161 498.241 226.346 506.24 226.395C514.24 226.445 537.662 239.09 544.295 217.631C552.093 192.403 496.547 176.834 508.572 172.909C520.596 168.983 555.993 163.244 548.828 131.658Z" fill="#EC9F82"/>
</g>
</g>
</g>
<path d="M244.617 293.913C245.527 308.419 243.533 339.768 244.48 348.274C245.428 356.78 253.782 380.332 259.766 382.869C265.751 385.407 278.142 402.984 286.105 409.033C294.067 415.083 296.48 429.098 301.459 432.629C306.437 436.16 328.415 439.796 340.933 436.873C353.451 433.951 386.702 393.656 394.254 385.203C399.626 379.191 388.35 369.666 388.35 369.666C388.35 369.666 337.517 423.352 325.514 423.778C313.511 424.203 306.536 420.16 300.564 415.623C294.592 411.086 292.682 396.574 286.719 390.537C280.756 384.5 262.791 378.888 258.859 367.864C256.52 361.304 254.461 351.336 253.005 344.327C251.548 337.318 249.677 293.984 249.732 284.984C249.756 281.134 243.707 279.407 244.617 293.913Z" fill="#F1AA92"/>
<mask id="mask2_4703_19936" style="mask-type:luminance" maskUnits="userSpaceOnUse" x="48" y="-76" width="617" height="616">
<path d="M48.9973 -76H664.997V540H48.9973V-76Z" fill="white"/>
</mask>
<g mask="url(#mask2_4703_19936)">
</g>
<g clip-path="url(#clip1_4703_19936)">
<mask id="mask3_4703_19936" style="mask-type:luminance" maskUnits="userSpaceOnUse" x="313" y="36" width="190" height="393">
<path d="M502.499 36.75H313.499V428.25H502.499V36.75Z" fill="white"/>
</mask>
<g mask="url(#mask3_4703_19936)">
<path d="M472.799 428.156H343.199C326.796 428.156 313.499 414.859 313.499 398.456V66.3562C313.499 49.9537 326.796 36.6562 343.199 36.6562H472.799C489.202 36.6562 502.499 49.9537 502.499 66.3562V398.456C502.499 414.859 489.202 428.156 472.799 428.156Z" fill="#282828"/>
<path d="M475.499 414.656H340.499C325.587 414.656 313.499 402.568 313.499 387.656V63.6562C313.499 48.7448 325.587 36.6562 340.499 36.6562H475.499C490.411 36.6562 502.499 48.7448 502.499 63.6562V387.656C502.499 402.568 490.411 414.656 475.499 414.656Z" fill="#1E1E1F"/>
<mask id="mask4_4703_19936" style="mask-type:luminance" maskUnits="userSpaceOnUse" x="326" y="50" width="163" height="352">
<path d="M326.999 59.25C326.999 54.2794 331.029 50.25 335.999 50.25H479.999C484.97 50.25 488.999 54.2794 488.999 59.25V392.25C488.999 397.221 484.97 401.25 479.999 401.25H335.999C331.029 401.25 326.999 397.221 326.999 392.25V59.25Z" fill="white"/>
</mask>
<g mask="url(#mask4_4703_19936)">
<path d="M326.999 392.25C326.999 397.221 331.029 401.25 335.999 401.25H479.999C484.97 401.25 488.999 397.221 488.999 392.25V59.25C488.999 54.2794 484.97 50.25 479.999 50.25H335.999C331.029 50.25 326.999 54.2794 326.999 59.25V392.25Z" fill="#3D3D3D"/>
<path d="M375.999 50H439.999V54C439.999 56.2091 438.208 58 435.999 58H379.999C377.79 58 375.999 56.2091 375.999 54V50Z" fill="#1E1E1F"/>
<path d="M367.499 295.953C367.499 299.976 365.744 303.587 362.95 306.051C361.863 307.016 360.628 307.806 359.271 308.387C358.42 308.744 357.529 309.021 356.598 309.197C356.591 309.203 356.584 309.203 356.578 309.203C356.112 309.298 355.633 309.365 355.147 309.399C354.924 309.426 354.694 309.44 354.465 309.44C354.31 309.453 354.154 309.453 353.999 309.453C353.911 309.453 353.824 309.453 353.736 309.446C353.277 309.44 352.818 309.413 352.372 309.352H352.352C351.4 309.237 350.482 309.021 349.605 308.717C348.073 308.191 346.669 307.394 345.44 306.389C342.423 303.918 340.499 300.158 340.499 295.953C340.499 288.494 346.54 282.453 353.999 282.453C361.458 282.453 367.499 288.494 367.499 295.953Z" fill="#00EBD6"/>
<mask id="mask5_4703_19936" style="mask-type:luminance" maskUnits="userSpaceOnUse" x="346" y="289" width="16" height="12">
<path d="M361.433 289H346.995V300.573H361.433V289Z" fill="white"/>
</mask>
<g mask="url(#mask5_4703_19936)">
<path d="M354.159 291.125C355.626 291.125 357.033 291.631 358.071 292.531C359.108 293.431 359.691 294.651 359.691 295.924V298.946C359.691 299.292 359.532 299.624 359.251 299.868C358.969 300.113 358.587 300.25 358.188 300.25H350.131C349.934 300.25 349.738 300.216 349.556 300.151C349.374 300.085 349.208 299.989 349.068 299.868C348.929 299.747 348.818 299.603 348.743 299.445C348.667 299.287 348.628 299.118 348.628 298.946V295.924C348.628 294.651 349.211 293.431 350.248 292.531C351.286 291.631 352.692 291.125 354.159 291.125Z" fill="white"/>
<path d="M354.159 291.125C355.626 291.125 357.033 291.638 358.071 292.55C359.108 293.462 359.691 294.7 359.691 295.99V299.054C359.691 299.404 359.532 299.74 359.251 299.988C358.969 300.236 358.587 300.375 358.188 300.375H350.131C349.934 300.375 349.738 300.341 349.556 300.274C349.374 300.208 349.208 300.111 349.068 299.988C348.929 299.865 348.818 299.72 348.743 299.559C348.667 299.399 348.628 299.227 348.628 299.054V295.99C348.628 294.7 349.211 293.462 350.248 292.55C351.286 291.638 352.692 291.125 354.159 291.125Z" stroke="#1F242B" stroke-width="0.375" stroke-miterlimit="10"/>
<path d="M347.665 295.273H348.633V297.693H347.665C347.538 297.693 347.417 297.643 347.327 297.553C347.237 297.464 347.187 297.342 347.187 297.215V295.753C347.187 295.69 347.199 295.627 347.223 295.569C347.247 295.511 347.282 295.458 347.327 295.414C347.371 295.369 347.424 295.334 347.482 295.31C347.54 295.286 347.602 295.273 347.665 295.273Z" fill="white"/>
<path d="M347.665 295.273H348.633V297.693H347.665C347.538 297.693 347.417 297.643 347.327 297.553C347.237 297.464 347.187 297.342 347.187 297.215V295.753C347.187 295.69 347.199 295.627 347.223 295.569C347.247 295.511 347.282 295.458 347.327 295.414C347.371 295.369 347.424 295.334 347.482 295.31C347.54 295.286 347.602 295.273 347.665 295.273Z" stroke="#1F242B" stroke-width="0.375" stroke-miterlimit="10"/>
<path d="M360.668 297.67H359.701V295.25H360.668C360.795 295.25 360.917 295.3 361.007 295.39C361.096 295.48 361.147 295.602 361.147 295.728V297.191C361.147 297.318 361.096 297.439 361.007 297.529C360.917 297.619 360.795 297.669 360.668 297.669V297.67Z" fill="white"/>
<path d="M360.668 297.67H359.701V295.25H360.668C360.795 295.25 360.917 295.3 361.007 295.39C361.096 295.48 361.147 295.602 361.147 295.728V297.191C361.147 297.318 361.096 297.439 361.007 297.529C360.917 297.619 360.795 297.669 360.668 297.669V297.67Z" stroke="#1F242B" stroke-width="0.375" stroke-miterlimit="10"/>
<path d="M357.412 295.562H350.982C350.491 295.562 350.093 295.96 350.093 296.451V297.568C350.093 298.059 350.491 298.456 350.982 298.456H357.412C357.902 298.456 358.3 298.059 358.3 297.568V296.451C358.3 295.96 357.902 295.562 357.412 295.562Z" fill="#425A58"/>
<mask id="mask6_4703_19936" style="mask-type:luminance" maskUnits="userSpaceOnUse" x="348" y="290" width="13" height="13">
<path d="M360.237 290.664H348.372V302.529H360.237V290.664Z" fill="white"/>
</mask>
<g mask="url(#mask6_4703_19936)">
<mask id="mask7_4703_19936" style="mask-type:luminance" maskUnits="userSpaceOnUse" x="349" y="291" width="11" height="11">
<path d="M349.24 291.531H359.364V301.656H349.24V291.531Z" fill="white"/>
</mask>
<g mask="url(#mask7_4703_19936)">
<g clip-path="url(#clip2_4703_19936)">
<path d="M354.216 296.742C353.888 296.742 353.622 297.008 353.622 297.335C353.622 297.663 353.888 297.929 354.216 297.929C354.543 297.929 354.809 297.663 354.809 297.335C354.809 297.008 354.543 296.742 354.216 296.742Z" fill="#00EBD6"/>
</g>
<mask id="mask8_4703_19936" style="mask-type:luminance" maskUnits="userSpaceOnUse" x="349" y="291" width="11" height="11">
<path d="M349.23 291.531H359.354V301.656H349.23V291.531Z" fill="white"/>
</mask>
<g mask="url(#mask8_4703_19936)">
<path d="M356.169 296.047C355.842 296.047 355.576 296.313 355.576 296.64C355.576 296.967 355.842 297.233 356.169 297.233C356.496 297.233 356.762 296.967 356.762 296.64C356.762 296.313 356.496 296.047 356.169 296.047Z" fill="#00EBD6"/>
</g>
<mask id="mask9_4703_19936" style="mask-type:luminance" maskUnits="userSpaceOnUse" x="345" y="291" width="11" height="11">
<path d="M345.238 291.531H355.362V301.656H345.238V291.531Z" fill="white"/>
</mask>
<g mask="url(#mask9_4703_19936)">
<path d="M352.186 296.047C351.859 296.047 351.593 296.313 351.593 296.64C351.593 296.967 351.859 297.233 352.186 297.233C352.513 297.233 352.78 296.967 352.78 296.64C352.78 296.313 352.513 296.047 352.186 296.047Z" fill="#00EBD6"/>
</g>
</g>
</g>
<path d="M351.57 291.876L352.205 293.359C352.291 293.559 352.434 293.73 352.616 293.85C352.798 293.97 353.011 294.034 353.229 294.034H355.103C355.316 294.034 355.524 293.973 355.703 293.858C355.882 293.744 356.024 293.58 356.113 293.387C356.353 292.868 356.594 292.348 356.834 291.828" stroke="#1F242B" stroke-width="0.375" stroke-linecap="round" stroke-linejoin="round"/>
<path d="M354.158 290.062L354.134 291.22" stroke="#1F242B" stroke-width="0.25" stroke-miterlimit="10"/>
<path d="M354.156 290.044C354.444 290.044 354.678 289.81 354.678 289.522C354.678 289.234 354.444 289 354.156 289C353.868 289 353.634 289.234 353.634 289.522C353.634 289.81 353.868 290.044 354.156 290.044Z" fill="#09C0B0"/>
</g>
<path d="M403.949 295.955C403.949 297.073 403.042 297.98 401.924 297.98C400.805 297.98 399.899 297.073 399.899 295.955C399.899 294.836 400.805 293.93 401.924 293.93C403.042 293.93 403.949 294.836 403.949 295.955Z" fill="#CCCCCC"/>
<path d="M394.5 295.955C394.5 297.073 393.593 297.98 392.475 297.98C391.357 297.98 390.45 297.073 390.45 295.955C390.45 294.836 391.357 293.93 392.475 293.93C393.593 293.93 394.5 294.836 394.5 295.955Z" fill="#CCCCCC"/>
<path d="M385.049 295.955C385.049 297.073 384.143 297.98 383.024 297.98C381.906 297.98 380.999 297.073 380.999 295.955C380.999 294.836 381.906 293.93 383.024 293.93C384.143 293.93 385.049 294.836 385.049 295.955Z" fill="#CCCCCC"/>
<path d="M432.976 142.053H361.426C358.816 142.053 356.701 139.938 356.701 137.328V125.178C356.701 122.569 358.816 120.453 361.426 120.453H432.976C435.586 120.453 437.701 122.569 437.701 125.178V137.328C437.701 139.938 435.586 142.053 432.976 142.053Z" fill="#A661FF"/>
<path d="M475.499 131.25C475.499 135.82 473.231 139.863 469.748 142.3C469.721 142.32 469.694 142.34 469.667 142.354C469.654 142.367 469.64 142.381 469.627 142.381C469.613 142.394 469.6 142.408 469.586 142.414C467.892 143.569 465.921 144.352 463.795 144.628C463.207 144.709 462.607 144.75 461.999 144.75C461.378 144.75 460.771 144.709 460.177 144.622C458.05 144.338 456.086 143.555 454.392 142.401C454.378 142.394 454.365 142.381 454.351 142.367C454.338 142.36 454.324 142.354 454.311 142.34C454.284 142.327 454.257 142.306 454.23 142.286C450.76 139.843 448.499 135.813 448.499 131.25C448.499 123.791 454.54 117.75 461.999 117.75C469.458 117.75 475.499 123.791 475.499 131.25Z" fill="#FFD95B"/>
<path d="M461.999 125.852C462.715 125.852 463.402 126.136 463.908 126.642C464.415 127.149 464.699 127.835 464.699 128.552C464.699 129.268 464.415 129.954 463.908 130.461C463.402 130.967 462.715 131.252 461.999 131.252C461.283 131.252 460.596 130.967 460.09 130.461C459.584 129.954 459.299 129.268 459.299 128.552C459.299 127.835 459.584 127.149 460.09 126.642C460.596 126.136 461.283 125.852 461.999 125.852ZM461.999 132.602C464.983 132.602 467.399 133.81 467.399 135.302V136.652H456.599V135.302C456.599 133.81 459.016 132.602 461.999 132.602Z" fill="#C77800"/>
<path d="M472.799 85.3531V96.1531C472.799 99.1334 470.379 101.553 467.399 101.553H383.698C380.718 101.553 378.298 99.1334 378.298 96.1531V85.3531C378.298 82.3729 380.718 79.9531 383.698 79.9531H467.399C470.379 79.9531 472.799 82.3729 472.799 85.3531Z" fill="#595959"/>
<path d="M367.499 90.75C367.499 94.773 365.744 98.3843 362.95 100.848C361.863 101.813 360.628 102.603 359.271 103.183C358.42 103.541 357.529 103.818 356.598 103.994C356.591 104 356.584 104 356.578 104C356.112 104.095 355.633 104.162 355.147 104.196C354.924 104.223 354.694 104.236 354.465 104.236C354.31 104.25 354.154 104.25 353.999 104.25C353.911 104.25 353.824 104.25 353.736 104.243C353.277 104.236 352.818 104.209 352.372 104.149H352.352C351.4 104.034 350.482 103.818 349.605 103.514C348.073 102.988 346.669 102.191 345.44 101.185C342.423 98.715 340.499 94.9552 340.499 90.75C340.499 83.2912 346.54 77.25 353.999 77.25C361.458 77.25 367.499 83.2912 367.499 90.75Z" fill="#00EBD6"/>
<mask id="mask10_4703_19936" style="mask-type:luminance" maskUnits="userSpaceOnUse" x="346" y="84" width="16" height="12">
<path d="M361.433 84H346.995V95.573H361.433V84Z" fill="white"/>
</mask>
<g mask="url(#mask10_4703_19936)">
<path d="M354.159 86.125C355.626 86.125 357.033 86.6307 358.071 87.5306C359.108 88.4306 359.691 89.6513 359.691 90.9241V93.9464C359.691 94.2922 359.532 94.6237 359.251 94.8681C358.969 95.1126 358.587 95.25 358.188 95.25H350.131C349.934 95.25 349.738 95.2162 349.556 95.1508C349.374 95.0852 349.208 94.9893 349.068 94.8683C348.929 94.7473 348.818 94.6035 348.743 94.4452C348.667 94.2871 348.628 94.1177 348.628 93.9464V90.9241C348.628 89.6513 349.211 88.4306 350.248 87.5306C351.286 86.6307 352.692 86.125 354.159 86.125Z" fill="white"/>
<path d="M354.159 86.125C355.626 86.125 357.033 86.6376 358.071 87.5498C359.108 88.4622 359.691 89.6996 359.691 90.9899V94.0535C359.691 94.4041 359.532 94.7401 359.251 94.9879C358.969 95.2357 358.587 95.375 358.188 95.375H350.131C349.934 95.375 349.738 95.3407 349.556 95.2744C349.374 95.208 349.208 95.1107 349.068 94.988C348.929 94.8654 348.818 94.7196 348.743 94.5592C348.667 94.399 348.628 94.2272 348.628 94.0535V90.9899C348.628 89.6996 349.211 88.4622 350.248 87.5498C351.286 86.6376 352.692 86.125 354.159 86.125Z" stroke="#1F242B" stroke-width="0.375" stroke-miterlimit="10"/>
<path d="M347.665 90.2734H348.633V92.6933H347.665C347.538 92.6933 347.417 92.6431 347.327 92.5533C347.237 92.4636 347.187 92.3418 347.187 92.215V90.7525C347.187 90.6895 347.199 90.6273 347.223 90.5691C347.247 90.5112 347.282 90.4581 347.327 90.4137C347.371 90.3693 347.424 90.334 347.482 90.3098C347.54 90.2858 347.602 90.2734 347.665 90.2734Z" fill="white"/>
<path d="M347.665 90.2734H348.633V92.6933H347.665C347.538 92.6933 347.417 92.6431 347.327 92.5533C347.237 92.4636 347.187 92.3418 347.187 92.215V90.7525C347.187 90.6895 347.199 90.6273 347.223 90.5691C347.247 90.5112 347.282 90.4581 347.327 90.4137C347.371 90.3693 347.424 90.334 347.482 90.3098C347.54 90.2858 347.602 90.2734 347.665 90.2734Z" stroke="#1F242B" stroke-width="0.375" stroke-miterlimit="10"/>
<path d="M360.668 92.6699H359.701V90.25H360.668C360.795 90.25 360.917 90.3003 361.007 90.3901C361.096 90.4797 361.147 90.6016 361.147 90.7283V92.1908C361.147 92.3178 361.096 92.4394 361.007 92.5293C360.917 92.6189 360.795 92.6693 360.668 92.6693V92.6699Z" fill="white"/>
<path d="M360.668 92.6699H359.701V90.25H360.668C360.795 90.25 360.917 90.3003 361.007 90.3901C361.096 90.4797 361.147 90.6016 361.147 90.7283V92.1908C361.147 92.3178 361.096 92.4394 361.007 92.5293C360.917 92.6189 360.795 92.6693 360.668 92.6693V92.6699Z" stroke="#1F242B" stroke-width="0.375" stroke-miterlimit="10"/>
<path d="M357.412 90.5625H350.982C350.491 90.5625 350.093 90.9602 350.093 91.4509V92.5678C350.093 93.0587 350.491 93.4564 350.982 93.4564H357.412C357.902 93.4564 358.3 93.0587 358.3 92.5678V91.4509C358.3 90.9602 357.902 90.5625 357.412 90.5625Z" fill="#425A58"/>
<mask id="mask11_4703_19936" style="mask-type:luminance" maskUnits="userSpaceOnUse" x="348" y="85" width="13" height="13">
<path d="M360.237 85.6641H348.372V97.5293H360.237V85.6641Z" fill="white"/>
</mask>
<g mask="url(#mask11_4703_19936)">
<mask id="mask12_4703_19936" style="mask-type:luminance" maskUnits="userSpaceOnUse" x="349" y="86" width="11" height="11">
<path d="M349.24 86.5312H359.364V96.6562H349.24V86.5312Z" fill="white"/>
</mask>
<g mask="url(#mask12_4703_19936)">
<g clip-path="url(#clip3_4703_19936)">
<path d="M354.216 91.7422C353.888 91.7422 353.622 92.0083 353.622 92.3354C353.622 92.6626 353.888 92.9287 354.216 92.9287C354.543 92.9287 354.809 92.6626 354.809 92.3354C354.809 92.0083 354.543 91.7422 354.216 91.7422Z" fill="#00EBD6"/>
</g>
<mask id="mask13_4703_19936" style="mask-type:luminance" maskUnits="userSpaceOnUse" x="349" y="86" width="11" height="11">
<path d="M349.23 86.5312H359.354V96.6562H349.23V86.5312Z" fill="white"/>
</mask>
<g mask="url(#mask13_4703_19936)">
<path d="M356.169 91.0469C355.842 91.0469 355.576 91.313 355.576 91.6401C355.576 91.9673 355.842 92.2334 356.169 92.2334C356.496 92.2334 356.762 91.9673 356.762 91.6401C356.762 91.313 356.496 91.0469 356.169 91.0469Z" fill="#00EBD6"/>
</g>
<mask id="mask14_4703_19936" style="mask-type:luminance" maskUnits="userSpaceOnUse" x="345" y="86" width="11" height="11">
<path d="M345.238 86.5312H355.362V96.6562H345.238V86.5312Z" fill="white"/>
</mask>
<g mask="url(#mask14_4703_19936)">
<path d="M352.186 91.0469C351.859 91.0469 351.593 91.313 351.593 91.6401C351.593 91.9673 351.859 92.2334 352.186 92.2334C352.513 92.2334 352.78 91.9673 352.78 91.6401C352.78 91.313 352.513 91.0469 352.186 91.0469Z" fill="#00EBD6"/>
</g>
</g>
</g>
<path d="M351.57 86.8756L352.205 88.3589C352.291 88.5591 352.434 88.7299 352.616 88.8499C352.798 88.9699 353.011 89.0339 353.229 89.0339H355.103C355.316 89.0337 355.524 88.9727 355.703 88.8582C355.882 88.7436 356.024 88.5803 356.113 88.3874C356.353 87.8678 356.594 87.3481 356.834 86.8281" stroke="#1F242B" stroke-width="0.375" stroke-linecap="round" stroke-linejoin="round"/>
<path d="M354.158 85.0625L354.134 86.22" stroke="#1F242B" stroke-width="0.25" stroke-miterlimit="10"/>
<path d="M354.156 85.0436C354.444 85.0436 354.678 84.81 354.678 84.5218C354.678 84.2336 354.444 84 354.156 84C353.868 84 353.634 84.2336 353.634 84.5218C353.634 84.81 353.868 85.0436 354.156 85.0436Z" fill="#09C0B0"/>
</g>
<path d="M432.976 252.374H361.426C358.816 252.374 356.701 249.963 356.701 246.988V233.137C356.701 230.162 358.816 227.75 361.426 227.75H432.976C435.586 227.75 437.701 230.162 437.701 233.137V246.988C437.701 249.963 435.586 252.374 432.976 252.374Z" fill="#A661FF"/>
<path d="M475.499 238.172C475.499 242.742 473.231 246.785 469.748 249.222C469.721 249.242 469.694 249.262 469.667 249.276C469.654 249.289 469.64 249.303 469.627 249.303C469.613 249.316 469.6 249.33 469.586 249.336C467.892 250.491 465.921 251.274 463.795 251.55C463.207 251.631 462.607 251.672 461.999 251.672C461.378 251.672 460.771 251.631 460.177 251.544C458.05 251.26 456.086 250.477 454.392 249.323C454.378 249.316 454.365 249.303 454.351 249.289C454.338 249.282 454.324 249.276 454.311 249.262C454.284 249.249 454.257 249.228 454.23 249.208C450.76 246.765 448.499 242.735 448.499 238.172C448.499 230.713 454.54 224.672 461.999 224.672C469.458 224.672 475.499 230.713 475.499 238.172Z" fill="#FFD95B"/>
<path d="M461.999 232.5C462.715 232.5 463.402 232.784 463.908 233.291C464.415 233.797 464.699 234.484 464.699 235.2C464.699 235.916 464.415 236.603 463.908 237.109C463.402 237.616 462.715 237.9 461.999 237.9C461.283 237.9 460.596 237.616 460.09 237.109C459.584 236.603 459.299 235.916 459.299 235.2C459.299 234.484 459.584 233.797 460.09 233.291C460.596 232.784 461.283 232.5 461.999 232.5ZM461.999 239.25C464.983 239.25 467.399 240.458 467.399 241.95V243.3H456.599V241.95C456.599 240.458 459.016 239.25 461.999 239.25Z" fill="#C77800"/>
<path d="M472.799 177.609V196.671C472.799 201.931 470.379 206.202 467.399 206.202H383.698C380.718 206.202 378.298 201.931 378.298 196.671V177.609C378.298 172.349 380.718 168.078 383.698 168.078H467.399C470.379 168.078 472.799 172.349 472.799 177.609Z" fill="#595959"/>
<path d="M367.499 178.5C367.499 182.523 365.744 186.134 362.95 188.598C361.863 189.563 360.628 190.353 359.271 190.933C358.42 191.291 357.529 191.568 356.598 191.744C356.591 191.75 356.584 191.75 356.578 191.75C356.112 191.845 355.633 191.912 355.147 191.946C354.924 191.973 354.694 191.986 354.465 191.986C354.31 192 354.154 192 353.999 192C353.911 192 353.824 192 353.736 191.993C353.277 191.986 352.818 191.959 352.372 191.899H352.352C351.4 191.784 350.482 191.568 349.605 191.264C348.073 190.738 346.669 189.941 345.44 188.935C342.423 186.465 340.499 182.705 340.499 178.5C340.499 171.041 346.54 165 353.999 165C361.458 165 367.499 171.041 367.499 178.5Z" fill="#00EBD6"/>
<mask id="mask15_4703_19936" style="mask-type:luminance" maskUnits="userSpaceOnUse" x="344" y="169" width="20" height="20">
<path d="M363.31 169.617H344.326V188.602H363.31V169.617Z" fill="white"/>
</mask>
<g mask="url(#mask15_4703_19936)">
<mask id="mask16_4703_19936" style="mask-type:luminance" maskUnits="userSpaceOnUse" x="345" y="171" width="17" height="17">
<path d="M345.718 171.008H361.918V187.208H345.718V171.008Z" fill="white"/>
</mask>
<g mask="url(#mask16_4703_19936)">
<path d="M357.79 183.173C358.189 183.173 358.46 183.173 358.46 183.173C359.204 183.173 359.807 182.57 359.807 181.826V176.262C359.807 175.517 359.204 174.914 358.46 174.914H351.864M350.219 174.914H349.028C348.284 174.914 347.68 175.517 347.68 176.262V181.549C347.68 182.446 348.408 183.173 349.305 183.173C349.325 183.173 349.345 183.174 349.365 183.175C349.802 183.194 350.194 183.452 350.406 183.835L351.04 184.978C351.112 185.107 351.278 185.145 351.399 185.062L353.229 183.796C353.387 183.686 353.539 183.568 353.691 183.451C353.925 183.272 354.213 183.173 354.51 183.173C354.51 183.173 355.13 183.173 355.878 183.173" stroke="#425A58" stroke-width="0.632812" stroke-linecap="round" stroke-linejoin="round"/>
<g clip-path="url(#clip4_4703_19936)">
<path d="M353.644 179.336C353.12 179.336 352.694 179.762 352.694 180.285C352.694 180.809 353.12 181.234 353.644 181.234C354.167 181.234 354.593 180.809 354.593 180.285C354.593 179.762 354.167 179.336 353.644 179.336Z" fill="#425A58"/>
</g>
<mask id="mask17_4703_19936" style="mask-type:luminance" maskUnits="userSpaceOnUse" x="345" y="171" width="17" height="17">
<path d="M345.715 171.008H361.915V187.208H345.715V171.008Z" fill="white"/>
</mask>
<g mask="url(#mask17_4703_19936)">
<path d="M356.839 178.234C356.316 178.234 355.89 178.66 355.89 179.184C355.89 179.707 356.316 180.133 356.839 180.133C357.362 180.133 357.788 179.707 357.788 179.184C357.788 178.66 357.362 178.234 356.839 178.234Z" fill="#425A58"/>
</g>
<mask id="mask18_4703_19936" style="mask-type:luminance" maskUnits="userSpaceOnUse" x="339" y="171" width="17" height="17">
<path d="M339.328 171.008H355.528V187.208H339.328V171.008Z" fill="white"/>
</mask>
<g mask="url(#mask18_4703_19936)">
<path d="M350.458 178.234C349.934 178.234 349.509 178.66 349.509 179.184C349.509 179.707 349.934 180.133 350.458 180.133C350.981 180.133 351.407 179.707 351.407 179.184C351.407 178.66 350.981 178.234 350.458 178.234Z" fill="#425A58"/>
</g>
<path d="M353.938 175.031H353.305V173.133H353.938V175.031Z" fill="#425A58"/>
<path d="M353.642 171.898C353.119 171.898 352.693 172.324 352.693 172.848C352.693 173.371 353.119 173.797 353.642 173.797C354.166 173.797 354.591 173.371 354.591 172.848C354.591 172.324 354.166 171.898 353.642 171.898Z" fill="#425A58"/>
</g>
</g>
<path d="M367.499 178.5C367.499 182.523 365.744 186.134 362.95 188.598C361.863 189.563 360.628 190.353 359.271 190.933C358.42 191.291 357.529 191.568 356.598 191.744C356.591 191.75 356.584 191.75 356.578 191.75C356.112 191.845 355.633 191.912 355.147 191.946C354.924 191.973 354.694 191.986 354.465 191.986C354.31 192 354.154 192 353.999 192C353.911 192 353.824 192 353.736 191.993C353.277 191.986 352.818 191.959 352.372 191.899H352.352C351.4 191.784 350.482 191.568 349.605 191.264C348.073 190.738 346.669 189.941 345.44 188.935C342.423 186.465 340.499 182.705 340.499 178.5C340.499 171.041 346.54 165 353.999 165C361.458 165 367.499 171.041 367.499 178.5Z" fill="#00EBD6"/>
<mask id="mask19_4703_19936" style="mask-type:luminance" maskUnits="userSpaceOnUse" x="346" y="172" width="16" height="12">
<path d="M361.433 172H346.995V183.573H361.433V172Z" fill="white"/>
</mask>
<g mask="url(#mask19_4703_19936)">
<path d="M354.159 174.125C355.626 174.125 357.033 174.631 358.071 175.531C359.108 176.431 359.691 177.651 359.691 178.924V181.946C359.691 182.292 359.532 182.624 359.251 182.868C358.969 183.113 358.587 183.25 358.188 183.25H350.131C349.934 183.25 349.738 183.216 349.556 183.151C349.374 183.085 349.208 182.989 349.068 182.868C348.929 182.747 348.818 182.603 348.743 182.445C348.667 182.287 348.628 182.118 348.628 181.946V178.924C348.628 177.651 349.211 176.431 350.248 175.531C351.286 174.631 352.692 174.125 354.159 174.125Z" fill="white"/>
<path d="M354.159 174.125C355.626 174.125 357.033 174.638 358.071 175.55C359.108 176.462 359.691 177.7 359.691 178.99V182.054C359.691 182.404 359.532 182.74 359.251 182.988C358.969 183.236 358.587 183.375 358.188 183.375H350.131C349.934 183.375 349.738 183.341 349.556 183.274C349.374 183.208 349.208 183.111 349.068 182.988C348.929 182.865 348.818 182.72 348.743 182.559C348.667 182.399 348.628 182.227 348.628 182.054V178.99C348.628 177.7 349.211 176.462 350.248 175.55C351.286 174.638 352.692 174.125 354.159 174.125Z" stroke="#1F242B" stroke-width="0.375" stroke-miterlimit="10"/>
<path d="M347.665 178.273H348.633V180.693H347.665C347.538 180.693 347.417 180.643 347.327 180.553C347.237 180.464 347.187 180.342 347.187 180.215V178.753C347.187 178.69 347.199 178.627 347.223 178.569C347.247 178.511 347.282 178.458 347.327 178.414C347.371 178.369 347.424 178.334 347.482 178.31C347.54 178.286 347.602 178.273 347.665 178.273Z" fill="white"/>
<path d="M347.665 178.273H348.633V180.693H347.665C347.538 180.693 347.417 180.643 347.327 180.553C347.237 180.464 347.187 180.342 347.187 180.215V178.753C347.187 178.69 347.199 178.627 347.223 178.569C347.247 178.511 347.282 178.458 347.327 178.414C347.371 178.369 347.424 178.334 347.482 178.31C347.54 178.286 347.602 178.273 347.665 178.273Z" stroke="#1F242B" stroke-width="0.375" stroke-miterlimit="10"/>
<path d="M360.668 180.67H359.701V178.25H360.668C360.795 178.25 360.917 178.3 361.007 178.39C361.096 178.48 361.147 178.602 361.147 178.728V180.191C361.147 180.318 361.096 180.439 361.007 180.529C360.917 180.619 360.795 180.669 360.668 180.669V180.67Z" fill="white"/>
<path d="M360.668 180.67H359.701V178.25H360.668C360.795 178.25 360.917 178.3 361.007 178.39C361.096 178.48 361.147 178.602 361.147 178.728V180.191C361.147 180.318 361.096 180.439 361.007 180.529C360.917 180.619 360.795 180.669 360.668 180.669V180.67Z" stroke="#1F242B" stroke-width="0.375" stroke-miterlimit="10"/>
<path d="M357.412 178.562H350.982C350.491 178.562 350.093 178.96 350.093 179.451V180.568C350.093 181.059 350.491 181.456 350.982 181.456H357.412C357.902 181.456 358.3 181.059 358.3 180.568V179.451C358.3 178.96 357.902 178.562 357.412 178.562Z" fill="#425A58"/>
<mask id="mask20_4703_19936" style="mask-type:luminance" maskUnits="userSpaceOnUse" x="348" y="173" width="13" height="13">
<path d="M360.237 173.664H348.372V185.529H360.237V173.664Z" fill="white"/>
</mask>
<g mask="url(#mask20_4703_19936)">
<mask id="mask21_4703_19936" style="mask-type:luminance" maskUnits="userSpaceOnUse" x="349" y="174" width="11" height="11">
<path d="M349.24 174.531H359.364V184.656H349.24V174.531Z" fill="white"/>
</mask>
<g mask="url(#mask21_4703_19936)">
<g clip-path="url(#clip5_4703_19936)">
<path d="M354.216 179.742C353.888 179.742 353.622 180.008 353.622 180.335C353.622 180.663 353.888 180.929 354.216 180.929C354.543 180.929 354.809 180.663 354.809 180.335C354.809 180.008 354.543 179.742 354.216 179.742Z" fill="#00EBD6"/>
</g>
<mask id="mask22_4703_19936" style="mask-type:luminance" maskUnits="userSpaceOnUse" x="349" y="174" width="11" height="11">
<path d="M349.23 174.531H359.354V184.656H349.23V174.531Z" fill="white"/>
</mask>
<g mask="url(#mask22_4703_19936)">
<path d="M356.169 179.047C355.842 179.047 355.576 179.313 355.576 179.64C355.576 179.967 355.842 180.233 356.169 180.233C356.496 180.233 356.762 179.967 356.762 179.64C356.762 179.313 356.496 179.047 356.169 179.047Z" fill="#00EBD6"/>
</g>
<mask id="mask23_4703_19936" style="mask-type:luminance" maskUnits="userSpaceOnUse" x="345" y="174" width="11" height="11">
<path d="M345.238 174.531H355.362V184.656H345.238V174.531Z" fill="white"/>
</mask>
<g mask="url(#mask23_4703_19936)">
<path d="M352.186 179.047C351.859 179.047 351.593 179.313 351.593 179.64C351.593 179.967 351.859 180.233 352.186 180.233C352.513 180.233 352.78 179.967 352.78 179.64C352.78 179.313 352.513 179.047 352.186 179.047Z" fill="#00EBD6"/>
</g>
</g>
</g>
<path d="M351.57 174.876L352.205 176.359C352.291 176.559 352.434 176.73 352.616 176.85C352.798 176.97 353.011 177.034 353.229 177.034H355.103C355.316 177.034 355.524 176.973 355.703 176.858C355.882 176.744 356.024 176.58 356.113 176.387C356.353 175.868 356.594 175.348 356.834 174.828" stroke="#1F242B" stroke-width="0.375" stroke-linecap="round" stroke-linejoin="round"/>
<path d="M354.158 173.062L354.134 174.22" stroke="#1F242B" stroke-width="0.25" stroke-miterlimit="10"/>
<path d="M354.156 173.044C354.444 173.044 354.678 172.81 354.678 172.522C354.678 172.234 354.444 172 354.156 172C353.868 172 353.634 172.234 353.634 172.522C353.634 172.81 353.868 173.044 354.156 173.044Z" fill="#09C0B0"/>
</g>
</g>
</g>
</g>
<path d="M322.423 115.754C313.92 116.201 302.24 145.129 302.206 150.629C302.172 156.129 272.335 210.445 265.767 221.405C259.199 232.364 248.122 244.796 244.547 256.774C240.973 268.752 242.29 298.261 243.265 302.267C244.241 306.273 251.129 324.316 261.629 324.381C272.129 324.446 299.286 299.114 306.867 286.161C314.447 273.207 325.343 209.274 326.871 204.783C328.399 200.292 329.921 196.802 332.942 193.32C335.964 189.839 344.215 149.389 342.777 139.38C341.339 129.371 330.926 115.306 322.423 115.754Z" fill="#FFBEA5"/>
<path d="M311.652 199.695L327.659 198.544L311.652 199.695Z" fill="#FCD8C9"/>
<path d="M319.665 116.991C319.665 116.991 314.64 120.96 309.831 130.431C305.023 139.901 301.944 152.632 301.944 152.632C301.944 152.632 312.74 145.199 315.78 138.718C318.82 132.236 319.665 116.991 319.665 116.991Z" fill="#FCD8C9"/>
</g>
<defs>
<clipPath id="clip0_4703_19936">
<rect width="700" height="569" fill="white"/>
</clipPath>
<clipPath id="clip1_4703_19936">
<rect width="189" height="391.5" fill="white" transform="translate(313.499 36.75)"/>
</clipPath>
<clipPath id="clip2_4703_19936">
<rect width="1.18645" height="0.613037" fill="white" transform="translate(353.597 297.32)"/>
</clipPath>
<clipPath id="clip3_4703_19936">
<rect width="1.18645" height="0.613037" fill="white" transform="translate(353.597 92.3203)"/>
</clipPath>
<clipPath id="clip4_4703_19936">
<rect width="1.89844" height="0.980859" fill="white" transform="translate(352.694 180.266)"/>
</clipPath>
<clipPath id="clip5_4703_19936">
<rect width="1.18645" height="0.613037" fill="white" transform="translate(353.597 180.32)"/>
</clipPath>
</defs>
</svg>
