<svg width="459" height="420" viewBox="0 0 459 420" fill="none" xmlns="http://www.w3.org/2000/svg">
<path d="M387.864 344.251L356.544 373.349L344.291 360.16L375.614 331.067L387.864 344.251Z" fill="#C2FFFA"/>
<path d="M387.864 344.251L356.544 373.349L344.291 360.16L375.614 331.067L387.864 344.251Z" stroke="#1E1E1F" stroke-width="4.50001" stroke-miterlimit="10"/>
<path d="M328.294 362.757L352.788 389.124L358.13 379.449C359.063 377.748 358.8 375.64 357.476 374.22L343.51 359.184C342.194 357.765 340.116 357.347 338.352 358.146L328.294 362.757Z" fill="#DDE2EB"/>
<path d="M328.294 362.757L352.788 389.124L358.13 379.449C359.063 377.748 358.8 375.64 357.476 374.22L343.51 359.184C342.194 357.765 340.116 357.347 338.352 358.146L328.294 362.757Z" stroke="#1E1E1F" stroke-width="4.50001" stroke-miterlimit="10"/>
<path d="M346.149 395.291L321.651 368.923C319.955 367.104 320.055 364.259 321.874 362.563C321.891 362.546 321.909 362.532 321.926 362.517C323.744 360.825 326.589 360.928 328.283 362.743L352.789 389.126C354.482 390.944 354.378 393.789 352.562 395.483C350.768 397.202 347.922 397.14 346.2 395.345C346.183 395.326 346.166 395.309 346.149 395.291Z" fill="#C2FFFA"/>
<path d="M346.149 395.291L321.651 368.923C319.955 367.104 320.055 364.259 321.874 362.563C321.891 362.546 321.909 362.532 321.926 362.517C323.744 360.825 326.589 360.928 328.283 362.743L352.789 389.126C354.482 390.944 354.378 393.789 352.562 395.483C350.768 397.202 347.922 397.14 346.2 395.345C346.183 395.326 346.166 395.309 346.149 395.291Z" stroke="#1E1E1F" stroke-width="4.50001" stroke-miterlimit="10"/>
<path d="M344.068 394.968L338.076 408.322C337.823 408.881 337.355 409.315 336.776 409.52L322.95 414.47C322.106 414.769 321.159 414.539 320.549 413.882L317.461 410.553C316.614 409.641 316.664 408.22 317.572 407.373C317.738 407.219 317.924 407.09 318.123 406.994L329.219 401.351C329.758 401.076 330.164 400.596 330.341 400.018L335.479 383.603L343.639 392.522C344.258 393.177 344.427 394.141 344.068 394.968ZM321.821 371.026L307.998 375.975C307.419 376.18 306.948 376.612 306.695 377.174L300.702 390.529C300.363 391.317 300.502 392.231 301.062 392.884L304.208 396.336C305.053 397.245 306.479 397.298 307.391 396.453C307.545 396.311 307.678 396.149 307.787 395.969L314.233 385.302C314.546 384.782 315.055 384.411 315.644 384.275L332.386 380.352L324.209 371.544C323.584 370.918 322.648 370.713 321.821 371.026Z" fill="#DDE2EB"/>
<path d="M344.068 394.968L338.076 408.322C337.823 408.881 337.355 409.315 336.776 409.52L322.95 414.47C322.106 414.769 321.159 414.539 320.549 413.882L317.461 410.553C316.614 409.641 316.664 408.22 317.572 407.373C317.738 407.219 317.924 407.09 318.123 406.994L329.219 401.351C329.758 401.076 330.164 400.596 330.341 400.018L335.479 383.603L343.639 392.522C344.258 393.177 344.427 394.141 344.068 394.968ZM321.821 371.026L307.998 375.975C307.419 376.18 306.948 376.612 306.695 377.174L300.702 390.529C300.363 391.317 300.502 392.231 301.062 392.884L304.208 396.336C305.053 397.245 306.479 397.298 307.391 396.453C307.545 396.311 307.678 396.149 307.787 395.969L314.233 385.302C314.546 384.782 315.055 384.411 315.644 384.275L332.386 380.352L324.209 371.544C323.584 370.918 322.648 370.713 321.821 371.026Z" stroke="#1E1E1F" stroke-width="4.50001" stroke-miterlimit="10"/>
<path d="M411.069 313.529C407.251 301.703 394.57 295.212 382.745 299.03C370.919 302.848 364.428 315.529 368.246 327.355C372.064 339.181 384.745 345.672 396.571 341.854C408.396 338.036 414.887 325.355 411.069 313.529Z" fill="#E4FFFD"/>
<path d="M399.909 300.418C388.849 294.759 375.295 299.135 369.633 310.193L409.684 330.695C415.344 319.635 410.968 306.081 399.909 300.418Z" fill="#F5F8FC"/>
<path d="M398.22 317.674C396.693 312.944 391.62 310.347 386.89 311.875C382.161 313.402 379.564 318.475 381.091 323.204C382.618 327.934 387.691 330.531 392.421 329.004C397.151 327.477 399.747 322.404 398.22 317.674Z" fill="#DDE2EB"/>
<path d="M398.22 317.674C396.693 312.944 391.62 310.347 386.89 311.875C382.161 313.402 379.564 318.475 381.091 323.204C382.618 327.934 387.691 330.531 392.421 329.004C397.151 327.477 399.747 322.404 398.22 317.674Z" stroke="#1E1E1F" stroke-width="4.50001" stroke-miterlimit="10"/>
<path d="M400.361 316.987C398.452 311.075 392.11 307.829 386.198 309.738C380.287 311.646 377.04 317.988 378.949 323.9C380.858 329.812 387.2 333.058 393.111 331.149C399.023 329.241 402.269 322.899 400.361 316.987ZM383.231 322.517C382.086 318.97 384.033 315.166 387.581 314.02C391.129 312.875 394.933 314.822 396.078 318.37C397.224 321.918 395.277 325.722 391.729 326.867C388.181 328.013 384.377 326.065 383.231 322.517Z" fill="#1E1E1F"/>
<path d="M411.069 313.529C407.251 301.703 394.57 295.212 382.745 299.03C370.919 302.848 364.428 315.529 368.246 327.355C372.064 339.181 384.745 345.672 396.571 341.854C408.396 338.036 414.887 325.355 411.069 313.529Z" stroke="#1E1E1F" stroke-width="4.50001" stroke-miterlimit="10"/>
<path d="M32.4261 316.669L72.3147 332.05L65.8385 348.846L25.9526 333.462L32.4261 316.669Z" fill="#C2FFFA"/>
<path d="M32.4261 316.669L72.3147 332.05L65.8385 348.846L25.9526 333.462L32.4261 316.669Z" stroke="#1E1E1F" stroke-width="4.50001" stroke-miterlimit="10"/>
<path d="M75.1965 362.077L88.1444 328.498L77.1063 327.942C75.1689 327.85 73.3896 329.012 72.6947 330.824L65.3101 349.971C64.6125 351.776 65.1481 353.826 66.6398 355.061L75.1965 362.077Z" fill="#DDE2EB"/>
<path d="M75.1965 362.077L88.1444 328.498L77.1063 327.942C75.1689 327.85 73.3896 329.012 72.6947 330.824L65.3101 349.971C64.6125 351.776 65.1481 353.826 66.6398 355.061L75.1965 362.077Z" stroke="#1E1E1F" stroke-width="4.50001" stroke-miterlimit="10"/>
<path d="M96.5953 331.761L83.6479 365.343C82.7575 367.665 80.1563 368.824 77.8345 367.933C77.8124 367.925 77.7915 367.916 77.7707 367.906C75.4521 367.015 74.2968 364.413 75.1846 362.095L88.1426 328.499C89.0335 326.18 91.6352 325.025 93.9552 325.914C96.2864 326.772 97.4792 329.357 96.6214 331.691C96.6123 331.715 96.6045 331.737 96.5953 331.761Z" fill="#C2FFFA"/>
<path d="M96.5953 331.761L83.6479 365.343C82.7575 367.665 80.1563 368.824 77.8345 367.933C77.8124 367.925 77.7915 367.916 77.7707 367.906C75.4521 367.015 74.2968 364.413 75.1846 362.095L88.1426 328.499C89.0335 326.18 91.6352 325.025 93.9552 325.914C96.2864 326.772 97.4792 329.357 96.6214 331.691C96.6123 331.715 96.6045 331.737 96.5953 331.761Z" stroke="#1E1E1F" stroke-width="4.50001" stroke-miterlimit="10"/>
<path d="M95.9131 335.648L107.562 338.194C108.099 338.166 108.625 338.357 109.017 338.725L118.084 348.423C118.657 348.96 118.857 349.788 118.591 350.528L117.241 354.272C116.872 355.298 115.746 355.831 114.721 355.464C114.534 355.397 114.359 355.304 114.205 355.187L105.698 347.896C105.267 347.586 104.729 347.462 104.208 347.556L90.5212 346.908L94.1816 336.966C94.4425 336.22 95.1251 335.701 95.9131 335.648ZM86.2248 362.602L97.0101 367.093C97.4024 367.462 97.9287 367.654 98.4674 367.625L111.774 365.333C112.524 365.28 113.18 364.804 113.464 364.106L114.884 360.267C115.252 359.242 114.721 358.112 113.696 357.741C113.524 357.679 113.344 357.641 113.16 357.628L101.763 358.486C101.232 358.451 100.737 358.203 100.393 357.799L89.2348 350.624L85.668 360.534C85.4313 361.273 85.6484 362.084 86.2248 362.602Z" fill="#DDE2EB"/>
<path d="M95.9131 335.648L107.562 338.194C108.099 338.166 108.625 338.357 109.017 338.725L118.084 348.423C118.657 348.96 118.857 349.788 118.591 350.528L117.241 354.272C116.872 355.298 115.746 355.831 114.721 355.464C114.534 355.397 114.359 355.304 114.205 355.187L105.698 347.896C105.267 347.586 104.729 347.462 104.208 347.556L90.5212 346.908L94.1816 336.966C94.4425 336.22 95.1251 335.701 95.9131 335.648ZM86.2248 362.602L97.0101 367.093C97.4024 367.462 97.9287 367.654 98.4674 367.625L111.774 365.333C112.524 365.28 113.18 364.804 113.464 364.106L114.884 360.267C115.252 359.242 114.721 358.112 113.696 357.741C113.524 357.679 113.344 357.641 113.16 357.628L101.763 358.486C101.232 358.451 100.737 358.203 100.393 357.799L89.2348 350.624L85.668 360.534C85.4313 361.273 85.6484 362.084 86.2248 362.602Z" stroke="#1E1E1F" stroke-width="3.94378" stroke-miterlimit="10"/>
<path d="M47.6114 308.295C45.9048 295.986 34.5437 287.391 22.2346 289.098C9.92558 290.804 1.33109 302.165 3.03763 314.474C4.74417 326.783 16.1054 335.378 28.4144 333.671C40.7234 331.965 49.3179 320.604 47.6114 308.295Z" fill="#E4FFFD"/>
<path d="M38.8969 293.446C28.9876 285.952 14.88 287.908 7.38324 297.815L43.266 324.96C50.7602 315.05 48.8043 300.943 38.8969 293.446Z" fill="#F5F8FC"/>
<path d="M34.2379 310.149C33.5554 305.226 29.0104 301.788 24.0872 302.47C19.164 303.153 15.7259 307.698 16.4084 312.621C17.091 317.544 21.6359 320.982 26.5591 320.3C31.4823 319.617 34.9205 315.072 34.2379 310.149Z" fill="#DDE2EB"/>
<path d="M34.2379 310.149C33.5554 305.226 29.0104 301.788 24.0872 302.47C19.164 303.153 15.7259 307.698 16.4084 312.621C17.091 317.544 21.6359 320.982 26.5591 320.3C31.4823 319.617 34.9205 315.072 34.2379 310.149Z" stroke="#1E1E1F" stroke-width="4.50001" stroke-miterlimit="10"/>
<path d="M36.4668 309.839C35.6137 303.685 29.9318 299.387 23.7784 300.24C17.625 301.093 13.3268 306.775 14.1799 312.929C15.0331 319.082 20.7149 323.38 26.8683 322.527C33.0217 321.674 37.3199 315.992 36.4668 309.839ZM18.6373 312.311C18.1253 308.618 20.7035 305.21 24.3964 304.698C28.0894 304.186 31.4975 306.764 32.0094 310.457C32.5214 314.15 29.9433 317.558 26.2503 318.07C22.5574 318.582 19.1493 316.004 18.6373 312.311Z" fill="#1E1E1F"/>
<path d="M47.6114 308.295C45.9048 295.986 34.5437 287.391 22.2346 289.098C9.92558 290.804 1.33109 302.165 3.03763 314.474C4.74418 326.783 16.1053 335.378 28.4144 333.671C40.7234 331.965 49.3179 320.604 47.6114 308.295Z" stroke="#1E1E1F" stroke-width="4.50001" stroke-miterlimit="10"/>
<g clip-path="url(#clip0_4703_20392)">
<mask id="mask0_4703_20392" style="mask-type:luminance" maskUnits="userSpaceOnUse" x="36" y="-15" width="347" height="324">
<path d="M382.852 -15H36.3516V309H382.852V-15Z" fill="white"/>
</mask>
<g mask="url(#mask0_4703_20392)">
<path d="M208.102 51C243.306 51 277.075 63.1359 301.967 84.7337C326.86 106.336 340.852 135.631 340.852 166.18V238.714C340.852 247.012 337.05 254.968 330.288 260.835C323.526 266.702 314.357 270 304.793 270H111.42C106.682 270 101.994 269.188 97.6168 267.619C93.2438 266.046 89.2668 263.743 85.9151 260.839C82.5679 257.934 79.909 254.484 78.1004 250.686C76.2873 246.891 75.3516 242.824 75.3516 238.714V166.18C75.3516 135.631 89.3387 106.336 114.236 84.7337C139.128 63.1359 172.893 51 208.102 51Z" fill="white"/>
<path d="M208.102 51C243.306 51 277.075 63.3021 301.967 85.1959C326.86 107.094 340.852 136.79 340.852 167.757V241.285C340.852 249.698 337.05 257.762 330.288 263.709C323.526 269.656 314.357 273 304.793 273H111.42C106.682 273 101.994 272.177 97.6168 270.586C93.2438 268.992 89.2668 266.657 85.9151 263.713C82.5679 260.769 79.909 257.271 78.1004 253.421C76.2873 249.575 75.3516 245.452 75.3516 241.285V167.757C75.3516 136.79 89.3387 107.094 114.236 85.1959C139.128 63.3021 172.893 51 208.102 51Z" stroke="#1F242B" stroke-width="9" stroke-miterlimit="10"/>
<path d="M52.3311 150.539H75.5646V208.616H52.3311C49.2891 208.616 46.3686 207.41 44.2131 205.255C42.0621 203.104 40.8516 200.179 40.8516 197.137V162.037C40.8516 160.525 41.1486 159.031 41.7246 157.636C42.3006 156.245 43.1421 154.972 44.2086 153.905C45.2751 152.839 46.5396 151.993 47.9346 151.412C49.3296 150.836 50.8236 150.539 52.3311 150.539Z" fill="white"/>
<path d="M52.3311 150.539H75.5646V208.616H52.3311C49.2891 208.616 46.3686 207.41 44.2131 205.255C42.0621 203.104 40.8516 200.179 40.8516 197.137V162.037C40.8516 160.525 41.1486 159.031 41.7246 157.636C42.3006 156.245 43.1421 154.972 44.2086 153.905C45.2751 152.839 46.5396 151.993 47.9346 151.412C49.3296 150.836 50.8236 150.539 52.3311 150.539Z" stroke="#1F242B" stroke-width="9" stroke-miterlimit="10"/>
<path d="M364.364 208.038H341.135V149.961H364.364C367.41 149.961 370.331 151.167 372.482 153.322C374.633 155.473 375.848 158.398 375.848 161.44V196.54C375.848 199.587 374.633 202.507 372.482 204.663C370.331 206.814 367.41 208.024 364.364 208.024V208.038Z" fill="white"/>
<path d="M364.364 208.038H341.135V149.961H364.364C367.41 149.961 370.331 151.167 372.482 153.322C374.633 155.473 375.848 158.398 375.848 161.44V196.54C375.848 199.587 374.633 202.507 372.482 204.663C370.331 206.814 367.41 208.024 364.364 208.024V208.038Z" stroke="#1F242B" stroke-width="9" stroke-miterlimit="10"/>
<path d="M286.21 157.5H131.892C120.115 157.5 110.566 167.044 110.566 178.821V205.627C110.566 217.409 120.115 226.953 131.892 226.953H286.21C297.982 226.953 307.531 217.409 307.531 205.627V178.821C307.531 167.044 297.982 157.5 286.21 157.5Z" fill="#425A58"/>
<mask id="mask1_4703_20392" style="mask-type:luminance" maskUnits="userSpaceOnUse" x="69" y="39" width="286" height="286">
<path d="M354.194 39.9531H69.4453V324.719H354.194V39.9531Z" fill="white"/>
</mask>
<g mask="url(#mask1_4703_20392)">
<mask id="mask2_4703_20392" style="mask-type:luminance" maskUnits="userSpaceOnUse" x="90" y="60" width="244" height="244">
<path d="M90.3418 60.8203H333.327V303.82H90.3418V60.8203Z" fill="white"/>
</mask>
<g mask="url(#mask2_4703_20392)">
<g clip-path="url(#clip1_4703_20392)">
<path d="M209.226 185.805C201.375 185.805 194.988 192.192 194.988 200.043C194.988 207.894 201.375 214.281 209.226 214.281C217.076 214.281 223.463 207.894 223.463 200.043C223.463 192.192 217.076 185.805 209.226 185.805Z" fill="#00EBD6"/>
</g>
<mask id="mask3_4703_20392" style="mask-type:luminance" maskUnits="userSpaceOnUse" x="90" y="60" width="244" height="244">
<path d="M90.2734 60.8125H333.259V303.812H90.2734V60.8125Z" fill="white"/>
</mask>
<g mask="url(#mask3_4703_20392)">
<path d="M257.148 169.18C249.297 169.18 242.91 175.567 242.91 183.418C242.91 191.269 249.297 197.656 257.148 197.656C264.998 197.656 271.385 191.269 271.385 183.418C271.385 175.567 264.998 169.18 257.148 169.18Z" fill="#00EBD6"/>
</g>
<mask id="mask4_4703_20392" style="mask-type:luminance" maskUnits="userSpaceOnUse" x="-6" y="60" width="244" height="244">
<path d="M-5.52734 60.8125H237.458V303.812H-5.52734V60.8125Z" fill="white"/>
</mask>
<g mask="url(#mask4_4703_20392)">
<path d="M161.366 169.18C153.516 169.18 147.129 175.567 147.129 183.418C147.129 191.269 153.516 197.656 161.366 197.656C169.217 197.656 175.604 191.269 175.604 183.418C175.604 175.567 169.217 169.18 161.366 169.18Z" fill="#00EBD6"/>
</g>
</g>
</g>
<path d="M145.863 68.9666L161.118 104.566C163.179 109.372 166.608 113.472 170.978 116.352C175.343 119.232 180.459 120.766 185.693 120.766H230.666C235.764 120.762 240.755 119.299 245.052 116.55C249.35 113.8 252.765 109.881 254.907 105.25C260.672 92.7806 266.441 80.3066 272.214 67.8281" stroke="#1F242B" stroke-width="9" stroke-linecap="round" stroke-linejoin="round"/>
<path d="M207.905 25.5L207.338 53.28" stroke="#1F242B" stroke-width="6" stroke-miterlimit="10"/>
<path d="M219.399 13.5235C219.399 19.8877 214.239 25.047 207.875 25.047C201.511 25.047 196.352 19.8877 196.352 13.5235C196.352 7.15929 201.511 2 207.875 2C214.239 2 219.399 7.15929 219.399 13.5235Z" fill="#00EBD6" stroke="#282828" stroke-width="2"/>
</g>
</g>
<g clip-path="url(#clip2_4703_20392)">
<rect x="127.352" y="282" width="164" height="94" rx="17" fill="#F5F8FC" stroke="#1E1E1F" stroke-width="6"/>
<path d="M146.352 286.138L161.607 321.738C163.668 326.544 167.097 330.644 171.466 333.523C175.831 336.403 180.948 337.938 186.181 337.938H231.154C236.253 337.934 241.243 336.471 245.541 333.721C249.838 330.972 253.254 327.053 255.396 322.422C261.16 309.953 266.929 297.479 272.703 285" stroke="#1F242B" stroke-width="9" stroke-linecap="round" stroke-linejoin="round"/>
</g>
<defs>
<clipPath id="clip0_4703_20392">
<rect width="346.5" height="279" fill="white" transform="translate(36.3516)"/>
</clipPath>
<clipPath id="clip1_4703_20392">
<rect width="28.4748" height="14.7129" fill="white" transform="translate(194.971 199.75)"/>
</clipPath>
<clipPath id="clip2_4703_20392">
<rect width="170" height="34" fill="white" transform="translate(124.352 279)"/>
</clipPath>
</defs>
</svg>
