<svg width="322" height="229" viewBox="0 0 322 229" fill="none" xmlns="http://www.w3.org/2000/svg">
<g clip-path="url(#clip0_2959_11153)">
<circle cx="160.8" cy="160.955" r="88" stroke="#707070" stroke-width="3.2"/>
</g>
<circle cx="160.8" cy="160.956" r="67.2" fill="#595959"/>
<g filter="url(#filter0_d_2959_11153)">
<circle cx="160.8" cy="160.956" r="51.2" fill="#707070"/>
<circle cx="160.8" cy="160.956" r="51.6" stroke="#595959" stroke-width="0.8"/>
</g>
<path d="M186.4 174.179V148.048C186.399 147.713 186.319 147.382 186.166 147.083C185.95 146.618 185.577 146.245 185.113 146.029L161.707 135.554C161.422 135.424 161.113 135.357 160.8 135.357C160.487 135.357 160.178 135.424 159.893 135.554L136.487 146.029C136.111 146.219 135.793 146.506 135.566 146.862C135.339 147.217 135.213 147.627 135.2 148.048V173.857C135.222 174.276 135.352 174.683 135.578 175.037C135.803 175.39 136.117 175.68 136.487 175.876L159.893 186.352C160.176 186.487 160.486 186.557 160.8 186.557C161.114 186.557 161.424 186.487 161.707 186.352L185.113 175.876C185.451 175.722 185.745 175.486 185.97 175.19C186.194 174.893 186.342 174.546 186.4 174.179ZM139.589 151.414L158.606 159.958V180.968L139.589 172.453V151.414ZM162.994 159.958L182.011 151.414V172.453L162.994 180.968V159.958ZM160.858 139.943L178.91 148.048L160.858 156.125L142.807 148.048L160.858 139.943Z" fill="#FFF177"/>
<rect x="46.4" y="159.357" width="22.4" height="4" fill="#707070"/>
<circle cx="72.8" cy="160.957" r="6.4" fill="#707070"/>
<g clip-path="url(#clip1_2959_11153)">
<circle cx="25.6" cy="160.959" r="25.6" fill="#707070"/>
<g clip-path="url(#clip2_2959_11153)">
<path d="M35.8 141.76H15.4C10.4295 141.76 6.40002 145.789 6.40002 150.76V171.16C6.40002 176.13 10.4295 180.16 15.4 180.16H35.8C40.7706 180.16 44.8 176.13 44.8 171.16V150.76C44.8 145.789 40.7706 141.76 35.8 141.76Z" fill="url(#paint0_radial_2959_11153)"/>
<path d="M35.8 141.76H15.4C10.4295 141.76 6.40002 145.789 6.40002 150.76V171.16C6.40002 176.13 10.4295 180.16 15.4 180.16H35.8C40.7706 180.16 44.8 176.13 44.8 171.16V150.76C44.8 145.789 40.7706 141.76 35.8 141.76Z" fill="url(#paint1_radial_2959_11153)"/>
<path d="M25.601 148.16C22.1248 148.16 21.6885 148.175 20.3232 148.237C18.9606 148.3 18.0304 148.516 17.2166 148.832C16.3746 149.159 15.6605 149.596 14.9491 150.308C14.237 151.02 13.7997 151.734 13.4717 152.575C13.1543 153.389 12.9384 154.32 12.877 155.682C12.816 157.047 12.8 157.484 12.8 160.96C12.8 164.436 12.8153 164.871 12.8773 166.237C12.94 167.599 13.1557 168.529 13.472 169.343C13.7991 170.185 14.2365 170.899 14.9482 171.611C15.6595 172.323 16.3736 172.761 17.2149 173.088C18.0294 173.405 18.9597 173.62 20.3221 173.683C21.6875 173.745 22.1234 173.76 25.5995 173.76C29.076 173.76 29.511 173.745 30.8762 173.683C32.2389 173.62 33.1701 173.405 33.9845 173.088C34.8261 172.761 35.5392 172.323 36.2504 171.611C36.9624 170.899 37.3997 170.185 37.7277 169.344C38.0424 168.529 38.2584 167.599 38.3224 166.237C38.3837 164.872 38.3997 164.436 38.3997 160.96C38.3997 157.484 38.3837 157.048 38.3224 155.682C38.2584 154.32 38.0424 153.39 37.7277 152.576C37.3997 151.734 36.9624 151.02 36.2504 150.308C35.5384 149.596 34.8264 149.159 33.9838 148.832C33.1678 148.516 32.2371 148.3 30.8744 148.237C29.5091 148.175 29.0744 148.16 25.597 148.16H25.601ZM24.4527 150.467C24.7936 150.466 25.1739 150.467 25.601 150.467C29.0187 150.467 29.4237 150.479 30.7733 150.54C32.0213 150.598 32.6987 150.806 33.1499 150.981C33.7472 151.213 34.1731 151.491 34.6208 151.939C35.0688 152.387 35.3461 152.813 35.5786 153.411C35.7539 153.861 35.9626 154.539 36.0195 155.787C36.0808 157.136 36.0941 157.541 36.0941 160.957C36.0941 164.373 36.0808 164.779 36.0195 166.128C35.9624 167.376 35.7539 168.053 35.5786 168.504C35.3467 169.101 35.0688 169.527 34.6208 169.974C34.1728 170.422 33.7475 170.7 33.1499 170.932C32.6992 171.108 32.0213 171.316 30.7733 171.373C29.424 171.434 29.0187 171.447 25.601 171.447C22.1832 171.447 21.7781 171.434 20.4288 171.373C19.1809 171.315 18.5035 171.107 18.0519 170.931C17.4547 170.699 17.0279 170.422 16.5799 169.974C16.1319 169.526 15.8547 169.1 15.6221 168.503C15.4469 168.052 15.2381 167.375 15.1813 166.127C15.12 164.777 15.1077 164.372 15.1077 160.954C15.1077 157.536 15.12 157.133 15.1813 155.783C15.2384 154.535 15.4469 153.858 15.6221 153.407C15.8542 152.809 16.1319 152.383 16.58 151.935C17.028 151.487 17.4547 151.209 18.052 150.977C18.5032 150.801 19.1809 150.593 20.4288 150.536C21.6096 150.482 22.0672 150.466 24.4527 150.464V150.467ZM32.4336 152.592C31.5856 152.592 30.8976 153.279 30.8976 154.128C30.8976 154.976 31.5856 155.664 32.4336 155.664C33.2816 155.664 33.9696 154.976 33.9696 154.128C33.9696 153.28 33.2816 152.592 32.4336 152.592V152.592ZM25.601 154.387C21.971 154.387 19.0278 157.33 19.0278 160.96C19.0278 164.59 21.971 167.532 25.601 167.532C29.2312 167.532 32.1734 164.59 32.1734 160.96C32.1734 157.33 29.2309 154.387 25.6008 154.387H25.601ZM25.601 156.693C27.9573 156.693 29.8677 158.604 29.8677 160.96C29.8677 163.316 27.9573 165.227 25.601 165.227C23.2446 165.227 21.3344 163.316 21.3344 160.96C21.3344 158.604 23.2446 156.693 25.601 156.693Z" fill="white"/>
</g>
</g>
<rect x="75.2424" y="85.1367" width="22.4" height="4" transform="rotate(45 75.2424 85.1367)" fill="#707070"/>
<circle cx="92.7786" cy="104.936" r="6.4" transform="rotate(45 92.7786 104.936)" fill="#707070"/>
<g clip-path="url(#clip3_2959_11153)">
<circle cx="59.4033" cy="71.5593" r="25.6" transform="rotate(45 59.4033 71.5593)" fill="#707070"/>
<g clip-path="url(#clip4_2959_11153)">
<path d="M59.2397 52.582C54.1487 52.582 49.2617 54.6061 45.6647 58.2055C42.064 61.8064 40.0407 66.6898 40.0397 71.782C40.0397 76.8721 42.0647 81.7591 45.6647 85.3585C49.2617 88.9579 54.1487 90.982 59.2397 90.982C64.3307 90.982 69.2177 88.9579 72.8147 85.3585C76.4147 81.7591 78.4397 76.8721 78.4397 71.782C78.4397 66.6919 76.4147 61.8049 72.8147 58.2055C69.2177 54.6061 64.3307 52.582 59.2397 52.582Z" fill="url(#paint2_linear_2959_11153)"/>
<path d="M48.7307 71.5797C54.3287 69.1413 58.0607 67.5336 59.9267 66.7569C65.2607 64.539 66.3677 64.1538 67.0907 64.1407C67.2497 64.1382 67.6037 64.1775 67.8347 64.3642C68.0267 64.5217 68.0807 64.7347 68.1077 64.8843C68.1317 65.0337 68.1647 65.3742 68.1377 65.64C67.8497 68.676 66.5987 76.0434 65.9627 79.4439C65.6957 80.8827 65.1647 81.3651 64.6517 81.4122C63.5357 81.5148 62.6897 80.6754 61.6097 79.9677C59.9207 78.8598 58.9667 78.1704 57.3257 77.0895C55.4297 75.8403 56.6597 75.1536 57.7397 74.0316C58.0217 73.7379 62.9357 69.2694 63.0287 68.8641C63.0407 68.8134 63.0527 68.6244 62.9387 68.5248C62.8277 68.4249 62.6627 68.4591 62.5427 68.4861C62.3717 68.5245 59.6747 70.3089 54.4427 73.839C53.6777 74.3652 52.9847 74.6217 52.3607 74.6082C51.6767 74.5935 50.3567 74.2206 49.3757 73.902C48.1757 73.5111 47.2187 73.3044 47.3027 72.6405C47.3447 72.2949 47.8217 71.9412 48.7307 71.5797V71.5797Z" fill="white"/>
</g>
</g>
<rect x="248.823" y="87.4004" width="22.4" height="4" transform="rotate(135 248.823 87.4004)" fill="#707070"/>
<circle cx="229.024" cy="104.936" r="6.4" transform="rotate(135 229.024 104.936)" fill="#707070"/>
<g clip-path="url(#clip5_2959_11153)">
<circle cx="262.399" cy="71.5625" r="25.6" transform="rotate(135 262.399 71.5625)" fill="#707070"/>
<g clip-path="url(#clip6_2959_11153)">
<path d="M243.852 71.6183C243.851 74.8553 244.7 78.0161 246.316 80.802L243.697 90.3207L253.482 87.7665C256.188 89.2332 259.22 90.0018 262.302 90.002H262.31C272.482 90.002 280.763 81.7615 280.767 71.6328C280.769 66.7247 278.851 62.1095 275.366 58.6373C271.881 55.1653 267.247 53.2522 262.309 53.25C252.136 53.25 243.856 61.4901 243.852 71.6183" fill="url(#paint3_linear_2959_11153)"/>
<path d="M243.193 71.6131C243.192 74.9666 244.072 78.2404 245.745 81.1261L243.032 90.9859L253.168 88.3402C255.96 89.8561 259.105 90.6553 262.304 90.6565H262.313C272.85 90.6565 281.428 82.1196 281.432 71.6283C281.434 66.5439 279.447 61.7628 275.837 58.1661C272.227 54.5699 267.427 52.588 262.313 52.5859C251.774 52.5859 243.197 61.1217 243.193 71.6131H243.193ZM249.229 80.6291L248.85 80.031C247.259 77.5127 246.42 74.6025 246.421 71.6143C246.424 62.8941 253.553 55.7995 262.319 55.7995C266.564 55.8013 270.553 57.4487 273.554 60.4378C276.554 63.4271 278.205 67.4008 278.204 71.6271C278.2 80.3473 271.071 87.4428 262.313 87.4428H262.306C259.454 87.4413 256.657 86.6788 254.218 85.2379L253.637 84.8952L247.623 86.4651L249.229 80.6289V80.6291Z" fill="url(#paint4_linear_2959_11153)"/>
<path d="M257.534 63.6571C257.176 62.8652 256.799 62.8492 256.459 62.8353C256.18 62.8233 255.862 62.8242 255.543 62.8242C255.225 62.8242 254.707 62.9435 254.269 63.4192C253.831 63.8952 252.597 65.0457 252.597 67.3855C252.597 69.7256 254.309 71.9869 254.548 72.3045C254.787 72.6215 257.853 77.5769 262.709 79.4833C266.744 81.0675 267.565 80.7525 268.441 80.673C269.317 80.5939 271.268 79.5229 271.666 78.4123C272.064 77.3019 272.064 76.35 271.945 76.1511C271.825 75.953 271.507 75.8339 271.029 75.5962C270.551 75.3583 268.202 74.2077 267.765 74.049C267.327 73.8904 267.008 73.8113 266.689 74.2875C266.371 74.7629 265.456 75.8339 265.177 76.1511C264.899 76.469 264.62 76.5086 264.142 76.2707C263.664 76.0321 262.126 75.5305 260.3 73.9104C258.88 72.6498 257.921 71.093 257.643 70.6168C257.364 70.1413 257.613 69.8836 257.852 69.6466C258.067 69.4335 258.33 69.0912 258.569 68.8136C258.807 68.5358 258.887 68.3377 259.046 68.0205C259.206 67.703 259.126 67.4253 259.007 67.1874C258.887 66.9495 257.959 64.5975 257.534 63.6572" fill="white"/>
</g>
</g>
<rect x="275.6" y="162.576" width="22.4" height="4" transform="rotate(-180 275.6 162.576)" fill="#707070"/>
<circle cx="249.2" cy="160.977" r="6.4" transform="rotate(-180 249.2 160.977)" fill="#707070"/>
<g clip-path="url(#clip7_2959_11153)">
<circle cx="296.4" cy="160.976" r="25.6" transform="rotate(-180 296.4 160.976)" fill="#707070"/>
<g clip-path="url(#clip8_2959_11153)">
<path d="M306.325 141.814H285.925C280.955 141.814 276.925 145.844 276.925 150.814V171.214C276.925 176.185 280.955 180.214 285.925 180.214H306.325C311.296 180.214 315.325 176.185 315.325 171.214V150.814C315.325 145.844 311.296 141.814 306.325 141.814Z" fill="white"/>
<path d="M306.325 141.814H285.925C280.955 141.814 276.925 145.844 276.925 150.814V171.214C276.925 176.185 280.955 180.214 285.925 180.214H306.325C311.296 180.214 315.325 176.185 315.325 171.214V150.814C315.325 145.844 311.296 141.814 306.325 141.814Z" fill="#1D9BF0"/>
<path d="M307.833 156.036C307.85 156.274 307.85 156.512 307.85 156.752C307.85 164.072 302.277 172.514 292.088 172.514V172.509C289.078 172.513 286.131 171.651 283.597 170.026C284.035 170.078 284.475 170.105 284.916 170.106C287.411 170.108 289.834 169.271 291.795 167.73C290.639 167.708 289.519 167.325 288.591 166.636C287.664 165.946 286.974 164.984 286.62 163.883C287.45 164.043 288.306 164.01 289.121 163.788C286.537 163.266 284.678 160.995 284.678 158.358V158.288C285.448 158.717 286.31 158.955 287.192 158.981C284.758 157.354 284.008 154.116 285.477 151.585C286.868 153.296 288.603 154.696 290.57 155.693C292.537 156.69 294.691 157.262 296.894 157.372C296.674 156.427 296.707 155.44 296.988 154.512C297.269 153.583 297.789 152.744 298.496 152.079C300.727 149.982 304.236 150.09 306.334 152.32C307.574 152.075 308.764 151.62 309.851 150.975C309.438 152.257 308.572 153.346 307.416 154.038C308.514 153.909 309.587 153.615 310.597 153.167C309.854 154.28 308.918 155.251 307.833 156.036Z" fill="white"/>
</g>
</g>
<rect x="162.4" y="46.5547" width="22.4" height="4" transform="rotate(90 162.4 46.5547)" fill="#707070"/>
<circle cx="160.8" cy="72.9547" r="6.4" transform="rotate(90 160.8 72.9547)" fill="#707070"/>
<g clip-path="url(#clip9_2959_11153)">
<circle cx="160.8" cy="25.7543" r="25.6" transform="rotate(90 160.8 25.7543)" fill="#707070"/>
<rect x="180" y="6.55469" width="38.4" height="38.4" rx="19.2" transform="rotate(90 180 6.55469)" fill="#5865F2"/>
<path d="M170.136 17.4624C168.457 16.6769 166.681 16.1188 164.854 15.8027C164.627 16.214 164.361 16.7672 164.178 17.2073C162.208 16.9112 160.257 16.9112 158.324 17.2073C158.141 16.7673 157.869 16.214 157.64 15.8027C155.811 16.1189 154.034 16.6785 152.354 17.4665C149.012 22.5174 148.106 27.4427 148.559 32.2983C150.776 33.9538 152.924 34.9595 155.036 35.6176C155.561 34.8957 156.025 34.1315 156.424 33.3327C155.665 33.044 154.934 32.6882 154.239 32.2695C154.422 32.1339 154.6 31.9926 154.775 31.8458C158.987 33.816 163.564 33.816 167.726 31.8458C167.9 31.9917 168.079 32.133 168.261 32.2695C167.565 32.6893 166.832 33.0458 166.072 33.3348C166.473 34.1368 166.936 34.9018 167.46 35.6196C169.574 34.9616 171.724 33.9559 173.941 32.2983C174.473 26.6695 173.033 21.7894 170.136 17.4624ZM156.997 29.3122C155.733 29.3122 154.696 28.1317 154.696 26.6942C154.696 25.2567 155.711 24.0742 156.997 24.0742C158.284 24.0742 159.321 25.2546 159.299 26.6942C159.301 28.1317 158.284 29.3122 156.997 29.3122ZM165.503 29.3122C164.238 29.3122 163.201 28.1317 163.201 26.6942C163.201 25.2567 164.216 24.0742 165.503 24.0742C166.789 24.0742 167.826 25.2546 167.804 26.6942C167.804 28.1317 166.789 29.3122 165.503 29.3122Z" fill="white"/>
</g>
<defs>
<filter id="filter0_d_2959_11153" x="105.6" y="108.955" width="110.4" height="110.4" filterUnits="userSpaceOnUse" color-interpolation-filters="sRGB">
<feFlood flood-opacity="0" result="BackgroundImageFix"/>
<feColorMatrix in="SourceAlpha" type="matrix" values="0 0 0 0 0 0 0 0 0 0 0 0 0 0 0 0 0 0 127 0" result="hardAlpha"/>
<feOffset dy="3.2"/>
<feGaussianBlur stdDeviation="1.6"/>
<feComposite in2="hardAlpha" operator="out"/>
<feColorMatrix type="matrix" values="0 0 0 0 0 0 0 0 0 0 0 0 0 0 0 0 0 0 0.25 0"/>
<feBlend mode="normal" in2="BackgroundImageFix" result="effect1_dropShadow_2959_11153"/>
<feBlend mode="normal" in="SourceGraphic" in2="effect1_dropShadow_2959_11153" result="shape"/>
</filter>
<radialGradient id="paint0_radial_2959_11153" cx="0" cy="0" r="1" gradientUnits="userSpaceOnUse" gradientTransform="translate(16.6 183.117) rotate(-90) scale(38.0573 35.3963)">
<stop stop-color="#FFDD55"/>
<stop offset="0.1" stop-color="#FFDD55"/>
<stop offset="0.5" stop-color="#FF543E"/>
<stop offset="1" stop-color="#C837AB"/>
</radialGradient>
<radialGradient id="paint1_radial_2959_11153" cx="0" cy="0" r="1" gradientUnits="userSpaceOnUse" gradientTransform="translate(-0.0321258 144.526) rotate(78.681) scale(17.0118 70.1232)">
<stop stop-color="#3771C8"/>
<stop offset="0.128" stop-color="#3771C8"/>
<stop offset="1" stop-color="#6600FF" stop-opacity="0"/>
</radialGradient>
<linearGradient id="paint2_linear_2959_11153" x1="59.2397" y1="52.582" x2="59.2397" y2="90.982" gradientUnits="userSpaceOnUse">
<stop stop-color="#2AABEE"/>
<stop offset="1" stop-color="#229ED9"/>
</linearGradient>
<linearGradient id="paint3_linear_2959_11153" x1="262.232" y1="90.3207" x2="262.232" y2="53.25" gradientUnits="userSpaceOnUse">
<stop stop-color="#1FAF38"/>
<stop offset="1" stop-color="#60D669"/>
</linearGradient>
<linearGradient id="paint4_linear_2959_11153" x1="262.232" y1="90.9859" x2="262.232" y2="52.5859" gradientUnits="userSpaceOnUse">
<stop stop-color="#F9F9F9"/>
<stop offset="1" stop-color="white"/>
</linearGradient>
<clipPath id="clip0_2959_11153">
<rect width="179.2" height="95.2" fill="white" transform="translate(71.6 71.377)"/>
</clipPath>
<clipPath id="clip1_2959_11153">
<rect width="51.2" height="51.2" fill="white" transform="translate(0 135.357)"/>
</clipPath>
<clipPath id="clip2_2959_11153">
<rect x="6.40002" y="141.758" width="38.4" height="38.4" rx="19.2" fill="white"/>
</clipPath>
<clipPath id="clip3_2959_11153">
<rect width="51.2" height="51.2" fill="white" transform="translate(59.4032 35.3574) rotate(45)"/>
</clipPath>
<clipPath id="clip4_2959_11153">
<rect x="59.4033" y="44.4062" width="38.4" height="38.4" rx="19.2" transform="rotate(45 59.4033 44.4062)" fill="white"/>
</clipPath>
<clipPath id="clip5_2959_11153">
<rect width="51.2" height="51.2" fill="white" transform="translate(298.603 71.5605) rotate(135)"/>
</clipPath>
<clipPath id="clip6_2959_11153">
<rect x="262.396" y="44.4102" width="38.4" height="38.4" rx="19.2" transform="rotate(45 262.396 44.4102)" fill="white"/>
</clipPath>
<clipPath id="clip7_2959_11153">
<rect width="51.2" height="51.2" fill="white" transform="matrix(-1 0 0 -1 322 186.576)"/>
</clipPath>
<clipPath id="clip8_2959_11153">
<rect x="315.597" y="141.775" width="38.4" height="38.4" rx="19.2" transform="rotate(90 315.597 141.775)" fill="white"/>
</clipPath>
<clipPath id="clip9_2959_11153">
<rect width="51.2" height="51.2" fill="white" transform="matrix(0 1 -1 0 186.4 0.154297)"/>
</clipPath>
</defs>
</svg>
