<svg width="25" height="25" viewBox="0 0 25 25" fill="none" xmlns="http://www.w3.org/2000/svg">
<path d="M10.5208 1.096C10.5339 1.04896 10.5397 1.00019 10.538 0.951406C10.5458 0.82182 10.513 0.692957 10.4441 0.582764C10.3739 0.470428 10.2698 0.383305 10.1469 0.33397L10.1465 0.333828C10.0168 0.282241 9.87341 0.276513 9.74003 0.317557C7.70154 0.887688 5.84781 1.98154 4.36319 3.49034C2.87818 4.99955 1.81425 6.87132 1.27727 8.91941C0.740299 10.9675 0.748997 13.1205 1.3025 15.1642C1.85601 17.2079 2.93503 19.071 4.43219 20.5681C5.92935 22.0653 7.79247 23.1443 9.83615 23.6978C11.8798 24.2513 14.0328 24.26 16.0809 23.723C18.129 23.1861 20.0008 22.1221 21.51 20.6371C23.0192 19.1521 24.1132 17.2978 24.6832 15.2586L24.6837 15.2569C24.7141 15.1418 24.7141 15.0207 24.6837 14.9055L24.6838 14.9055L24.6824 14.9009C24.6426 14.7709 24.5623 14.657 24.4532 14.5759C24.3441 14.4948 24.2119 14.4507 24.076 14.45L24.0653 14.4499L24.0548 14.4517L23.9048 14.4767L23.9047 14.476L23.8921 14.4795C22.0382 14.9905 20.0819 15.0008 18.2227 14.5094C16.3636 14.0179 14.6679 13.0422 13.3088 11.6817C11.9496 10.3213 10.9755 8.62479 10.4857 6.76515C9.99595 4.90557 10.008 2.94938 10.5208 1.096ZM10.5208 1.096C10.5207 1.09606 10.5207 1.09613 10.5207 1.09619L10.4003 1.06248M10.5208 1.096C10.5208 1.09594 10.5208 1.09587 10.5208 1.09581L10.4003 1.06248M10.4003 1.06248C9.88168 2.93722 9.86942 4.91596 10.3648 6.79698C10.8602 8.678 11.8455 10.394 13.2203 11.7701C14.5951 13.1462 16.3102 14.1331 18.1908 14.6302C20.0714 15.1273 22.0501 15.1169 23.9253 14.6L10.1003 0.449979C10.1987 0.489446 10.282 0.559145 10.3381 0.649014C10.3943 0.738883 10.4205 0.844275 10.4128 0.949979C10.4148 0.987909 10.4106 1.02591 10.4003 1.06248ZM13.0001 22.875C10.4419 22.8785 7.96428 21.98 6.00295 20.3376C4.0416 18.6951 2.72209 16.4137 2.27641 13.8946C1.83073 11.3754 2.28741 8.77981 3.56617 6.56407C4.80813 4.4121 6.74831 2.75227 9.0615 1.85746C8.7247 3.74439 8.83942 5.68542 9.39767 7.52129C9.97757 9.42834 11.0182 11.1632 12.4277 12.5727C13.8371 13.9821 15.572 15.0227 17.479 15.6026C19.3146 16.1608 21.2552 16.2756 23.1419 15.939C22.3577 17.9431 20.9977 19.6722 19.2311 20.9069C17.4038 22.184 15.2294 22.8708 13.0001 22.875Z" fill="#F5F8FC" stroke="#F5F8FC" stroke-width="0.25"/>
</svg>
