<svg width="30" height="30" viewBox="0 0 30 30" fill="none" xmlns="http://www.w3.org/2000/svg">
<mask id="path-1-outside-1_760_1876" maskUnits="userSpaceOnUse" x="-0.5" y="-0.5" width="31" height="31" fill="black">
<rect fill="white" x="-0.5" y="-0.5" width="31" height="31"/>
<path d="M15 7C13.4177 7 11.871 7.46919 10.5554 8.34824C9.23985 9.22729 8.21447 10.4767 7.60896 11.9385C7.00346 13.4003 6.84504 15.0089 7.15372 16.5607C7.4624 18.1126 8.22433 19.538 9.34315 20.6569C10.462 21.7757 11.8874 22.5376 13.4393 22.8463C14.9911 23.155 16.5997 22.9965 18.0615 22.391C19.5233 21.7855 20.7727 20.7602 21.6518 19.4446C22.5308 18.129 23 16.5823 23 15C22.9967 12.8793 22.1528 10.8464 20.6532 9.3468C19.1536 7.84722 17.1207 7.00331 15 7ZM15 22C13.6155 22 12.2622 21.5895 11.111 20.8203C9.95986 20.0511 9.06266 18.9579 8.53284 17.6788C8.00303 16.3997 7.86441 14.9922 8.1345 13.6344C8.4046 12.2765 9.07129 11.0292 10.0503 10.0503C11.0292 9.07129 12.2765 8.4046 13.6344 8.1345C14.9922 7.86441 16.3997 8.00303 17.6788 8.53284C18.9579 9.06266 20.0511 9.95986 20.8203 11.111C21.5895 12.2622 22 13.6155 22 15C22 16.8565 21.2625 18.637 19.9497 19.9497C18.637 21.2625 16.8565 22 15 22ZM14.5 3.5V1C14.5 0.867392 14.5527 0.740215 14.6464 0.646447C14.7402 0.552678 14.8674 0.5 15 0.5C15.1326 0.5 15.2598 0.552678 15.3536 0.646447C15.4473 0.740215 15.5 0.867392 15.5 1V3.5C15.5 3.63261 15.4473 3.75979 15.3536 3.85355C15.2598 3.94732 15.1326 4 15 4C14.8674 4 14.7402 3.94732 14.6464 3.85355C14.5527 3.75979 14.5 3.63261 14.5 3.5ZM4.75 5.45C4.69269 5.40702 4.64529 5.35222 4.611 5.28933C4.57671 5.22643 4.55634 5.1569 4.55126 5.08544C4.54618 5.01399 4.55652 4.94228 4.58156 4.87516C4.60661 4.80805 4.64579 4.7471 4.69645 4.69645C4.7471 4.64579 4.80805 4.60661 4.87516 4.58156C4.94228 4.55652 5.01399 4.54618 5.08544 4.55126C5.1569 4.55634 5.22643 4.57671 5.28933 4.611C5.35222 4.64529 5.40702 4.69269 5.45 4.75L7.225 6.5125C7.31461 6.6095 7.36437 6.7367 7.36437 6.86875C7.36437 7.0008 7.31461 7.128 7.225 7.225C7.1772 7.27149 7.12036 7.30769 7.05801 7.33134C6.99566 7.35499 6.92911 7.36559 6.8625 7.3625C6.79787 7.36461 6.7335 7.3535 6.67331 7.32986C6.61313 7.30622 6.55841 7.27053 6.5125 7.225L4.75 5.45ZM4 15C4 15.1326 3.94732 15.2598 3.85355 15.3536C3.75979 15.4473 3.63261 15.5 3.5 15.5H1C0.867392 15.5 0.740215 15.4473 0.646447 15.3536C0.552678 15.2598 0.5 15.1326 0.5 15C0.5 14.8674 0.552678 14.7402 0.646447 14.6464C0.740215 14.5527 0.867392 14.5 1 14.5H3.5C3.63261 14.5 3.75979 14.5527 3.85355 14.6464C3.94732 14.7402 4 14.8674 4 15ZM7.225 22.775C7.31461 22.872 7.36437 22.9992 7.36437 23.1313C7.36437 23.2633 7.31461 23.3905 7.225 23.4875L5.45 25.25C5.40516 25.2978 5.35092 25.3358 5.29069 25.3616C5.23045 25.3874 5.16553 25.4005 5.1 25.4C5.03458 25.3998 4.96988 25.3864 4.90975 25.3606C4.84962 25.3348 4.79529 25.2972 4.75 25.25C4.70313 25.2046 4.66586 25.1502 4.64041 25.09C4.61496 25.0299 4.60185 24.9653 4.60185 24.9C4.60185 24.8347 4.61496 24.7701 4.64041 24.71C4.66586 24.6498 4.70313 24.5954 4.75 24.55L6.5125 22.775C6.6095 22.6854 6.7367 22.6356 6.86875 22.6356C7.0008 22.6356 7.128 22.6854 7.225 22.775ZM15.5 26.5V29C15.5 29.1326 15.4473 29.2598 15.3536 29.3536C15.2598 29.4473 15.1326 29.5 15 29.5C14.8674 29.5 14.7402 29.4473 14.6464 29.3536C14.5527 29.2598 14.5 29.1326 14.5 29V26.5C14.5 26.3674 14.5527 26.2402 14.6464 26.1464C14.7402 26.0527 14.8674 26 15 26C15.1326 26 15.2598 26.0527 15.3536 26.1464C15.4473 26.2402 15.5 26.3674 15.5 26.5ZM25.25 24.55C25.2969 24.5954 25.3341 24.6498 25.3596 24.71C25.385 24.7701 25.3982 24.8347 25.3982 24.9C25.3982 24.9653 25.385 25.0299 25.3596 25.09C25.3341 25.1502 25.2969 25.2046 25.25 25.25C25.2047 25.2972 25.1504 25.3348 25.0903 25.3606C25.0301 25.3864 24.9654 25.3998 24.9 25.4C24.8345 25.4005 24.7695 25.3874 24.7093 25.3616C24.6491 25.3358 24.5948 25.2978 24.55 25.25L22.775 23.4875C22.6805 23.393 22.6274 23.2649 22.6274 23.1313C22.6274 22.9976 22.6805 22.8695 22.775 22.775C22.8695 22.6805 22.9976 22.6274 23.1313 22.6274C23.2649 22.6274 23.393 22.6805 23.4875 22.775L25.25 24.55ZM29.5 15C29.5 15.1326 29.4473 15.2598 29.3536 15.3536C29.2598 15.4473 29.1326 15.5 29 15.5H26.5C26.3674 15.5 26.2402 15.4473 26.1464 15.3536C26.0527 15.2598 26 15.1326 26 15C26 14.8674 26.0527 14.7402 26.1464 14.6464C26.2402 14.5527 26.3674 14.5 26.5 14.5H29C29.1326 14.5 29.2598 14.5527 29.3536 14.6464C29.4473 14.7402 29.5 14.8674 29.5 15ZM25.25 4.75C25.2969 4.79545 25.3341 4.84984 25.3596 4.90997C25.385 4.97009 25.3982 5.03471 25.3982 5.1C25.3982 5.16529 25.385 5.22991 25.3596 5.29003C25.3341 5.35016 25.2969 5.40455 25.25 5.45L23.4875 7.225C23.4416 7.27053 23.3869 7.30622 23.3267 7.32986C23.2665 7.3535 23.2021 7.36461 23.1375 7.3625C23.0709 7.36559 23.0043 7.35499 22.942 7.33134C22.8796 7.30769 22.8228 7.27149 22.775 7.225C22.6854 7.128 22.6356 7.0008 22.6356 6.86875C22.6356 6.7367 22.6854 6.6095 22.775 6.5125L24.55 4.75C24.5954 4.70313 24.6498 4.66586 24.71 4.64041C24.7701 4.61496 24.8347 4.60185 24.9 4.60185C24.9653 4.60185 25.0299 4.61496 25.09 4.64041C25.1502 4.66586 25.2046 4.70313 25.25 4.75Z"/>
</mask>
<path d="M15 7C13.4177 7 11.871 7.46919 10.5554 8.34824C9.23985 9.22729 8.21447 10.4767 7.60896 11.9385C7.00346 13.4003 6.84504 15.0089 7.15372 16.5607C7.4624 18.1126 8.22433 19.538 9.34315 20.6569C10.462 21.7757 11.8874 22.5376 13.4393 22.8463C14.9911 23.155 16.5997 22.9965 18.0615 22.391C19.5233 21.7855 20.7727 20.7602 21.6518 19.4446C22.5308 18.129 23 16.5823 23 15C22.9967 12.8793 22.1528 10.8464 20.6532 9.3468C19.1536 7.84722 17.1207 7.00331 15 7ZM15 22C13.6155 22 12.2622 21.5895 11.111 20.8203C9.95986 20.0511 9.06266 18.9579 8.53284 17.6788C8.00303 16.3997 7.86441 14.9922 8.1345 13.6344C8.4046 12.2765 9.07129 11.0292 10.0503 10.0503C11.0292 9.07129 12.2765 8.4046 13.6344 8.1345C14.9922 7.86441 16.3997 8.00303 17.6788 8.53284C18.9579 9.06266 20.0511 9.95986 20.8203 11.111C21.5895 12.2622 22 13.6155 22 15C22 16.8565 21.2625 18.637 19.9497 19.9497C18.637 21.2625 16.8565 22 15 22ZM14.5 3.5V1C14.5 0.867392 14.5527 0.740215 14.6464 0.646447C14.7402 0.552678 14.8674 0.5 15 0.5C15.1326 0.5 15.2598 0.552678 15.3536 0.646447C15.4473 0.740215 15.5 0.867392 15.5 1V3.5C15.5 3.63261 15.4473 3.75979 15.3536 3.85355C15.2598 3.94732 15.1326 4 15 4C14.8674 4 14.7402 3.94732 14.6464 3.85355C14.5527 3.75979 14.5 3.63261 14.5 3.5ZM4.75 5.45C4.69269 5.40702 4.64529 5.35222 4.611 5.28933C4.57671 5.22643 4.55634 5.1569 4.55126 5.08544C4.54618 5.01399 4.55652 4.94228 4.58156 4.87516C4.60661 4.80805 4.64579 4.7471 4.69645 4.69645C4.7471 4.64579 4.80805 4.60661 4.87516 4.58156C4.94228 4.55652 5.01399 4.54618 5.08544 4.55126C5.1569 4.55634 5.22643 4.57671 5.28933 4.611C5.35222 4.64529 5.40702 4.69269 5.45 4.75L7.225 6.5125C7.31461 6.6095 7.36437 6.7367 7.36437 6.86875C7.36437 7.0008 7.31461 7.128 7.225 7.225C7.1772 7.27149 7.12036 7.30769 7.05801 7.33134C6.99566 7.35499 6.92911 7.36559 6.8625 7.3625C6.79787 7.36461 6.7335 7.3535 6.67331 7.32986C6.61313 7.30622 6.55841 7.27053 6.5125 7.225L4.75 5.45ZM4 15C4 15.1326 3.94732 15.2598 3.85355 15.3536C3.75979 15.4473 3.63261 15.5 3.5 15.5H1C0.867392 15.5 0.740215 15.4473 0.646447 15.3536C0.552678 15.2598 0.5 15.1326 0.5 15C0.5 14.8674 0.552678 14.7402 0.646447 14.6464C0.740215 14.5527 0.867392 14.5 1 14.5H3.5C3.63261 14.5 3.75979 14.5527 3.85355 14.6464C3.94732 14.7402 4 14.8674 4 15ZM7.225 22.775C7.31461 22.872 7.36437 22.9992 7.36437 23.1313C7.36437 23.2633 7.31461 23.3905 7.225 23.4875L5.45 25.25C5.40516 25.2978 5.35092 25.3358 5.29069 25.3616C5.23045 25.3874 5.16553 25.4005 5.1 25.4C5.03458 25.3998 4.96988 25.3864 4.90975 25.3606C4.84962 25.3348 4.79529 25.2972 4.75 25.25C4.70313 25.2046 4.66586 25.1502 4.64041 25.09C4.61496 25.0299 4.60185 24.9653 4.60185 24.9C4.60185 24.8347 4.61496 24.7701 4.64041 24.71C4.66586 24.6498 4.70313 24.5954 4.75 24.55L6.5125 22.775C6.6095 22.6854 6.7367 22.6356 6.86875 22.6356C7.0008 22.6356 7.128 22.6854 7.225 22.775ZM15.5 26.5V29C15.5 29.1326 15.4473 29.2598 15.3536 29.3536C15.2598 29.4473 15.1326 29.5 15 29.5C14.8674 29.5 14.7402 29.4473 14.6464 29.3536C14.5527 29.2598 14.5 29.1326 14.5 29V26.5C14.5 26.3674 14.5527 26.2402 14.6464 26.1464C14.7402 26.0527 14.8674 26 15 26C15.1326 26 15.2598 26.0527 15.3536 26.1464C15.4473 26.2402 15.5 26.3674 15.5 26.5ZM25.25 24.55C25.2969 24.5954 25.3341 24.6498 25.3596 24.71C25.385 24.7701 25.3982 24.8347 25.3982 24.9C25.3982 24.9653 25.385 25.0299 25.3596 25.09C25.3341 25.1502 25.2969 25.2046 25.25 25.25C25.2047 25.2972 25.1504 25.3348 25.0903 25.3606C25.0301 25.3864 24.9654 25.3998 24.9 25.4C24.8345 25.4005 24.7695 25.3874 24.7093 25.3616C24.6491 25.3358 24.5948 25.2978 24.55 25.25L22.775 23.4875C22.6805 23.393 22.6274 23.2649 22.6274 23.1313C22.6274 22.9976 22.6805 22.8695 22.775 22.775C22.8695 22.6805 22.9976 22.6274 23.1313 22.6274C23.2649 22.6274 23.393 22.6805 23.4875 22.775L25.25 24.55ZM29.5 15C29.5 15.1326 29.4473 15.2598 29.3536 15.3536C29.2598 15.4473 29.1326 15.5 29 15.5H26.5C26.3674 15.5 26.2402 15.4473 26.1464 15.3536C26.0527 15.2598 26 15.1326 26 15C26 14.8674 26.0527 14.7402 26.1464 14.6464C26.2402 14.5527 26.3674 14.5 26.5 14.5H29C29.1326 14.5 29.2598 14.5527 29.3536 14.6464C29.4473 14.7402 29.5 14.8674 29.5 15ZM25.25 4.75C25.2969 4.79545 25.3341 4.84984 25.3596 4.90997C25.385 4.97009 25.3982 5.03471 25.3982 5.1C25.3982 5.16529 25.385 5.22991 25.3596 5.29003C25.3341 5.35016 25.2969 5.40455 25.25 5.45L23.4875 7.225C23.4416 7.27053 23.3869 7.30622 23.3267 7.32986C23.2665 7.3535 23.2021 7.36461 23.1375 7.3625C23.0709 7.36559 23.0043 7.35499 22.942 7.33134C22.8796 7.30769 22.8228 7.27149 22.775 7.225C22.6854 7.128 22.6356 7.0008 22.6356 6.86875C22.6356 6.7367 22.6854 6.6095 22.775 6.5125L24.55 4.75C24.5954 4.70313 24.6498 4.66586 24.71 4.64041C24.7701 4.61496 24.8347 4.60185 24.9 4.60185C24.9653 4.60185 25.0299 4.61496 25.09 4.64041C25.1502 4.66586 25.2046 4.70313 25.25 4.75Z" fill="#FFA726"/>
<path d="M15 7C13.4177 7 11.871 7.46919 10.5554 8.34824C9.23985 9.22729 8.21447 10.4767 7.60896 11.9385C7.00346 13.4003 6.84504 15.0089 7.15372 16.5607C7.4624 18.1126 8.22433 19.538 9.34315 20.6569C10.462 21.7757 11.8874 22.5376 13.4393 22.8463C14.9911 23.155 16.5997 22.9965 18.0615 22.391C19.5233 21.7855 20.7727 20.7602 21.6518 19.4446C22.5308 18.129 23 16.5823 23 15C22.9967 12.8793 22.1528 10.8464 20.6532 9.3468C19.1536 7.84722 17.1207 7.00331 15 7ZM15 22C13.6155 22 12.2622 21.5895 11.111 20.8203C9.95986 20.0511 9.06266 18.9579 8.53284 17.6788C8.00303 16.3997 7.86441 14.9922 8.1345 13.6344C8.4046 12.2765 9.07129 11.0292 10.0503 10.0503C11.0292 9.07129 12.2765 8.4046 13.6344 8.1345C14.9922 7.86441 16.3997 8.00303 17.6788 8.53284C18.9579 9.06266 20.0511 9.95986 20.8203 11.111C21.5895 12.2622 22 13.6155 22 15C22 16.8565 21.2625 18.637 19.9497 19.9497C18.637 21.2625 16.8565 22 15 22ZM14.5 3.5V1C14.5 0.867392 14.5527 0.740215 14.6464 0.646447C14.7402 0.552678 14.8674 0.5 15 0.5C15.1326 0.5 15.2598 0.552678 15.3536 0.646447C15.4473 0.740215 15.5 0.867392 15.5 1V3.5C15.5 3.63261 15.4473 3.75979 15.3536 3.85355C15.2598 3.94732 15.1326 4 15 4C14.8674 4 14.7402 3.94732 14.6464 3.85355C14.5527 3.75979 14.5 3.63261 14.5 3.5ZM4.75 5.45C4.69269 5.40702 4.64529 5.35222 4.611 5.28933C4.57671 5.22643 4.55634 5.1569 4.55126 5.08544C4.54618 5.01399 4.55652 4.94228 4.58156 4.87516C4.60661 4.80805 4.64579 4.7471 4.69645 4.69645C4.7471 4.64579 4.80805 4.60661 4.87516 4.58156C4.94228 4.55652 5.01399 4.54618 5.08544 4.55126C5.1569 4.55634 5.22643 4.57671 5.28933 4.611C5.35222 4.64529 5.40702 4.69269 5.45 4.75L7.225 6.5125C7.31461 6.6095 7.36437 6.7367 7.36437 6.86875C7.36437 7.0008 7.31461 7.128 7.225 7.225C7.1772 7.27149 7.12036 7.30769 7.05801 7.33134C6.99566 7.35499 6.92911 7.36559 6.8625 7.3625C6.79787 7.36461 6.7335 7.3535 6.67331 7.32986C6.61313 7.30622 6.55841 7.27053 6.5125 7.225L4.75 5.45ZM4 15C4 15.1326 3.94732 15.2598 3.85355 15.3536C3.75979 15.4473 3.63261 15.5 3.5 15.5H1C0.867392 15.5 0.740215 15.4473 0.646447 15.3536C0.552678 15.2598 0.5 15.1326 0.5 15C0.5 14.8674 0.552678 14.7402 0.646447 14.6464C0.740215 14.5527 0.867392 14.5 1 14.5H3.5C3.63261 14.5 3.75979 14.5527 3.85355 14.6464C3.94732 14.7402 4 14.8674 4 15ZM7.225 22.775C7.31461 22.872 7.36437 22.9992 7.36437 23.1313C7.36437 23.2633 7.31461 23.3905 7.225 23.4875L5.45 25.25C5.40516 25.2978 5.35092 25.3358 5.29069 25.3616C5.23045 25.3874 5.16553 25.4005 5.1 25.4C5.03458 25.3998 4.96988 25.3864 4.90975 25.3606C4.84962 25.3348 4.79529 25.2972 4.75 25.25C4.70313 25.2046 4.66586 25.1502 4.64041 25.09C4.61496 25.0299 4.60185 24.9653 4.60185 24.9C4.60185 24.8347 4.61496 24.7701 4.64041 24.71C4.66586 24.6498 4.70313 24.5954 4.75 24.55L6.5125 22.775C6.6095 22.6854 6.7367 22.6356 6.86875 22.6356C7.0008 22.6356 7.128 22.6854 7.225 22.775ZM15.5 26.5V29C15.5 29.1326 15.4473 29.2598 15.3536 29.3536C15.2598 29.4473 15.1326 29.5 15 29.5C14.8674 29.5 14.7402 29.4473 14.6464 29.3536C14.5527 29.2598 14.5 29.1326 14.5 29V26.5C14.5 26.3674 14.5527 26.2402 14.6464 26.1464C14.7402 26.0527 14.8674 26 15 26C15.1326 26 15.2598 26.0527 15.3536 26.1464C15.4473 26.2402 15.5 26.3674 15.5 26.5ZM25.25 24.55C25.2969 24.5954 25.3341 24.6498 25.3596 24.71C25.385 24.7701 25.3982 24.8347 25.3982 24.9C25.3982 24.9653 25.385 25.0299 25.3596 25.09C25.3341 25.1502 25.2969 25.2046 25.25 25.25C25.2047 25.2972 25.1504 25.3348 25.0903 25.3606C25.0301 25.3864 24.9654 25.3998 24.9 25.4C24.8345 25.4005 24.7695 25.3874 24.7093 25.3616C24.6491 25.3358 24.5948 25.2978 24.55 25.25L22.775 23.4875C22.6805 23.393 22.6274 23.2649 22.6274 23.1313C22.6274 22.9976 22.6805 22.8695 22.775 22.775C22.8695 22.6805 22.9976 22.6274 23.1313 22.6274C23.2649 22.6274 23.393 22.6805 23.4875 22.775L25.25 24.55ZM29.5 15C29.5 15.1326 29.4473 15.2598 29.3536 15.3536C29.2598 15.4473 29.1326 15.5 29 15.5H26.5C26.3674 15.5 26.2402 15.4473 26.1464 15.3536C26.0527 15.2598 26 15.1326 26 15C26 14.8674 26.0527 14.7402 26.1464 14.6464C26.2402 14.5527 26.3674 14.5 26.5 14.5H29C29.1326 14.5 29.2598 14.5527 29.3536 14.6464C29.4473 14.7402 29.5 14.8674 29.5 15ZM25.25 4.75C25.2969 4.79545 25.3341 4.84984 25.3596 4.90997C25.385 4.97009 25.3982 5.03471 25.3982 5.1C25.3982 5.16529 25.385 5.22991 25.3596 5.29003C25.3341 5.35016 25.2969 5.40455 25.25 5.45L23.4875 7.225C23.4416 7.27053 23.3869 7.30622 23.3267 7.32986C23.2665 7.3535 23.2021 7.36461 23.1375 7.3625C23.0709 7.36559 23.0043 7.35499 22.942 7.33134C22.8796 7.30769 22.8228 7.27149 22.775 7.225C22.6854 7.128 22.6356 7.0008 22.6356 6.86875C22.6356 6.7367 22.6854 6.6095 22.775 6.5125L24.55 4.75C24.5954 4.70313 24.6498 4.66586 24.71 4.64041C24.7701 4.61496 24.8347 4.60185 24.9 4.60185C24.9653 4.60185 25.0299 4.61496 25.09 4.64041C25.1502 4.66586 25.2046 4.70313 25.25 4.75Z" stroke="#FFA726" mask="url(#path-1-outside-1_760_1876)"/>
</svg>
