<svg width="520" height="441" viewBox="0 0 520 441" fill="none" xmlns="http://www.w3.org/2000/svg">
<mask id="mask0_5164_14375" style="mask-type:luminance" maskUnits="userSpaceOnUse" x="277" y="142" width="142" height="102">
<path d="M418.228 142.432C417.343 141.929 415.926 141.929 415.04 142.432C414.253 142.897 414.178 143.609 414.815 144.119L352.198 180.329L352.07 180.412V199.889L277.273 243.142L277.775 243.442L309.635 225.014L310.505 224.511L352.445 200.257L352.573 200.174V180.697L415.325 144.412C416.203 144.779 417.433 144.734 418.228 144.284C419.113 143.767 419.113 142.949 418.228 142.432Z" fill="url(#paint0_linear_5164_14375)"/>
</mask>
<g mask="url(#mask0_5164_14375)">
<path d="M418.228 142.432C417.343 141.929 415.926 141.929 415.04 142.432C414.253 142.897 414.178 143.609 414.815 144.119L352.198 180.329L352.07 180.412V199.889L277.273 243.142L277.775 243.442L309.635 225.014L310.505 224.511L352.445 200.257L352.573 200.174V180.697L415.325 144.412C416.203 144.779 417.433 144.734 418.228 144.284C419.113 143.767 419.113 142.949 418.228 142.432Z" fill="url(#paint1_linear_5164_14375)"/>
</g>
<mask id="mask1_5164_14375" style="mask-type:luminance" maskUnits="userSpaceOnUse" x="177" y="220" width="121" height="124">
<path d="M290.539 250.823L277.782 243.443L277.272 243.143L266.3 236.798L265.789 236.504L259.017 232.59L258.514 232.298L249.372 227.018L249.379 227.01L248.869 226.718L240.732 222.015L240.229 221.723L237.897 220.372L237.769 220.297L234.567 222.15L234.072 222.434L233.322 222.871L226.167 227.018L226.159 227.01L225.657 227.303L225.199 227.564L217.467 232.042L216.972 232.328L207.972 237.533L207.462 237.825L200.179 242.039L199.677 242.325L193.272 246.037L192.762 246.331L177.664 255.059L182.397 257.798L182.899 258.09L207.462 272.287L207.972 272.588L217.174 277.905L227.344 283.793L227.847 284.078L237.642 289.748L237.769 289.815L243.784 286.343V312.638L222.837 324.758C221.952 324.391 220.722 324.428 219.927 324.885C219.049 325.396 219.049 326.22 219.927 326.73C220.812 327.233 222.229 327.233 223.114 326.73C223.909 326.273 223.977 325.56 223.339 325.043L244.294 312.937V302.198L259.962 311.258V321.443L225.792 341.198C224.914 340.838 223.684 340.868 222.889 341.333C222.004 341.836 222.004 342.66 222.889 343.171C223.774 343.681 225.192 343.681 226.077 343.171C226.864 342.713 226.939 342 226.302 341.491L260.344 321.803L260.464 321.728V310.965L244.294 301.613V286.043L252.867 281.086L253.369 280.8L259.789 277.081L260.284 276.796L267.567 272.588L268.077 272.287L275.607 267.931L276.117 267.638L282.754 263.798L283.257 263.513L292.602 258.104L293.472 257.602L297.867 255.059L290.539 250.823ZM237.769 289.23L178.669 255.059L237.769 220.883L296.854 255.059L237.769 289.23Z" fill="url(#paint2_linear_5164_14375)"/>
</mask>
<g mask="url(#mask1_5164_14375)">
<path d="M290.539 250.823L277.782 243.443L277.272 243.143L266.3 236.798L265.789 236.504L259.017 232.59L258.514 232.298L249.372 227.018L249.379 227.01L248.869 226.718L240.732 222.015L240.229 221.723L237.897 220.372L237.769 220.297L234.567 222.15L234.072 222.434L233.322 222.871L226.167 227.018L226.159 227.01L225.657 227.303L225.199 227.564L217.467 232.042L216.972 232.328L207.972 237.533L207.462 237.825L200.179 242.039L199.677 242.325L193.272 246.037L192.762 246.331L177.664 255.059L182.397 257.798L182.899 258.09L207.462 272.287L207.972 272.588L217.174 277.905L227.344 283.793L227.847 284.078L237.642 289.748L237.769 289.815L243.784 286.343V312.638L222.837 324.758C221.952 324.391 220.722 324.428 219.927 324.885C219.049 325.396 219.049 326.22 219.927 326.73C220.812 327.233 222.229 327.233 223.114 326.73C223.909 326.273 223.977 325.56 223.339 325.043L244.294 312.937V302.198L259.962 311.258V321.443L225.792 341.198C224.914 340.838 223.684 340.868 222.889 341.333C222.004 341.836 222.004 342.66 222.889 343.171C223.774 343.681 225.192 343.681 226.077 343.171C226.864 342.713 226.939 342 226.302 341.491L260.344 321.803L260.464 321.728V310.965L244.294 301.613V286.043L252.867 281.086L253.369 280.8L259.789 277.081L260.284 276.796L267.567 272.588L268.077 272.287L275.607 267.931L276.117 267.638L282.754 263.798L283.257 263.513L292.602 258.104L293.472 257.602L297.867 255.059L290.539 250.823ZM237.769 289.23L178.669 255.059L237.769 220.883L296.854 255.059L237.769 289.23Z" fill="url(#paint3_linear_5164_14375)"/>
</g>
<mask id="mask2_5164_14375" style="mask-type:luminance" maskUnits="userSpaceOnUse" x="89" y="169" width="119" height="69">
<path d="M89.5845 169.062L89.082 169.355L207.462 237.823L207.972 237.53L89.5845 169.062Z" fill="url(#paint4_linear_5164_14375)"/>
</mask>
<g mask="url(#mask2_5164_14375)">
<path d="M89.5845 169.062L89.082 169.355L207.462 237.823L207.972 237.53L89.5845 169.062Z" fill="url(#paint5_linear_5164_14375)"/>
</g>
<g opacity="0.272222">
<path d="M315.116 303.957C273.527 328.105 206.094 328.105 164.503 303.956C122.911 279.805 122.91 240.652 164.5 216.502C206.09 192.353 273.524 192.354 315.115 216.503C356.705 240.653 356.707 279.807 315.116 303.957Z" fill="url(#paint6_radial_5164_14375)"/>
</g>
<g opacity="0.105556">
<path d="M344.23 320.87C286.56 354.356 193.052 354.356 135.379 320.869C77.7054 287.379 77.7043 233.087 135.376 199.598C193.048 166.112 286.555 166.113 344.228 199.6C401.901 233.089 401.903 287.383 344.23 320.87Z" fill="url(#paint7_radial_5164_14375)"/>
</g>
<g opacity="0.438889">
<path d="M285.996 287.051C260.488 301.863 219.129 301.863 193.621 287.051C168.111 272.239 168.111 248.225 193.619 233.413C219.128 218.602 260.486 218.602 285.995 233.414C311.504 248.226 311.505 272.24 285.996 287.051Z" fill="url(#paint8_radial_5164_14375)"/>
</g>
<path d="M155.923 245.107L155.923 245.107C161.356 237.119 159.287 226.24 151.3 220.807C143.312 215.372 132.433 217.443 126.999 225.431L126.999 225.431C121.566 233.417 123.636 244.297 131.623 249.73C136.367 252.958 142.132 253.537 147.168 251.803C150.612 250.617 153.717 248.348 155.923 245.107Z" fill="url(#paint9_linear_5164_14375)" stroke="#1E1E1F" stroke-width="2"/>
<path d="M185.295 198.483C185.295 218.791 191.34 237.215 201.163 250.587C210.985 263.959 224.636 272.332 239.807 272.332C254.979 272.332 268.631 263.959 278.453 250.587C288.276 237.215 294.321 218.791 294.321 198.483C294.321 178.162 288.262 164.768 278.286 156.483C268.347 148.228 254.695 145.195 239.807 145.195C224.92 145.195 211.269 148.228 201.33 156.483C191.354 164.768 185.295 178.162 185.295 198.483Z" fill="url(#paint10_linear_5164_14375)" stroke="#282828" stroke-width="2"/>
<path d="M213.483 183.597L213.483 183.597C220.802 187.823 230.332 189.907 239.808 189.907C249.284 189.907 258.814 187.823 266.134 183.597L266.134 183.597C273.448 179.375 277.331 173.7 277.331 167.821C277.331 161.941 273.448 156.267 266.134 152.044L265.634 152.91L266.134 152.044C258.816 147.819 249.285 145.735 239.811 145.734H239.811C230.334 145.734 220.805 147.819 213.484 152.045C206.171 156.267 202.287 161.941 202.287 167.821C202.286 173.7 206.169 179.375 213.483 183.597Z" fill="url(#paint11_radial_5164_14375)" stroke="#282828" stroke-width="2"/>
<path d="M265.634 158.535C251.371 150.3 228.246 150.3 213.983 158.535C208.092 161.937 204.641 166.211 203.617 170.637C202.161 164.347 205.611 157.752 213.983 152.919C228.246 144.684 251.371 144.684 265.634 152.917C274.004 157.75 277.455 164.346 275.999 170.636C274.974 166.21 271.524 161.935 265.634 158.535Z" fill="white"/>
<path d="M182.107 119.384C182.107 150.078 206.99 174.961 237.686 174.961C268.381 174.961 293.265 150.078 293.265 119.384C293.265 88.6882 268.381 63.8047 237.686 63.8047C206.99 63.8047 182.107 88.6882 182.107 119.384Z" fill="url(#paint12_linear_5164_14375)" stroke="#282828" stroke-width="2"/>
<path d="M254.712 145.236C256.106 155.969 264.206 159.341 272.805 152.766C281.403 146.192 287.242 132.161 285.849 121.429C284.454 110.696 276.354 107.324 267.755 113.899C259.157 120.473 253.317 134.503 254.712 145.236Z" fill="#1BADA1"/>
<path d="M261.811 135.946C262.319 139.847 265.262 141.071 268.388 138.682C271.512 136.294 273.634 131.194 273.127 127.294C272.621 123.393 269.676 122.167 266.552 124.557C263.427 126.946 261.304 132.045 261.811 135.946Z" fill="white"/>
<path d="M268.679 151.203C277.277 144.628 283.117 130.598 281.723 119.866C281.155 115.49 279.47 112.339 277.093 110.586C281.588 111.008 284.992 114.821 285.851 121.43C287.245 132.163 281.405 146.194 272.807 152.767C267.714 156.661 262.796 157.065 259.342 154.517C262.145 154.781 265.375 153.729 268.679 151.203Z" fill="white"/>
<path d="M159.679 200.646C162.009 212.416 173.44 220.069 185.21 217.739C196.982 215.409 204.634 203.977 202.304 192.206L202.304 192.206C200.254 181.859 191.174 174.697 181.015 174.695H181.015C179.614 174.695 178.194 174.832 176.771 175.114C164.999 177.444 157.347 188.875 159.679 200.646ZM159.679 200.646L160.66 200.452L159.679 200.646Z" fill="url(#paint13_linear_5164_14375)" stroke="#1E1E1F" stroke-width="2"/>
<path d="M170.357 191.324L170.357 191.324C168.858 190.459 167.424 190.039 166.139 190.039C164.563 190.039 163.222 190.67 162.28 191.849C161.343 193.022 160.817 194.718 160.817 196.829C160.817 199.805 161.861 203.085 163.535 205.985C165.21 208.885 167.529 211.428 170.107 212.916C172.682 214.402 175.072 214.575 176.834 213.557C178.597 212.54 179.643 210.384 179.643 207.41C179.643 204.434 178.6 201.155 176.926 198.255C175.252 195.356 172.933 192.813 170.357 191.324Z" fill="url(#paint14_radial_5164_14375)" stroke="#282828" stroke-width="0.5"/>
<path d="M165.934 190.297C165.162 191.402 164.713 192.936 164.713 194.855C164.713 200.696 168.815 207.801 173.875 210.724C175.43 211.622 176.893 212.015 178.176 211.966C176.593 214.228 173.634 214.661 170.234 212.699C165.175 209.778 161.071 202.672 161.071 196.829C161.071 192.782 163.042 190.406 165.934 190.297Z" fill="white"/>
<path d="M169.27 260.324L169.27 260.324C170.503 252.652 177.439 247.316 185.057 247.952C185.432 247.983 185.809 248.029 186.185 248.09L186.186 248.09C187.647 248.325 189.024 248.766 190.294 249.381L190.294 249.382C196.002 252.151 199.477 258.417 198.419 265.005C198.419 265.005 198.419 265.005 198.419 265.005L197.432 264.846C196.227 272.349 188.476 288.261 180.971 287.055L169.27 260.324ZM169.27 260.324C168.633 264.294 169.481 270.81 171.402 276.453C172.367 279.288 173.626 281.972 175.158 284.044C176.678 286.1 178.565 287.681 180.813 288.042L169.27 260.324Z" fill="url(#paint15_linear_5164_14375)" stroke="#1E1E1F" stroke-width="2"/>
<path d="M190.052 251.675L190.052 251.675C188.733 250.884 187.034 250.401 185.251 250.252L185.251 250.252C182.836 250.05 180.339 250.467 178.515 251.478C176.929 252.358 176.238 253.465 176.22 254.481C176.203 255.496 176.856 256.626 178.411 257.561C179.964 258.493 182.042 258.996 184.155 259.032C186.269 259.068 188.363 258.637 189.947 257.758L190.052 251.675ZM190.052 251.675C191.607 252.609 192.26 253.739 192.242 254.755M190.052 251.675L192.242 254.755M192.242 254.755C192.225 255.771 191.533 256.878 189.947 257.758L192.242 254.755Z" fill="url(#paint16_radial_5164_14375)" stroke="#1E1E1F"/>
<path d="M192.343 256.194C191.983 255.385 191.269 254.613 190.19 253.965C186.899 251.989 181.509 251.896 178.152 253.759C177.121 254.331 176.405 255.021 175.998 255.76C175.26 254.105 176.016 252.291 178.27 251.04C181.627 249.178 187.017 249.271 190.308 251.246C192.587 252.615 193.26 254.528 192.343 256.194Z" fill="white"/>
<path d="M312.201 214.665C309.256 209.482 307.201 203.241 307.083 199.221L312.201 214.665ZM312.201 214.665C313.681 217.269 315.421 219.669 317.315 221.417M312.201 214.665L317.315 221.417M317.315 221.417C319.194 223.152 321.344 224.351 323.619 224.284L317.315 221.417ZM323.62 224.284C325.914 224.216 327.869 222.878 329.461 221.018C331.059 219.151 332.392 216.647 333.454 213.967C335.574 208.618 336.71 202.313 336.594 198.354C336.399 191.686 331.808 186.182 325.684 184.532C324.322 184.166 322.885 183.99 321.407 184.034C321.136 184.041 320.864 184.056 320.595 184.078C312.833 184.727 306.852 191.344 307.083 199.22L323.62 224.284Z" fill="url(#paint17_linear_5164_14375)" stroke="#1E1E1F" stroke-width="2"/>
<path d="M314.428 188.706L314.428 188.706C316.122 187.293 318.658 186.393 321.189 186.181C322.878 186.04 324.539 186.209 325.919 186.715L325.919 186.715C327.646 187.35 328.545 188.365 328.728 189.426C328.912 190.487 328.407 191.745 326.994 192.924C325.582 194.101 323.583 194.924 321.485 195.287C319.386 195.651 317.227 195.548 315.502 194.914C313.775 194.279 312.877 193.264 312.693 192.203C312.509 191.143 313.014 189.885 314.428 188.706Z" fill="url(#paint18_radial_5164_14375)" stroke="#282828" stroke-width="0.75"/>
<path d="M328.972 190.842C328.465 190.116 327.621 189.491 326.439 189.057C322.835 187.733 317.524 188.652 314.577 191.111C313.671 191.866 313.097 192.678 312.836 193.481C311.8 191.994 312.203 190.07 314.184 188.418C317.132 185.959 322.443 185.041 326.045 186.364C328.54 187.282 329.56 189.034 328.972 190.842Z" fill="white"/>
<path d="M191.627 127.39L211.398 138.804V115.977L191.627 104.562V127.39Z" fill="#1BADA1"/>
<path d="M173.527 117.622L175.693 121.372V139.203L191.137 148.121L193.299 151.863L195.463 150.618V127.789L175.693 116.375L173.527 117.622Z" fill="url(#paint19_linear_5164_14375)"/>
<path d="M173.527 140.452L193.299 151.866V129.039L173.527 117.625V140.452Z" fill="url(#paint20_linear_5164_14375)"/>
<path d="M207.617 127.78L209.387 128.803V126.757L207.617 125.734V127.78Z" fill="white"/>
<path d="M203.861 122.991L205.633 124.014V121.968L203.861 120.945V122.991Z" fill="white"/>
<path d="M200.094 128.804L201.867 129.827V127.781L200.094 126.758V128.804Z" fill="white"/>
<path d="M200.094 123.444L201.867 124.467V122.422L200.094 121.398V123.444Z" fill="white"/>
<g opacity="0.0888868">
<path d="M292.367 151.078V153.008L286.016 156.675V154.745L292.367 151.078Z" fill="white"/>
<path d="M300.754 146.234V148.165L294.402 151.831V149.901L300.754 146.234Z" fill="white"/>
<path d="M305.196 143.672V145.602L302.613 147.093V145.162L305.196 143.672Z" fill="white"/>
</g>
<g opacity="0.977778">
<path d="M293.034 146.164V148.094L285.781 152.281V150.351L293.034 146.164Z" fill="white"/>
<path d="M298.608 142.945V144.874L294.775 147.087V145.157L298.608 142.945Z" fill="white"/>
</g>
<g opacity="0.866666">
<path d="M279.396 149.508V151.438L277.671 152.434L276.756 152.961L273.046 155.104L271.32 156.1V154.171L277.671 150.504L279.396 149.508Z" fill="white"/>
<path d="M283.84 146.945V148.875L281.258 150.366V148.436L283.84 146.945Z" fill="white"/>
<path d="M288.281 144.383V146.313L285.699 147.804V145.873L288.281 144.383Z" fill="white"/>
<path d="M298.535 138.461V140.391L290.129 145.243V143.313L298.535 138.461Z" fill="white"/>
</g>
<g opacity="0.755555">
<path d="M272.831 148.773V150.703L265.578 154.89V152.961L272.831 148.773Z" fill="white"/>
<path d="M278.401 145.555V147.485L274.568 149.698V147.768L278.401 145.555Z" fill="white"/>
<path d="M287.465 140.328V142.258L280.213 146.445V144.515L287.465 140.328Z" fill="white"/>
<path d="M293.038 137.109V139.039L289.205 141.252V139.322L293.038 137.109Z" fill="white"/>
<path d="M298.608 133.891V135.82L294.775 138.034V136.104L298.608 133.891Z" fill="white"/>
</g>
<g opacity="0.644444">
<path d="M261.816 150.609V152.539L254.562 156.726V154.797L261.816 150.609Z" fill="white"/>
<path d="M267.389 147.391V149.32L263.557 151.534V149.604L267.389 147.391Z" fill="white"/>
<path d="M272.962 144.172V146.102L269.129 148.315V146.385L272.962 144.172Z" fill="white"/>
<path d="M283.045 138.352V140.281L274.639 145.134V143.204L283.045 138.352Z" fill="white"/>
<path d="M293.301 132.43V134.36L284.896 139.213V137.282L293.301 132.43Z" fill="white"/>
<path d="M298.609 129.367V131.297L295.15 133.294V131.364L298.609 129.367Z" fill="white"/>
</g>
<g opacity="0.533332">
<path d="M264.08 144.781V146.712L262.354 147.707V147.708L259.064 149.608L257.745 150.37L256.004 151.375V149.445L257.73 148.448L264.08 144.781Z" fill="white"/>
<path d="M268.522 142.219V144.148L265.941 145.639V143.709L268.522 142.219Z" fill="white"/>
<path d="M277.481 137.047V138.977L270.229 143.164V141.234L277.481 137.047Z" fill="white"/>
<path d="M283.049 133.828V135.759L279.217 137.971V136.041L283.049 133.828Z" fill="white"/>
<path d="M288.62 130.609V132.539L284.787 134.752V132.822L288.62 130.609Z" fill="white"/>
<path d="M298.611 124.844V126.774L290.33 131.554V129.624L298.611 124.844Z" fill="white"/>
</g>
<g opacity="0.422221">
<path d="M293.704 123.148V125.079L289.871 127.291V125.362L293.704 123.148Z" fill="white"/>
<path d="M298.609 120.32V122.25L295.344 124.136V122.206L298.609 120.32Z" fill="white"/>
</g>
<g opacity="0.31111">
<path d="M261.232 137.375V139.305L257.773 141.302V139.372L261.232 137.375Z" fill="white"/>
<path d="M270.354 132.109V134.039L263.1 138.226V136.297L270.354 132.109Z" fill="white"/>
<path d="M275.925 128.891V130.82L272.092 133.034V131.104L275.925 128.891Z" fill="white"/>
<path d="M281.717 125.547V127.477L277.885 129.69V127.76L281.717 125.547Z" fill="white"/>
<path d="M298.61 115.797V117.727L283.549 126.423V124.493L298.61 115.797Z" fill="white"/>
</g>
<g opacity="0.199998">
<path d="M293.704 114.102V116.031L289.871 118.243V116.313L293.704 114.102Z" fill="white"/>
<path d="M298.609 111.266V113.195L295.344 115.081V113.151L298.609 111.266Z" fill="white"/>
</g>
<g opacity="0.0888868">
<path d="M294.899 108.891V110.821L291.066 113.034V111.104L294.899 108.891Z" fill="white"/>
<path d="M305.272 102.898V104.828L297.605 109.255V107.324L305.272 102.898Z" fill="white"/>
</g>
<g opacity="0.6">
<path d="M314.913 133.826C313.185 139.405 310.765 145.105 307.649 150.715C293.053 176.988 268.698 191.33 253.251 182.748C237.803 174.167 237.112 145.91 251.708 119.636C256.163 111.617 261.526 104.71 267.269 99.2266" stroke="white" stroke-width="3" stroke-linecap="round" stroke-linejoin="round"/>
</g>
<g opacity="0.5">
<path d="M312.828 93.7578C316.526 99.0648 318.308 106.425 318.149 114.834" stroke="white" stroke-width="3" stroke-linecap="round" stroke-linejoin="round"/>
</g>
<g opacity="0.4">
<path d="M288.213 86.3019C293.012 84.9151 297.649 84.7141 301.837 85.8669" stroke="white" stroke-width="3" stroke-linecap="round" stroke-linejoin="round"/>
</g>
<g opacity="0.24">
<path d="M233.056 172.696C228.601 156.841 231.82 135.224 243.127 114.87C260.775 83.1022 291.444 66.438 311.627 77.6505C316.072 80.1202 319.639 83.736 322.308 88.2127" stroke="white" stroke-width="4.5" stroke-linecap="round" stroke-linejoin="round"/>
</g>
<defs>
<linearGradient id="paint0_linear_5164_14375" x1="446.147" y1="132.983" x2="408.398" y2="157.832" gradientUnits="userSpaceOnUse">
<stop stop-color="white"/>
<stop offset="0.5" stop-color="white" stop-opacity="0.5"/>
<stop offset="1" stop-color="white" stop-opacity="0"/>
</linearGradient>
<linearGradient id="paint1_linear_5164_14375" x1="446.147" y1="132.983" x2="408.398" y2="157.832" gradientUnits="userSpaceOnUse">
<stop stop-color="#80FBFF"/>
<stop offset="0.02" stop-color="#BE344B"/>
<stop offset="0.04" stop-color="#80FBFF"/>
<stop offset="0.52" stop-color="#80FBFF"/>
<stop offset="1" stop-color="#80FBFF"/>
</linearGradient>
<linearGradient id="paint2_linear_5164_14375" x1="242.919" y1="378.156" x2="243.496" y2="335.67" gradientUnits="userSpaceOnUse">
<stop stop-color="white"/>
<stop offset="0.5" stop-color="white" stop-opacity="0.5"/>
<stop offset="1" stop-color="white" stop-opacity="0"/>
</linearGradient>
<linearGradient id="paint3_linear_5164_14375" x1="242.919" y1="378.156" x2="243.496" y2="335.67" gradientUnits="userSpaceOnUse">
<stop stop-color="#80FBFF"/>
<stop offset="0.02" stop-color="#80FBFF"/>
<stop offset="0.04" stop-color="#80FBFF"/>
<stop offset="0.52" stop-color="#80FBFF"/>
<stop offset="1" stop-color="#80FBFF"/>
</linearGradient>
<linearGradient id="paint4_linear_5164_14375" x1="53.9817" y1="137.498" x2="104.795" y2="173.172" gradientUnits="userSpaceOnUse">
<stop stop-color="white"/>
<stop offset="0.5" stop-color="white" stop-opacity="0.5"/>
<stop offset="1" stop-color="white" stop-opacity="0"/>
</linearGradient>
<linearGradient id="paint5_linear_5164_14375" x1="53.9817" y1="137.498" x2="104.795" y2="173.172" gradientUnits="userSpaceOnUse">
<stop stop-color="#80FBFF"/>
<stop offset="0.02" stop-color="#BE344B"/>
<stop offset="0.04" stop-color="#80FBFF"/>
<stop offset="0.52" stop-color="#80FBFF"/>
<stop offset="1" stop-color="#80FBFF"/>
</linearGradient>
<radialGradient id="paint6_radial_5164_14375" cx="0" cy="0" r="1" gradientUnits="userSpaceOnUse" gradientTransform="translate(237.079 262.697) scale(108.861 108.861)">
<stop stop-color="#245D78" stop-opacity="0.3"/>
<stop offset="0.5" stop-color="#204254" stop-opacity="0.3"/>
<stop offset="1" stop-color="#1C2630" stop-opacity="0.3"/>
</radialGradient>
<radialGradient id="paint7_radial_5164_14375" cx="0" cy="0" r="1" gradientUnits="userSpaceOnUse" gradientTransform="translate(236.018 263.656) scale(150.955 150.955)">
<stop stop-color="#245D78" stop-opacity="0.3"/>
<stop offset="0.5" stop-color="#204254" stop-opacity="0.3"/>
<stop offset="1" stop-color="#1C2630" stop-opacity="0.3"/>
</radialGradient>
<radialGradient id="paint8_radial_5164_14375" cx="0" cy="0" r="1" gradientUnits="userSpaceOnUse" gradientTransform="translate(238.134 261.746) scale(66.7678 66.7678)">
<stop stop-color="#245D78" stop-opacity="0.3"/>
<stop offset="0.5" stop-color="#204254" stop-opacity="0.3"/>
<stop offset="1" stop-color="#1C2630" stop-opacity="0.3"/>
</radialGradient>
<linearGradient id="paint9_linear_5164_14375" x1="158.638" y1="238.96" x2="113.491" y2="230.99" gradientUnits="userSpaceOnUse">
<stop stop-color="white"/>
<stop offset="0.5" stop-color="#C7C7C7"/>
<stop offset="1" stop-color="#B2B2B2"/>
</linearGradient>
<linearGradient id="paint10_linear_5164_14375" x1="216.7" y1="147.025" x2="257.386" y2="274.686" gradientUnits="userSpaceOnUse">
<stop stop-color="#B2B2B2"/>
<stop offset="0.5" stop-color="#C7C7C7"/>
<stop offset="1" stop-color="white"/>
</linearGradient>
<radialGradient id="paint11_radial_5164_14375" cx="0" cy="0" r="1" gradientUnits="userSpaceOnUse" gradientTransform="translate(239.775 178.415) scale(53.7166 53.7166)">
<stop stop-color="#B2B2B2"/>
<stop offset="0.5" stop-color="#84898A"/>
<stop offset="1" stop-color="#A8A8A8"/>
</radialGradient>
<linearGradient id="paint12_linear_5164_14375" x1="207.455" y1="69.1007" x2="261.281" y2="171.195" gradientUnits="userSpaceOnUse">
<stop stop-color="white"/>
<stop offset="0.5" stop-color="#C7C7C7"/>
<stop offset="1" stop-color="#B2B2B2"/>
</linearGradient>
<linearGradient id="paint13_linear_5164_14375" x1="158.867" y1="176.249" x2="199.118" y2="214.889" gradientUnits="userSpaceOnUse">
<stop stop-color="#F9F9F9"/>
<stop offset="0.5" stop-color="#C7C7C7"/>
<stop offset="1" stop-color="#1FDCF7"/>
</linearGradient>
<radialGradient id="paint14_radial_5164_14375" cx="0" cy="0" r="1" gradientUnits="userSpaceOnUse" gradientTransform="translate(175.912 199.669) scale(22.0706 22.0706)">
<stop stop-color="white"/>
<stop offset="0.5" stop-color="#84898A"/>
<stop offset="1" stop-color="#B2B2B2"/>
</radialGradient>
<linearGradient id="paint15_linear_5164_14375" x1="179.358" y1="248.358" x2="183.95" y2="290.019" gradientUnits="userSpaceOnUse">
<stop stop-color="#B2B2B2"/>
<stop offset="0.5" stop-color="#C7C7C7"/>
<stop offset="1" stop-color="white"/>
</linearGradient>
<radialGradient id="paint16_radial_5164_14375" cx="0" cy="0" r="1" gradientUnits="userSpaceOnUse" gradientTransform="translate(182.834 258.584) rotate(4.77375) scale(13.7661)">
<stop stop-color="white"/>
<stop offset="0.5" stop-color="#84898A"/>
<stop offset="1" stop-color="#A8A8A8"/>
</radialGradient>
<linearGradient id="paint17_linear_5164_14375" x1="314.093" y1="184.074" x2="332.949" y2="226.057" gradientUnits="userSpaceOnUse">
<stop stop-color="#B2B2B2"/>
<stop offset="0.5" stop-color="#C7C7C7"/>
<stop offset="1" stop-color="white"/>
</linearGradient>
<radialGradient id="paint18_radial_5164_14375" cx="0" cy="0" r="1" gradientUnits="userSpaceOnUse" gradientTransform="translate(322.192 196.204) rotate(-4.77375) scale(16.2227)">
<stop stop-color="white"/>
<stop offset="0.5" stop-color="#84898A"/>
<stop offset="1" stop-color="#A8A8A8"/>
</radialGradient>
<linearGradient id="paint19_linear_5164_14375" x1="182.381" y1="116.674" x2="182.526" y2="168.955" gradientUnits="userSpaceOnUse">
<stop stop-color="white"/>
<stop offset="0.5" stop-color="#F2F2F2"/>
<stop offset="1" stop-color="white"/>
</linearGradient>
<linearGradient id="paint20_linear_5164_14375" x1="176.614" y1="91.8932" x2="185.364" y2="165.81" gradientUnits="userSpaceOnUse">
<stop stop-color="#B2B2B2"/>
<stop offset="0.5" stop-color="#84898A"/>
<stop offset="1" stop-color="#B8B8B8"/>
</linearGradient>
</defs>
</svg>
