<svg width="1552" height="1253" viewBox="0 0 1552 1253" fill="none" xmlns="http://www.w3.org/2000/svg">
<path d="M903.27 686.295L660.281 827.12L422.147 671.897L665.17 531.08L903.27 686.295ZM1548.46 457.656C1544.95 455.36 1539.12 455.186 1535.5 457.268C1532.24 459.163 1531.9 462.237 1534.46 464.54L1487.96 491.503L1375.05 488.082L1169.43 607.254L990.444 601.898L877.831 667.184L826.424 633.657L957.428 557.712L1096.97 561.93L1256.9 469.234C1260.42 470.942 1265.44 470.897 1268.73 469.007C1272.32 466.923 1272.38 463.376 1268.87 461.045C1265.31 458.744 1259.49 458.57 1255.9 460.657C1252.61 462.547 1252.3 465.622 1254.83 467.928L1096.45 559.688L961.018 555.635L1133.49 455.7L1134.01 455.368L1135.4 371.013L1393.45 221.467C1397.01 223.176 1402.03 223.128 1405.29 221.272C1408.91 219.157 1408.97 215.607 1405.42 213.271C1401.87 210.98 1396.08 210.807 1392.45 212.883C1389.19 214.778 1388.85 217.852 1391.42 220.155L1133.89 369.365L1133.37 369.704L1131.98 454.056L824.39 632.303L780.166 603.486L964.518 496.652L965.036 496.356L967.836 326.789L1131.99 231.642C1135.55 233.351 1140.57 233.306 1143.82 231.418C1147.45 229.332 1147.51 225.743 1143.96 223.455C1140.41 221.116 1134.62 220.943 1130.99 223.068C1127.74 224.956 1127.39 228.03 1129.96 230.294L966.324 325.141L965.806 325.437L963.006 495.005L778.136 602.139L750.839 584.372L887.798 504.975L891.081 306.216L956.935 268.077L958.17 193.328L1016.32 159.609C1019.85 161.314 1024.87 161.311 1028.17 159.417C1031.75 157.298 1031.81 153.741 1028.3 151.41C1024.74 149.122 1018.92 148.948 1015.33 151.022C1012.08 152.92 1011.73 156.036 1014.26 158.293L956.139 191.98L954.904 266.768L889.05 304.901L885.768 503.627L748.812 583.024L711.98 559.041L816.789 498.283L822.235 166.255L820.18 166.194L816.968 360.7L765.494 327.139L767.296 218.076C769.273 218.015 771.226 217.567 772.784 216.677C776.402 214.562 776.46 211.012 772.916 208.676C769.358 206.385 763.572 206.212 759.943 208.288C756.321 210.409 756.263 213.96 759.81 216.289C761.331 217.27 763.231 217.834 765.247 218.015L763.425 328.326L816.927 363.202L815.958 421.867L748.243 377.706C750.662 375.552 750.344 372.575 747.222 370.528C743.674 368.231 737.852 368.057 734.261 370.14C730.635 372.216 730.576 375.805 734.13 378.102C737.393 380.267 742.594 380.54 746.207 378.932L815.917 424.368L814.752 496.971L709.949 557.69L677.14 536.32L728.085 506.799L728.84 461.092L716.219 452.901L716.604 429.593L626.63 370.94L627.283 331.434L554.055 283.712C556.693 281.564 556.451 278.469 553.259 276.385C549.705 274.088 543.919 273.915 540.295 275.997C536.671 278.111 536.612 281.662 540.163 284.001C543.355 286.047 548.368 286.388 551.979 284.897L625.216 332.663L624.564 372.126L714.535 430.786L714.192 451.554L562.988 352.986C565.406 350.868 565.089 347.855 561.967 345.844C558.419 343.512 552.63 343.338 549.006 345.456C545.379 347.535 545.321 351.086 548.874 353.418C552.138 355.547 557.336 355.82 560.952 354.215L682.181 433.25L620.72 431.41L550.977 385.937C553.612 383.793 553.369 380.701 550.178 378.613C546.63 376.317 540.841 376.143 537.214 378.226C533.587 380.34 533.528 383.891 537.082 386.227C540.273 388.311 545.287 388.621 548.904 387.123L620.137 433.58L685.509 435.537L685.511 435.423L726.764 462.314L726.051 505.491L675.112 535.012L665.722 528.874L665.211 528.543L652.085 536.152L442.511 399.527L442.29 399.397L384.538 397.669C384.227 396.567 383.401 395.529 382.059 394.666C378.544 392.377 372.718 392.202 369.092 394.278C365.504 396.4 365.445 399.954 368.96 402.282C372.514 404.579 378.339 404.754 381.927 402.67C383.296 401.889 384.155 400.901 384.502 399.861L441.707 401.573L650.009 537.345L617.489 556.214L443.338 442.665C445.976 440.553 445.73 437.462 442.542 435.374C438.985 433.041 433.199 432.868 429.578 434.986C425.951 437.068 425.892 440.661 429.447 442.948C432.635 445.036 437.649 445.342 441.262 443.893L615.419 557.393L581.751 576.933L335.639 416.48L337.754 288.403L456.217 219.782L564.145 223.012L650.494 172.989C654.055 174.694 659.075 174.65 662.332 172.758C665.959 170.679 666.018 167.086 662.464 164.796C658.912 162.499 653.123 162.326 649.5 164.408C646.243 166.299 645.901 169.374 648.463 171.68L563.631 220.806L459.767 217.697L603.718 134.294L604.233 133.994L606.117 19.9017C608.137 19.8419 610.051 19.3564 611.603 18.4603C615.229 16.3847 615.289 12.7919 611.734 10.4981C608.183 8.20776 602.394 8.03452 598.77 10.1102C595.146 12.1891 595.087 15.782 598.639 18.0724C600.165 19.0605 602.095 19.6611 604.068 19.8404L602.205 132.646L362.877 271.35L218.597 177.329L220.263 76.4583L117.78 9.65939C120.418 7.55095 120.175 4.45608 116.984 2.37149C113.433 0.0388396 107.65 -0.134214 104.02 1.98353C100.393 4.05909 100.334 7.65521 103.889 9.94567C107.08 12.0335 112.13 12.3374 115.713 10.8878L218.193 77.6867L216.528 178.512L360.807 272.579L336.244 286.801L335.726 287.097L334.063 387.805L292.481 360.709L293.52 297.782L208.907 242.649C211.545 240.499 211.303 237.404 208.115 235.323C204.563 233.026 198.774 232.852 195.148 234.935C191.52 237.052 191.462 240.6 195.016 242.932C198.207 245.017 203.221 245.326 206.838 243.832L291.45 299.013L290.411 361.895L334.021 390.339L333.569 417.708L579.679 578.116L542.684 599.549L65.6149 288.579L67.3914 181.004L13.6654 146.007L13.6243 148.499L65.319 182.193L63.5425 289.769L540.577 600.773L510.644 618.117L264.786 457.827L264.572 457.697L83.8338 452.256L9.40916 403.743L9.36721 406.284L82.9936 454.298L83.2475 454.461L263.986 459.87L508.572 619.303L482.232 634.603L249.572 482.911L249.318 482.748L41.9128 476.541L8.5653 454.843L8.52404 457.341L41.0757 478.586L41.3303 478.708L248.732 484.953L283.17 507.386L7.83366 499.146L7.79761 501.329L286.688 509.675L373.473 566.244L338.658 586.41L277.573 584.582L219.743 618.083C216.185 616.371 211.166 616.415 207.909 618.31C204.282 620.386 204.223 623.943 207.777 626.272C211.325 628.566 217.111 628.739 220.741 626.66C223.998 624.766 224.342 621.691 221.777 619.395L278.086 586.788L335.068 588.493L200.555 666.478L77.3878 662.792L9.37676 618.427C12.0174 616.312 11.7752 613.221 8.58084 611.133C7.82219 610.642 6.95175 610.262 6.00367 609.96L5.83731 620.034C6.35282 619.894 6.86699 619.834 7.30987 619.652L76.5482 664.795L76.8021 664.959L201.068 668.678L375.504 567.56L448.152 614.917L407.605 613.704L374.684 632.792C371.123 631.047 365.991 631.049 362.694 632.94C359.073 635.061 359.015 638.608 362.562 640.941C366.083 643.237 371.906 643.411 375.532 641.329C378.75 639.436 379.126 636.435 376.674 634.141L408.122 615.907L451.667 617.21L480.163 635.795L419.597 670.888L418.046 671.775L437.116 684.215L330.007 746.272L294.669 745.215L252.872 717.956C255.47 715.844 255.27 712.753 252.039 710.664C248.522 708.333 242.697 708.158 239.075 710.276C235.485 712.356 235.426 715.949 238.944 718.242C242.166 720.327 247.186 720.633 250.759 719.18L293.829 747.224L294.046 747.384L330.523 748.475L408.363 703.395L407.647 746.756L334.692 789.061C331.128 787.352 326.108 787.397 322.814 789.287C319.224 791.37 319.165 794.963 322.683 797.249C326.237 799.546 332.06 799.721 335.65 797.637C338.904 795.746 339.248 792.672 336.72 790.366L409.671 748.107L410.43 702.169L439.144 685.527L538.146 750.041L491.274 777.223L431.138 775.423L335.058 831.093L262.873 828.933L163.577 764.176C166.18 762.07 165.939 758.936 162.751 756.845C159.233 754.559 153.41 754.385 149.784 756.457C146.196 758.582 146.137 762.133 149.652 764.461C152.876 766.553 157.893 766.86 161.474 765.364L262.071 830.934L262.288 831.099L335.568 833.292L431.648 777.623L487.684 779.3L206.182 942.444L9.33151 936.553L0.526278 941.64L0.485077 944.134L9.84511 938.75L206.695 944.64L540.176 751.389L577.262 775.542L240.564 970.654L240.046 970.954L238.022 1093.51L122.85 1160.29C119.292 1158.58 114.269 1158.62 110.978 1160.52C107.388 1162.6 107.329 1166.19 110.847 1168.48C114.398 1170.78 120.218 1170.95 123.811 1168.87C127.105 1166.97 127.412 1163.9 124.883 1161.64L240.053 1094.87L242.077 972.302L579.289 776.893L618.221 802.271L420.743 916.721L420.225 917.018L418.488 1022.21L749.934 1238.3L764.944 1238.75L764.808 1238.67C761.61 1236.58 756.6 1236.23 752.986 1237.73L508.579 1078.38L582.778 1080.6L714.588 1166.56C711.95 1168.66 712.192 1171.76 715.384 1173.84C718.932 1176.14 724.755 1176.31 728.348 1174.23C731.974 1172.16 732.034 1168.56 728.479 1166.26C725.291 1164.18 720.275 1163.84 716.654 1165.33L583.618 1078.59L583.364 1078.43L505.061 1076.08L420.563 1021.03L422.258 918.366L581.221 826.194L580.359 878.381L482.175 935.311L481.303 988.129C479.282 988.224 477.338 988.67 475.82 989.567C472.194 991.643 472.134 995.236 475.689 997.529C479.206 999.858 485.032 1000.03 488.653 997.917C492.243 995.837 492.302 992.244 488.784 989.955C487.264 988.967 485.331 988.405 483.355 988.19L484.206 936.626L582.394 879.694L583.297 825.008L620.255 803.577L659.734 829.323L660.239 829.65L684.993 815.317L683.112 929.224L596.947 979.171C593.38 977.465 588.364 977.467 585.107 979.362C581.482 981.48 581.424 985.031 584.975 987.364C588.529 989.657 594.315 989.83 597.942 987.752C601.196 985.86 601.54 982.779 598.978 980.48L685.136 930.571L685.904 884.085L749.056 925.217L748.328 969.326L607.819 1050.73C604.257 1049.06 599.238 1049.07 595.981 1050.96C592.358 1053.04 592.298 1056.63 595.85 1058.93C599.404 1061.26 605.19 1061.43 608.811 1059.31C612.071 1057.42 612.415 1054.34 609.847 1052.07L749.844 970.937L750.362 970.638L751.132 924.031L685.946 881.541L687.06 814.095L722.322 793.67L751.541 812.7L750.859 853.963L795.159 882.817C792.521 884.971 792.763 888.063 795.954 890.147C799.506 892.438 805.291 892.611 808.918 890.535C812.506 888.416 812.564 884.862 809.05 882.57C805.861 880.488 800.808 880.139 797.228 881.631L752.928 852.773L753.568 814.051L850.182 877.005L848.688 967.447L700.337 1053.38L699.816 1053.68L699.253 1087.75L781.472 1141.33C778.837 1143.45 779.077 1146.54 782.268 1148.62C785.822 1150.95 791.605 1151.13 795.232 1149.01C798.859 1146.94 798.918 1143.34 795.363 1141.05C792.175 1138.96 787.158 1138.66 783.545 1140.11L701.326 1086.53L701.846 1055.03L850.201 969.059L850.719 968.759L852.254 875.822L724.394 792.481L750.771 777.179L916.553 885.283L913.753 1054.84L962.144 1086.36L959.57 1242.27L963.299 1244.69L967.409 1244.81L961.642 1241.08L964.175 1087.71L1216.63 1252.27L1220.73 1252.39L915.82 1053.62L918.62 884.055L752.843 775.992L782.773 758.648L944.164 863.846L943.633 864.769L1097.16 964.892L1096.82 985.731L1127.99 1006.07L1127.01 1065.75L1356.26 1215.2C1353.62 1217.35 1353.87 1220.44 1357.06 1222.53C1360.57 1224.82 1366.39 1225 1370.02 1222.92C1373.64 1220.8 1373.7 1217.25 1370.15 1214.95C1366.96 1212.87 1361.91 1212.52 1358.33 1214.02L1129.08 1064.57L1130.02 1007.38L1169.72 1033.26C1167.08 1035.4 1167.32 1038.49 1170.51 1040.58C1174.07 1042.87 1179.85 1043.05 1183.48 1040.97C1187.1 1038.85 1187.16 1035.3 1183.61 1032.97C1180.42 1030.88 1175.4 1030.57 1171.79 1032.06L1098.88 984.542L1099.23 963.663L946.938 864.403L1018.39 866.542L1322.98 1065.06L1322.16 1114.59L1442.84 1193.27C1440.21 1195.37 1440.45 1198.47 1443.64 1200.55C1447.19 1202.89 1452.98 1203.06 1456.6 1200.94C1460.23 1198.86 1460.29 1195.28 1456.73 1192.98C1453.55 1190.89 1448.49 1190.55 1444.91 1192.04L1324.23 1113.36L1325.05 1063.87L1022.49 866.664L1230.66 872.894L1408.01 988.524C1406.63 989.461 1405.81 990.724 1405.79 992.127C1405.74 995.291 1409.79 997.951 1414.81 998.101C1417.12 998.17 1419.18 997.718 1420.8 996.834L1422.73 995.52C1423.55 994.687 1424 993.725 1424.02 992.673C1424.07 989.509 1420.01 986.849 1415 986.699C1413.28 986.647 1411.66 986.914 1410.26 987.421L1231.46 870.841L1231.25 870.718L945.475 862.166L784.846 757.423L815.846 739.445L932.321 815.376L932.538 815.539L1263.65 825.448L1493.42 975.222C1490.78 977.37 1491.02 980.461 1494.21 982.546C1497.77 984.846 1503.55 985.019 1507.17 982.934C1510.8 980.82 1510.86 977.272 1507.3 974.933C1504.13 972.852 1499.1 972.539 1495.49 974.036L1264.46 823.405L1264.24 823.281L1019.34 815.952L1084.12 778.366L1257.39 783.551C1257.7 784.613 1258.52 785.658 1259.83 786.52C1263.38 788.846 1269.2 789.02 1272.79 786.908C1276.42 784.822 1276.48 781.233 1272.92 778.946C1269.41 776.647 1263.58 776.472 1259.96 778.558C1258.62 779.337 1257.77 780.322 1257.42 781.368L1083.61 776.166L1015.2 815.828L933.124 813.372L817.918 738.262L845.217 722.438L947.161 788.912L947.416 789.04L988.872 790.281L1073.92 741.041L1327.73 748.637L1488.33 655.571C1491.85 657.201 1496.76 657.114 1499.98 655.257C1503.61 653.181 1503.67 649.589 1500.11 647.295C1496.56 644.959 1490.77 644.786 1487.15 646.907C1483.86 648.798 1483.55 651.957 1486.26 654.258L1327.21 746.434L1073.41 738.839L988.362 788.075L948.001 786.867L873.972 738.653L911.368 739.772L947.22 763.144L947.474 763.307L975.783 764.155L1039.45 727.237C1042.98 728.867 1047.89 728.78 1051.11 726.926C1054.7 724.843 1054.76 721.25 1051.24 718.961C1047.69 716.625 1041.87 716.451 1038.28 718.573C1034.95 720.462 1034.68 723.659 1037.39 725.924L975.267 761.913L948.06 761.099L912.171 737.725L911.954 737.56L870.464 736.318L847.295 721.256L885.737 698.976L941.84 700.655L1011.99 659.989C1015.54 661.697 1020.56 661.646 1023.82 659.754C1027.45 657.679 1027.51 654.125 1023.95 651.792C1020.44 649.503 1014.61 649.329 1010.99 651.404C1007.73 653.296 1007.39 656.37 1009.95 658.676L941.327 698.449L889.318 696.892L905.819 687.307L907.373 686.418L879.896 668.487L955.843 624.448L1034.96 626.816L1117.5 680.638C1114.9 682.787 1115.14 685.882 1118.33 687.966C1121.88 690.263 1127.67 690.436 1131.3 688.354C1134.89 686.235 1134.95 682.688 1131.43 680.35C1128.24 678.304 1123.19 677.961 1119.61 679.453L1077.05 651.74L1233.07 656.409L1278.39 630.155L1367.78 632.83C1368.1 633.896 1368.92 634.931 1370.22 635.789C1373.78 638.09 1379.6 638.264 1383.19 636.178C1386.81 634.066 1386.87 630.515 1383.32 628.176C1379.81 625.887 1373.98 625.713 1370.36 627.788C1369.03 628.568 1368.17 629.559 1367.82 630.608L1277.87 627.917L1232.55 654.209L1073.53 649.45L1035.76 624.805L1035.54 624.646L959.436 622.369L990.957 604.094L1169.94 609.45L1216.59 582.414L1353.56 586.513L1419.71 548.194C1423.24 549.902 1428.29 549.855 1431.55 547.96C1435.14 545.883 1435.2 542.332 1431.68 539.998C1428.12 537.707 1422.3 537.533 1418.72 539.61C1415.46 541.501 1415.11 544.578 1417.68 546.878L1353.01 584.312L1220.18 580.337L1375.56 490.281L1488.47 493.699L1536.49 465.846C1540.06 467.555 1545.07 467.513 1548.33 465.657C1551.96 463.536 1552.02 459.985 1548.46 457.656Z" fill="#505050"/>
</svg>
