<svg width="12" height="36" viewBox="0 0 12 36" fill="none" xmlns="http://www.w3.org/2000/svg">
<path d="M11.5657 34.5573C11.2831 35.3064 10.42 35.661 9.72594 35.2618C7.10639 33.7553 4.85311 31.5523 3.17242 28.8389C1.21637 25.6811 0.11832 21.9651 0.0090332 18.1335C-0.100254 14.3019 0.783821 10.5162 2.55599 7.22702C4.07927 4.39981 6.20354 2.0419 8.73328 0.353998C9.39966 -0.0906327 10.285 0.208917 10.6114 0.940502C10.9013 1.59024 10.641 2.34842 10.0486 2.74247C7.8651 4.19488 6.03178 6.22715 4.71815 8.66524C3.19408 11.4939 2.43378 14.7497 2.52777 18.0448C2.62175 21.34 3.56607 24.5357 5.24828 27.2515C6.69357 29.5848 8.63122 31.4793 10.8838 32.7749C11.5079 33.1338 11.8198 33.8837 11.5657 34.5573Z" fill="#C2FFFA"/>
</svg>
