<svg width="385" height="385" viewBox="0 0 385 385" fill="none" xmlns="http://www.w3.org/2000/svg">
<path d="M384.999 291.166V95.1847C384.991 92.6661 384.389 90.1849 383.243 87.9424C381.627 84.4573 378.828 81.6579 375.344 80.0417L199.801 1.47378C197.664 0.503781 195.345 0.00195312 192.999 0.00195312C190.652 0.00195312 188.333 0.503781 186.196 1.47378L10.6534 80.0417C7.8301 81.4627 5.44279 83.6197 3.74344 86.285C2.04409 88.9503 1.09575 92.0251 0.998505 95.1847V288.751C1.16255 291.895 2.13817 294.942 3.83024 297.596C5.52231 300.25 7.87308 302.42 10.6534 303.894L186.196 382.462C188.321 383.476 190.645 384.002 192.999 384.002C195.352 384.002 197.676 383.476 199.801 382.462L375.344 303.894C377.878 302.734 380.086 300.964 381.77 298.743C383.455 296.522 384.564 293.919 384.999 291.166ZM33.9128 120.423L176.541 184.506V342.081L33.9128 278.217V120.423ZM209.456 184.506L352.084 120.423V278.217L209.456 342.081V184.506ZM193.437 34.3933L328.825 95.1847L193.437 155.757L58.0499 95.1847L193.437 34.3933Z" fill="#00C8B6"/>
</svg>
