<svg width="404" height="286" viewBox="0 0 404 286" fill="none" xmlns="http://www.w3.org/2000/svg">
<g clip-path="url(#clip0_2959_10978)">
<circle cx="201.75" cy="201.973" r="110" stroke="#707070" stroke-width="4"/>
</g>
<circle cx="201.75" cy="201.973" r="84" fill="#595959"/>
<g filter="url(#filter0_d_2959_10978)">
<circle cx="201.75" cy="201.973" r="64" fill="#707070"/>
<circle cx="201.75" cy="201.973" r="64.5" stroke="#595959"/>
</g>
<path d="M233.75 218.5V185.836C233.749 185.417 233.648 185.003 233.457 184.629C233.188 184.049 232.722 183.582 232.141 183.313L202.884 170.218C202.528 170.056 202.141 169.973 201.75 169.973C201.359 169.973 200.972 170.056 200.616 170.218L171.359 183.313C170.889 183.549 170.491 183.909 170.207 184.353C169.924 184.797 169.766 185.31 169.75 185.836V218.098C169.777 218.621 169.94 219.129 170.222 219.572C170.504 220.014 170.896 220.376 171.359 220.621L200.616 233.716C200.97 233.885 201.358 233.973 201.75 233.973C202.142 233.973 202.53 233.885 202.884 233.716L232.141 220.621C232.563 220.428 232.931 220.133 233.212 219.763C233.493 219.393 233.678 218.959 233.75 218.5ZM175.236 190.043L199.007 200.723V226.986L175.236 216.342V190.043ZM204.493 200.723L228.264 190.043V216.342L204.493 226.986V200.723ZM201.823 175.705L224.388 185.836L201.823 195.932L179.259 185.836L201.823 175.705Z" fill="#FFF177"/>
<rect x="58.75" y="199.973" width="28" height="5" fill="#707070"/>
<circle cx="91.75" cy="201.973" r="8" fill="#707070"/>
<g clip-path="url(#clip1_2959_10978)">
<circle cx="32.75" cy="201.973" r="32" fill="#707070"/>
<g clip-path="url(#clip2_2959_10978)">
<path d="M45.5 177.973H20C13.7868 177.973 8.75 183.009 8.75 189.223V214.723C8.75 220.936 13.7868 225.973 20 225.973H45.5C51.7132 225.973 56.75 220.936 56.75 214.723V189.223C56.75 183.009 51.7132 177.973 45.5 177.973Z" fill="url(#paint0_radial_2959_10978)"/>
<path d="M45.5 177.973H20C13.7868 177.973 8.75 183.009 8.75 189.223V214.723C8.75 220.936 13.7868 225.973 20 225.973H45.5C51.7132 225.973 56.75 220.936 56.75 214.723V189.223C56.75 183.009 51.7132 177.973 45.5 177.973Z" fill="url(#paint1_radial_2959_10978)"/>
<path d="M32.7513 185.973C28.406 185.973 27.8606 185.992 26.1541 186.069C24.4507 186.147 23.288 186.417 22.2707 186.813C21.2183 187.221 20.3256 187.768 19.4364 188.658C18.5463 189.547 17.9996 190.44 17.5897 191.492C17.1929 192.509 16.923 193.672 16.8463 195.375C16.77 197.082 16.75 197.627 16.75 201.973C16.75 206.318 16.7692 206.862 16.8466 208.568C16.925 210.272 17.1946 211.434 17.59 212.452C17.9989 213.504 18.5457 214.397 19.4353 215.286C20.3244 216.176 21.217 216.724 22.2687 217.133C23.2867 217.528 24.4496 217.798 26.1526 217.876C27.8593 217.954 28.4043 217.973 32.7494 217.973C37.0951 217.973 37.6388 217.954 39.3453 217.876C41.0486 217.798 42.2126 217.528 43.2307 217.133C44.2827 216.724 45.174 216.176 46.063 215.286C46.9531 214.397 47.4996 213.504 47.9097 212.452C48.303 211.434 48.573 210.271 48.653 208.569C48.7297 206.862 48.7497 206.318 48.7497 201.973C48.7497 197.627 48.7297 197.082 48.653 195.375C48.573 193.672 48.303 192.509 47.9097 191.492C47.4996 190.44 46.9531 189.547 46.063 188.658C45.1731 187.768 44.283 187.221 43.2297 186.813C42.2097 186.417 41.0464 186.147 39.3431 186.069C37.6364 185.992 37.093 185.973 32.7463 185.973H32.7513ZM31.3159 188.856C31.742 188.855 32.2174 188.856 32.7513 188.856C37.0234 188.856 37.5296 188.871 39.2167 188.948C40.7766 189.019 41.6234 189.28 42.1873 189.499C42.9341 189.789 43.4664 190.136 44.026 190.696C44.586 191.256 44.9326 191.789 45.2233 192.536C45.4424 193.099 45.7033 193.946 45.7744 195.506C45.851 197.192 45.8676 197.699 45.8676 201.969C45.8676 206.239 45.851 206.746 45.7744 208.432C45.703 209.992 45.4424 210.839 45.2233 211.402C44.9334 212.149 44.586 212.681 44.026 213.24C43.4661 213.8 42.9344 214.147 42.1873 214.437C41.624 214.657 40.7766 214.917 39.2167 214.988C37.53 215.065 37.0234 215.082 32.7513 215.082C28.479 215.082 27.9726 215.065 26.2861 214.988C24.7261 214.916 23.8794 214.656 23.3149 214.437C22.5683 214.147 22.0349 213.8 21.4749 213.24C20.9149 212.68 20.5684 212.148 20.2776 211.401C20.0586 210.838 19.7976 209.991 19.7266 208.431C19.65 206.744 19.6346 206.238 19.6346 201.965C19.6346 197.692 19.65 197.188 19.7266 195.502C19.798 193.942 20.0586 193.095 20.2776 192.531C20.5677 191.784 20.9149 191.251 21.4751 190.691C22.0351 190.131 22.5683 189.784 23.3151 189.494C23.879 189.274 24.7261 189.014 26.2861 188.942C27.762 188.875 28.334 188.855 31.3159 188.852V188.856ZM41.292 191.513C40.232 191.513 39.372 192.372 39.372 193.432C39.372 194.492 40.232 195.352 41.292 195.352C42.352 195.352 43.212 194.492 43.212 193.432C43.212 192.372 42.352 191.512 41.292 191.512V191.513ZM32.7513 193.756C28.2137 193.756 24.5347 197.435 24.5347 201.973C24.5347 206.51 28.2137 210.188 32.7513 210.188C37.289 210.188 40.9667 206.51 40.9667 201.973C40.9667 197.435 37.2887 193.756 32.751 193.756H32.7513ZM32.7513 196.639C35.6967 196.639 38.0847 199.027 38.0847 201.973C38.0847 204.918 35.6967 207.306 32.7513 207.306C29.8057 207.306 27.4181 204.918 27.4181 201.973C27.4181 199.027 29.8057 196.639 32.7513 196.639Z" fill="white"/>
</g>
</g>
<rect x="94.8029" y="107.197" width="28" height="5" transform="rotate(45 94.8029 107.197)" fill="#707070"/>
<circle cx="116.723" cy="131.947" r="8" transform="rotate(45 116.723 131.947)" fill="#707070"/>
<g clip-path="url(#clip3_2959_10978)">
<circle cx="75.0039" cy="90.2275" r="32" transform="rotate(45 75.0039 90.2275)" fill="#707070"/>
<g clip-path="url(#clip4_2959_10978)">
<path d="M74.7993 66.5039C68.4356 66.5039 62.3268 69.034 57.8306 73.5333C53.3297 78.0343 50.8006 84.1386 50.7993 90.5039C50.7993 96.8665 53.3306 102.975 57.8306 107.475C62.3268 111.974 68.4356 114.504 74.7993 114.504C81.1631 114.504 87.2718 111.974 91.7681 107.475C96.2681 102.975 98.7993 96.8665 98.7993 90.5039C98.7993 84.1413 96.2681 78.0325 91.7681 73.5333C87.2718 69.034 81.1631 66.5039 74.7993 66.5039Z" fill="url(#paint2_linear_2959_10978)"/>
<path d="M61.6631 90.25C68.6606 87.202 73.3256 85.1924 75.6581 84.2215C82.3256 81.4491 83.7093 80.9676 84.6131 80.9513C84.8118 80.9481 85.2543 80.9973 85.5431 81.2307C85.7831 81.4276 85.8506 81.6938 85.8843 81.8808C85.9143 82.0675 85.9556 82.4931 85.9218 82.8254C85.5618 86.6204 83.9981 95.8296 83.2031 100.08C82.8693 101.879 82.2056 102.482 81.5643 102.541C80.1693 102.669 79.1118 101.62 77.7618 100.735C75.6506 99.3501 74.4581 98.4884 72.4068 97.1373C70.0368 95.5758 71.5743 94.7174 72.9243 93.3149C73.2768 92.9478 79.4193 87.3621 79.5356 86.8555C79.5506 86.7921 79.5656 86.5559 79.4231 86.4314C79.2843 86.3065 79.0781 86.3493 78.9281 86.383C78.7143 86.431 75.3431 88.6615 68.8031 93.0741C67.8468 93.7319 66.9806 94.0525 66.2006 94.0356C65.3456 94.0172 63.6956 93.5511 62.4693 93.1529C60.9693 92.6643 59.7731 92.4059 59.8781 91.576C59.9306 91.144 60.5268 90.7019 61.6631 90.25Z" fill="white"/>
</g>
</g>
<rect x="311.779" y="110.025" width="28" height="5" transform="rotate(135 311.779 110.025)" fill="#707070"/>
<circle cx="287.03" cy="131.945" r="8" transform="rotate(135 287.03 131.945)" fill="#707070"/>
<g clip-path="url(#clip5_2959_10978)">
<circle cx="328.749" cy="90.2266" r="32" transform="rotate(135 328.749 90.2266)" fill="#707070"/>
<g clip-path="url(#clip6_2959_10978)">
<path d="M305.564 90.2924C305.563 94.3387 306.625 98.2896 308.645 101.772L305.371 113.67L317.602 110.478C320.985 112.311 324.776 113.272 328.627 113.272H328.637C341.353 113.272 351.703 102.971 351.709 90.3105C351.711 84.1754 349.313 78.4064 344.957 74.0661C340.601 69.7262 334.809 67.3348 328.636 67.332C315.92 67.332 305.57 77.6321 305.565 90.2924" fill="url(#paint3_linear_2959_10978)"/>
<path d="M304.741 90.2859C304.739 94.4778 305.839 98.57 307.931 102.177L304.54 114.502L317.21 111.195C320.701 113.09 324.631 114.089 328.63 114.09H328.641C341.812 114.09 352.534 103.419 352.54 90.3049C352.542 83.9494 350.058 77.973 345.546 73.4772C341.034 68.982 335.034 66.5046 328.641 66.502C315.467 66.502 304.746 77.1716 304.741 90.2859H304.741ZM312.286 101.556L311.813 100.808C309.824 97.6604 308.774 94.0227 308.776 90.2874C308.78 79.3872 317.691 70.519 328.648 70.519C333.954 70.5212 338.941 72.5805 342.692 76.3167C346.442 80.0534 348.506 85.0205 348.505 90.3034C348.5 101.204 339.589 110.073 328.641 110.073H328.633C325.068 110.071 321.571 109.118 318.522 107.317L317.797 106.888L310.278 108.851L312.286 101.556V101.556Z" fill="url(#paint4_linear_2959_10978)"/>
<path d="M322.667 80.3418C322.22 79.3519 321.749 79.332 321.324 79.3146C320.975 79.2997 320.577 79.3008 320.179 79.3008C319.781 79.3008 319.134 79.4499 318.587 80.0445C318.039 80.6396 316.497 82.0776 316.497 85.0024C316.497 87.9275 318.637 90.7541 318.935 91.1511C319.234 91.5474 323.066 97.7417 329.136 100.125C334.18 102.105 335.207 101.711 336.302 101.612C337.397 101.513 339.835 100.174 340.332 98.7859C340.83 97.3978 340.83 96.208 340.681 95.9594C340.532 95.7117 340.133 95.5629 339.536 95.2658C338.939 94.9684 336.003 93.5302 335.456 93.3317C334.908 93.1335 334.51 93.0346 334.112 93.6298C333.714 94.2242 332.57 95.5629 332.221 95.9594C331.873 96.3568 331.525 96.4063 330.928 96.1089C330.33 95.8106 328.407 95.1836 326.125 93.1585C324.35 91.5827 323.152 89.6367 322.803 89.0415C322.455 88.4471 322.766 88.125 323.065 87.8287C323.334 87.5623 323.663 87.1345 323.962 86.7875C324.259 86.4403 324.359 86.1926 324.558 85.7961C324.757 85.3993 324.657 85.0521 324.508 84.7547C324.359 84.4574 323.198 81.5174 322.667 80.342" fill="white"/>
</g>
</g>
<rect x="345.25" y="204" width="28" height="5" transform="rotate(-180 345.25 204)" fill="#707070"/>
<circle cx="312.25" cy="202" r="8" transform="rotate(-180 312.25 202)" fill="#707070"/>
<g clip-path="url(#clip7_2959_10978)">
<circle cx="371.25" cy="202" r="32" transform="rotate(-180 371.25 202)" fill="#707070"/>
<g clip-path="url(#clip8_2959_10978)">
<path d="M383.657 178.047H358.157C351.944 178.047 346.907 183.084 346.907 189.297V214.797C346.907 221.01 351.944 226.047 358.157 226.047H383.657C389.87 226.047 394.907 221.01 394.907 214.797V189.297C394.907 183.084 389.87 178.047 383.657 178.047Z" fill="white"/>
<path d="M383.657 178.047H358.157C351.944 178.047 346.907 183.084 346.907 189.297V214.797C346.907 221.01 351.944 226.047 358.157 226.047H383.657C389.87 226.047 394.907 221.01 394.907 214.797V189.297C394.907 183.084 389.87 178.047 383.657 178.047Z" fill="#1D9BF0"/>
<path d="M385.541 195.823C385.562 196.121 385.562 196.418 385.562 196.719C385.562 205.868 378.597 216.42 365.86 216.42V216.415C362.098 216.42 358.413 215.342 355.247 213.311C355.794 213.376 356.344 213.409 356.895 213.41C360.013 213.413 363.042 212.367 365.494 210.441C364.049 210.413 362.649 209.935 361.489 209.073C360.33 208.211 359.468 207.008 359.026 205.632C360.063 205.832 361.132 205.791 362.152 205.513C358.921 204.86 356.597 202.022 356.597 198.726V198.638C357.56 199.174 358.638 199.472 359.74 199.505C356.697 197.471 355.759 193.424 357.597 190.259C359.335 192.398 361.504 194.148 363.962 195.394C366.421 196.64 369.114 197.356 371.867 197.493C371.593 196.312 371.633 195.079 371.985 193.918C372.336 192.757 372.987 191.708 373.87 190.878C376.659 188.256 381.046 188.39 383.667 191.178C385.218 190.872 386.705 190.303 388.064 189.497C387.547 191.1 386.466 192.461 385.02 193.326C386.393 193.165 387.733 192.797 388.997 192.236C388.067 193.628 386.897 194.843 385.541 195.823Z" fill="white"/>
</g>
</g>
<rect x="203.75" y="58.9727" width="28" height="5" transform="rotate(90 203.75 58.9727)" fill="#707070"/>
<circle cx="201.75" cy="91.9727" r="8" transform="rotate(90 201.75 91.9727)" fill="#707070"/>
<g clip-path="url(#clip9_2959_10978)">
<circle cx="201.75" cy="32.9727" r="32" transform="rotate(90 201.75 32.9727)" fill="#707070"/>
<rect x="225.75" y="8.97266" width="48" height="48" rx="24" transform="rotate(90 225.75 8.97266)" fill="#5865F2"/>
<path d="M213.419 22.6098C211.321 21.6279 209.101 20.9302 206.818 20.5352C206.533 21.0493 206.201 21.7408 205.972 22.2909C203.51 21.9208 201.072 21.9208 198.655 22.2909C198.426 21.7409 198.087 21.0493 197.8 20.5352C195.514 20.9304 193.292 21.6298 191.193 22.6149C187.015 28.9285 185.882 35.0852 186.448 41.1547C189.219 43.224 191.905 44.4812 194.545 45.3038C195.201 44.4014 195.781 43.4461 196.279 42.4477C195.331 42.0868 194.418 41.642 193.549 41.1187C193.777 40.9492 194.001 40.7725 194.218 40.589C199.483 43.0518 205.204 43.0518 210.407 40.589C210.625 40.7713 210.849 40.9479 211.076 41.1187C210.206 41.6434 209.29 42.089 208.34 42.4503C208.841 43.4528 209.42 44.409 210.075 45.3063C212.717 44.4838 215.405 43.2267 218.176 41.1547C218.841 34.1187 217.041 28.0185 213.419 22.6098ZM196.997 37.422C195.416 37.422 194.12 35.9464 194.12 34.1495C194.12 32.3527 195.388 30.8745 196.997 30.8745C198.605 30.8745 199.901 32.35 199.874 34.1495C199.876 35.9464 198.605 37.422 196.997 37.422ZM207.628 37.422C206.047 37.422 204.751 35.9464 204.751 34.1495C204.751 32.3527 206.02 30.8745 207.628 30.8745C209.236 30.8745 210.533 32.35 210.505 34.1495C210.505 35.9464 209.236 37.422 207.628 37.422Z" fill="white"/>
</g>
<defs>
<filter id="filter0_d_2959_10978" x="132.75" y="136.973" width="138" height="138" filterUnits="userSpaceOnUse" color-interpolation-filters="sRGB">
<feFlood flood-opacity="0" result="BackgroundImageFix"/>
<feColorMatrix in="SourceAlpha" type="matrix" values="0 0 0 0 0 0 0 0 0 0 0 0 0 0 0 0 0 0 127 0" result="hardAlpha"/>
<feOffset dy="4"/>
<feGaussianBlur stdDeviation="2"/>
<feComposite in2="hardAlpha" operator="out"/>
<feColorMatrix type="matrix" values="0 0 0 0 0 0 0 0 0 0 0 0 0 0 0 0 0 0 0.25 0"/>
<feBlend mode="normal" in2="BackgroundImageFix" result="effect1_dropShadow_2959_10978"/>
<feBlend mode="normal" in="SourceGraphic" in2="effect1_dropShadow_2959_10978" result="shape"/>
</filter>
<radialGradient id="paint0_radial_2959_10978" cx="0" cy="0" r="1" gradientUnits="userSpaceOnUse" gradientTransform="translate(21.5 229.67) rotate(-90) scale(47.5716 44.2453)">
<stop stop-color="#FFDD55"/>
<stop offset="0.1" stop-color="#FFDD55"/>
<stop offset="0.5" stop-color="#FF543E"/>
<stop offset="1" stop-color="#C837AB"/>
</radialGradient>
<radialGradient id="paint1_radial_2959_10978" cx="0" cy="0" r="1" gradientUnits="userSpaceOnUse" gradientTransform="translate(0.709813 181.43) rotate(78.681) scale(21.2648 87.654)">
<stop stop-color="#3771C8"/>
<stop offset="0.128" stop-color="#3771C8"/>
<stop offset="1" stop-color="#6600FF" stop-opacity="0"/>
</radialGradient>
<linearGradient id="paint2_linear_2959_10978" x1="74.7993" y1="66.5039" x2="74.7993" y2="114.504" gradientUnits="userSpaceOnUse">
<stop stop-color="#2AABEE"/>
<stop offset="1" stop-color="#229ED9"/>
</linearGradient>
<linearGradient id="paint3_linear_2959_10978" x1="328.54" y1="113.67" x2="328.54" y2="67.332" gradientUnits="userSpaceOnUse">
<stop stop-color="#1FAF38"/>
<stop offset="1" stop-color="#60D669"/>
</linearGradient>
<linearGradient id="paint4_linear_2959_10978" x1="328.54" y1="114.502" x2="328.54" y2="66.502" gradientUnits="userSpaceOnUse">
<stop stop-color="#F9F9F9"/>
<stop offset="1" stop-color="white"/>
</linearGradient>
<clipPath id="clip0_2959_10978">
<rect width="224" height="119" fill="white" transform="translate(90.25 90)"/>
</clipPath>
<clipPath id="clip1_2959_10978">
<rect width="64" height="64" fill="white" transform="translate(0.75 169.973)"/>
</clipPath>
<clipPath id="clip2_2959_10978">
<rect x="8.75" y="177.973" width="48" height="48" rx="24" fill="white"/>
</clipPath>
<clipPath id="clip3_2959_10978">
<rect width="64" height="64" fill="white" transform="translate(75.0039 44.9727) rotate(45)"/>
</clipPath>
<clipPath id="clip4_2959_10978">
<rect x="75.0039" y="56.2871" width="48" height="48" rx="24" transform="rotate(45 75.0039 56.2871)" fill="white"/>
</clipPath>
<clipPath id="clip5_2959_10978">
<rect width="64" height="64" fill="white" transform="translate(374.004 90.2266) rotate(135)"/>
</clipPath>
<clipPath id="clip6_2959_10978">
<rect x="328.745" y="56.2852" width="48" height="48" rx="24" transform="rotate(45 328.745 56.2852)" fill="white"/>
</clipPath>
<clipPath id="clip7_2959_10978">
<rect width="64" height="64" fill="white" transform="matrix(-1 0 0 -1 403.25 234)"/>
</clipPath>
<clipPath id="clip8_2959_10978">
<rect x="395.247" y="177.998" width="48" height="48" rx="24" transform="rotate(90 395.247 177.998)" fill="white"/>
</clipPath>
<clipPath id="clip9_2959_10978">
<rect width="64" height="64" fill="white" transform="matrix(0 1 -1 0 233.75 0.972656)"/>
</clipPath>
</defs>
</svg>
