<svg width="292" height="391" viewBox="0 0 292 391" fill="none" xmlns="http://www.w3.org/2000/svg">
<rect x="0.158203" y="51.8438" width="291" height="304.128" rx="10.9398" fill="#282828"/>
<rect x="15.5558" y="340.656" width="72.0075" height="35.6692" rx="7.29323" transform="rotate(6 15.5558 340.656)" fill="#3D3D3D"/>
<path d="M30.4823 366.095L30.5768 365.196L37.8301 365.958L37.7356 366.858L30.4823 366.095ZM37.8444 366.869L37.9389 365.97L45.1922 366.732L45.0976 367.631L37.8444 366.869ZM45.2064 367.643L45.301 366.743L52.5542 367.506L52.4597 368.405L45.2064 367.643ZM52.5685 368.417L52.663 367.517L59.9163 368.28L59.8218 369.179L52.5685 368.417ZM59.9306 369.19L60.0251 368.291L67.2784 369.053L67.1839 369.953L59.9306 369.19Z" fill="#F5F8FC"/>
<rect x="166.205" y="348.035" width="112.301" height="35.6692" rx="7.29323" transform="rotate(-3 166.205 348.035)" fill="#282828"/>
<path d="M186.409 369.842L185.875 359.645L187.331 359.569L187.799 368.498L193.32 368.209L193.386 369.476L186.409 369.842ZM199.756 369.142L199.67 367.511L199.581 367.209L199.435 364.427C199.404 363.834 199.206 363.387 198.839 363.085C198.482 362.773 197.959 362.634 197.269 362.671C196.813 362.694 196.37 362.796 195.941 362.974C195.512 363.142 195.153 363.361 194.866 363.629L194.228 362.611C194.609 362.27 195.072 362.002 195.617 361.808C196.171 361.603 196.754 361.485 197.366 361.453C198.425 361.398 199.254 361.612 199.854 362.097C200.454 362.582 200.781 363.353 200.837 364.412L201.081 369.073L199.756 369.142ZM197.226 369.363C196.653 369.393 196.143 369.322 195.695 369.151C195.258 368.979 194.914 368.729 194.663 368.401C194.412 368.064 194.274 367.677 194.251 367.24C194.23 366.822 194.307 366.438 194.483 366.088C194.669 365.738 194.98 365.449 195.416 365.222C195.862 364.994 196.469 364.86 197.236 364.819L199.683 364.691L199.736 365.696L197.347 365.822C196.648 365.858 196.183 365.999 195.952 366.245C195.722 366.491 195.615 366.779 195.632 367.109C195.652 367.488 195.819 367.786 196.132 368.003C196.445 368.211 196.868 368.3 197.402 368.272C197.927 368.245 198.377 368.105 198.753 367.851C199.139 367.597 199.408 367.242 199.559 366.786L199.886 367.733C199.726 368.199 199.419 368.581 198.968 368.877C198.515 369.164 197.935 369.325 197.226 369.363ZM205.267 368.854L201.993 361.284L203.319 361.214L206.234 368.073L205.608 368.105L207.893 360.975L209.073 360.913L212.032 367.769L211.42 367.801L213.661 360.672L214.914 360.607L212.434 368.478L211.094 368.548L208.327 362.296L208.735 362.274L206.608 368.783L205.267 368.854ZM217.22 371.148C216.851 371.168 216.489 371.123 216.133 371.016C215.777 370.917 215.467 370.758 215.202 370.538L215.744 369.458C215.948 369.633 216.169 369.762 216.407 369.847C216.645 369.932 216.896 369.968 217.158 369.954C217.498 369.936 217.775 369.834 217.989 369.647C218.203 369.461 218.396 369.139 218.566 368.682L218.991 367.594L219.128 367.411L221.791 360.246L223.16 360.174L219.861 368.863C219.666 369.418 219.436 369.859 219.171 370.184C218.915 370.509 218.626 370.744 218.302 370.887C217.979 371.04 217.619 371.128 217.22 371.148ZM218.916 368.387L214.973 360.603L216.43 360.527L219.791 367.245L218.916 368.387ZM228.208 367.739C227.382 367.782 226.645 367.65 225.996 367.344C225.357 367.036 224.847 366.596 224.466 366.022C224.095 365.447 223.889 364.776 223.849 364.009C223.809 363.242 223.939 362.553 224.238 361.944C224.546 361.334 224.984 360.848 225.549 360.487C226.123 360.116 226.78 359.912 227.518 359.873C228.266 359.834 228.935 359.964 229.525 360.264C230.115 360.565 230.586 361.007 230.938 361.593C231.299 362.168 231.501 362.853 231.543 363.65C231.546 363.708 231.544 363.776 231.539 363.854C231.543 363.932 231.542 364.005 231.536 364.074L224.966 364.418L224.913 363.413L230.755 363.107L230.205 363.486C230.189 362.99 230.064 362.554 229.83 362.176C229.596 361.799 229.284 361.514 228.894 361.32C228.513 361.116 228.075 361.027 227.58 361.053C227.094 361.078 226.668 361.213 226.301 361.456C225.933 361.689 225.653 362.011 225.46 362.42C225.267 362.82 225.184 363.272 225.21 363.777L225.222 364.01C225.249 364.525 225.39 364.98 225.644 365.376C225.908 365.761 226.259 366.054 226.698 366.255C227.137 366.456 227.634 366.542 228.187 366.513C228.644 366.489 229.052 366.39 229.413 366.215C229.784 366.04 230.102 365.79 230.367 365.464L231.186 366.327C230.858 366.753 230.437 367.086 229.924 367.328C229.421 367.568 228.849 367.705 228.208 367.739ZM233.794 367.359L233.389 359.638L234.729 359.568L234.839 361.666L234.681 361.148C234.866 360.603 235.204 360.176 235.694 359.868C236.185 359.56 236.799 359.387 237.537 359.348L237.608 360.703C237.549 360.696 237.49 360.694 237.432 360.697C237.384 360.7 237.335 360.702 237.286 360.705C236.539 360.744 235.958 360.998 235.544 361.468C235.131 361.938 234.946 362.595 234.991 363.44L235.192 367.285L233.794 367.359Z" fill="#F5F8FC"/>
<path d="M262 365.847L262 357.681C262 357.576 261.975 357.472 261.927 357.379C261.86 357.234 261.743 357.117 261.598 357.05L254.284 353.776C254.195 353.736 254.098 353.715 254 353.715C253.902 353.715 253.806 353.736 253.717 353.776L246.403 357.05C246.285 357.109 246.185 357.199 246.115 357.31C246.044 357.421 246.004 357.549 246 357.681L246 365.746C246.007 365.877 246.048 366.004 246.118 366.115C246.189 366.225 246.287 366.316 246.403 366.377L253.717 369.651C253.805 369.693 253.902 369.715 254 369.715C254.098 369.715 254.195 369.693 254.284 369.651L261.598 366.377C261.704 366.329 261.796 366.255 261.866 366.162C261.936 366.07 261.982 365.961 262 365.847ZM247.372 358.732L253.315 361.403L253.315 367.968L247.372 365.307L247.372 358.732ZM254.686 361.403L260.629 358.732L260.629 365.307L254.686 367.968L254.686 361.403ZM254.019 355.148L259.66 357.681L254.019 360.205L248.377 357.681L254.019 355.148Z" fill="#FFF177"/>
<g clip-path="url(#clip0_2845_7717)">
<rect width="93.3534" height="93.3534" transform="translate(102.716 0.791016) rotate(4)" fill="#707070"/>
<mask id="path-8-inside-1_2845_7717" fill="white">
<path d="M102.715 0.791016L128.907 2.62252L122.395 95.7485L96.2033 93.917L102.715 0.791016Z"/>
</mask>
<path d="M102.715 0.791016L103.122 -5.02936L97.302 -5.43636L96.895 0.384015L102.715 0.791016ZM96.2033 93.917L90.383 93.51L89.976 99.3304L95.7963 99.7374L96.2033 93.917ZM102.308 6.61139L128.5 8.44289L129.314 -3.19786L103.122 -5.02936L102.308 6.61139ZM122.802 89.9281L96.6103 88.0966L95.7963 99.7374L121.988 101.569L122.802 89.9281ZM102.024 94.324L108.536 1.19802L96.895 0.384015L90.383 93.51L102.024 94.324Z" fill="#595959" mask="url(#path-8-inside-1_2845_7717)"/>
<mask id="path-10-inside-2_2845_7717" fill="white">
<path d="M128.907 2.62305L196.088 7.3208L189.576 100.447L122.395 95.749L128.907 2.62305Z"/>
</mask>
<path d="M196.088 7.3208L201.908 7.7278L202.315 1.90743L196.495 1.50043L196.088 7.3208ZM189.576 100.447L189.169 106.267L194.989 106.674L195.396 100.854L189.576 100.447ZM128.5 8.44342L195.681 13.1412L196.495 1.50043L129.314 -3.19733L128.5 8.44342ZM190.268 6.9138L183.756 100.04L195.396 100.854L201.908 7.7278L190.268 6.9138ZM189.983 94.6264L122.802 89.9287L121.988 101.569L189.169 106.267L189.983 94.6264Z" fill="#3D3D3D" mask="url(#path-10-inside-2_2845_7717)"/>
<path d="M146.97 38.5519C148.557 38.6629 150.035 39.4 151.079 40.601C152.123 41.8019 152.647 43.3684 152.536 44.9558C152.425 46.5433 151.688 48.0216 150.487 49.0656C149.286 50.1095 147.72 50.6337 146.132 50.5227C144.545 50.4117 143.067 49.6746 142.023 48.4737C140.979 47.2727 140.455 45.7062 140.566 44.1188C140.677 42.5313 141.414 41.053 142.615 40.009C143.816 38.9651 145.382 38.4409 146.97 38.5519ZM145.923 53.5154C152.537 53.9779 157.707 57.0309 157.475 60.3378L157.266 63.3305L133.325 61.6564L133.534 58.6637C133.765 55.3568 139.309 53.0529 145.923 53.5154Z" fill="#DDE2EB"/>
</g>
<rect x="66.5191" y="112.098" width="159.008" height="47.3383" rx="10.9398" fill="#707070"/>
<path d="M17.662 189.01V188.105H24.9552V189.01H17.662ZM25.0646 189.01V188.105H32.3578V189.01H25.0646ZM32.4672 189.01V188.105H39.7605V189.01H32.4672ZM39.8699 189.01V188.105H47.1631V189.01H39.8699ZM47.2725 189.01V188.105H54.5657V189.01H47.2725ZM54.6751 189.01V188.105H61.9684V189.01H54.6751ZM62.0777 189.01V188.105H69.371V189.01H62.0777ZM69.4804 189.01V188.105H76.7736V189.01H69.4804ZM76.883 189.01V188.105H84.1762V189.01H76.883ZM84.2856 189.01V188.105H91.5789V189.01H84.2856ZM91.6883 189.01V188.105H98.9815V189.01H91.6883ZM99.0909 189.01V188.105H106.384V189.01H99.0909ZM106.494 189.01V188.105H113.787V189.01H106.494ZM113.896 189.01V188.105H121.189V189.01H113.896ZM121.299 189.01V188.105H128.592V189.01H121.299ZM128.701 189.01V188.105H135.995V189.01H128.701ZM136.104 189.01V188.105H143.397V189.01H136.104ZM143.507 189.01V188.105H150.8V189.01H143.507ZM150.909 189.01V188.105H158.203V189.01H150.909ZM158.312 189.01V188.105H165.605V189.01H158.312ZM165.715 189.01V188.105H173.008V189.01H165.715ZM173.117 189.01V188.105H180.41V189.01H173.117ZM180.52 189.01V188.105H187.813V189.01H180.52ZM187.922 189.01V188.105H195.216V189.01H187.922ZM195.325 189.01V188.105H202.618V189.01H195.325ZM202.728 189.01V188.105H210.021V189.01H202.728ZM210.13 189.01V188.105H217.424V189.01H210.13ZM217.533 189.01V188.105H224.826V189.01H217.533ZM224.936 189.01V188.105H232.229V189.01H224.936ZM232.338 189.01V188.105H239.632V189.01H232.338ZM239.741 189.01V188.105H247.034V189.01H239.741ZM247.144 189.01V188.105H254.437V189.01H247.144ZM254.546 189.01V188.105H261.839V189.01H254.546ZM261.949 189.01V188.105H269.242V189.01H261.949ZM17.662 212.01V211.105H24.9552V212.01H17.662ZM25.0646 212.01V211.105H32.3578V212.01H25.0646ZM32.4672 212.01V211.105H39.7605V212.01H32.4672ZM39.8699 212.01V211.105H47.1631V212.01H39.8699ZM47.2725 212.01V211.105H54.5657V212.01H47.2725ZM54.6751 212.01V211.105H61.9684V212.01H54.6751ZM62.0777 212.01V211.105H69.371V212.01H62.0777ZM69.4804 212.01V211.105H76.7736V212.01H69.4804ZM76.883 212.01V211.105H84.1762V212.01H76.883ZM84.2856 212.01V211.105H91.5789V212.01H84.2856ZM91.6883 212.01V211.105H98.9815V212.01H91.6883ZM99.0909 212.01V211.105H106.384V212.01H99.0909ZM106.494 212.01V211.105H113.787V212.01H106.494ZM113.896 212.01V211.105H121.189V212.01H113.896ZM121.299 212.01V211.105H128.592V212.01H121.299ZM128.701 212.01V211.105H135.995V212.01H128.701ZM136.104 212.01V211.105H143.397V212.01H136.104ZM143.507 212.01V211.105H150.8V212.01H143.507ZM150.909 212.01V211.105H158.203V212.01H150.909ZM158.312 212.01V211.105H165.605V212.01H158.312ZM165.715 212.01V211.105H173.008V212.01H165.715ZM173.117 212.01V211.105H180.41V212.01H173.117ZM180.52 212.01V211.105H187.813V212.01H180.52ZM187.922 212.01V211.105H195.216V212.01H187.922ZM195.325 212.01V211.105H202.618V212.01H195.325ZM202.728 212.01V211.105H210.021V212.01H202.728ZM210.13 212.01V211.105H217.424V212.01H210.13ZM217.533 212.01V211.105H224.826V212.01H217.533ZM224.936 212.01V211.105H232.229V212.01H224.936ZM232.338 212.01V211.105H239.632V212.01H232.338ZM239.741 212.01V211.105H247.034V212.01H239.741ZM247.144 212.01V211.105H254.437V212.01H247.144ZM254.546 212.01V211.105H261.839V212.01H254.546ZM261.949 212.01V211.105H269.242V212.01H261.949ZM17.662 236.01V235.105H24.9552V236.01H17.662ZM25.0646 236.01V235.105H32.3578V236.01H25.0646ZM32.4672 236.01V235.105H39.7605V236.01H32.4672ZM39.8699 236.01V235.105H47.1631V236.01H39.8699ZM47.2725 236.01V235.105H54.5657V236.01H47.2725ZM54.6751 236.01V235.105H61.9684V236.01H54.6751ZM62.0777 236.01V235.105H69.371V236.01H62.0777ZM69.4804 236.01V235.105H76.7736V236.01H69.4804ZM76.883 236.01V235.105H84.1762V236.01H76.883ZM84.2856 236.01V235.105H91.5789V236.01H84.2856ZM91.6883 236.01V235.105H98.9815V236.01H91.6883ZM99.0909 236.01V235.105H106.384V236.01H99.0909ZM106.494 236.01V235.105H113.787V236.01H106.494ZM113.896 236.01V235.105H121.189V236.01H113.896ZM121.299 236.01V235.105H128.592V236.01H121.299ZM128.701 236.01V235.105H135.995V236.01H128.701ZM136.104 236.01V235.105H143.397V236.01H136.104ZM143.507 236.01V235.105H150.8V236.01H143.507ZM150.909 236.01V235.105H158.203V236.01H150.909ZM158.312 236.01V235.105H165.605V236.01H158.312ZM165.715 236.01V235.105H173.008V236.01H165.715ZM173.117 236.01V235.105H180.41V236.01H173.117ZM180.52 236.01V235.105H187.813V236.01H180.52ZM187.922 236.01V235.105H195.216V236.01H187.922ZM195.325 236.01V235.105H202.618V236.01H195.325ZM202.728 236.01V235.105H210.021V236.01H202.728ZM210.13 236.01V235.105H217.424V236.01H210.13ZM217.533 236.01V235.105H224.826V236.01H217.533ZM224.936 236.01V235.105H232.229V236.01H224.936ZM232.338 236.01V235.105H239.632V236.01H232.338ZM239.741 236.01V235.105H247.034V236.01H239.741ZM247.144 236.01V235.105H254.437V236.01H247.144ZM254.546 236.01V235.105H261.839V236.01H254.546ZM261.949 236.01V235.105H269.242V236.01H261.949ZM17.662 259.01V258.105H24.9552V259.01H17.662ZM25.0646 259.01V258.105H32.3578V259.01H25.0646ZM32.4672 259.01V258.105H39.7605V259.01H32.4672ZM39.8699 259.01V258.105H47.1631V259.01H39.8699ZM47.2725 259.01V258.105H54.5657V259.01H47.2725ZM54.6751 259.01V258.105H61.9684V259.01H54.6751ZM62.0777 259.01V258.105H69.371V259.01H62.0777ZM69.4804 259.01V258.105H76.7736V259.01H69.4804ZM76.883 259.01V258.105H84.1762V259.01H76.883ZM84.2856 259.01V258.105H91.5789V259.01H84.2856ZM91.6883 259.01V258.105H98.9815V259.01H91.6883ZM99.0909 259.01V258.105H106.384V259.01H99.0909ZM106.494 259.01V258.105H113.787V259.01H106.494ZM113.896 259.01V258.105H121.189V259.01H113.896ZM121.299 259.01V258.105H128.592V259.01H121.299ZM128.701 259.01V258.105H135.995V259.01H128.701ZM136.104 259.01V258.105H143.397V259.01H136.104ZM143.507 259.01V258.105H150.8V259.01H143.507ZM150.909 259.01V258.105H158.203V259.01H150.909ZM158.312 259.01V258.105H165.605V259.01H158.312ZM165.715 259.01V258.105H173.008V259.01H165.715ZM173.117 259.01V258.105H180.41V259.01H173.117ZM180.52 259.01V258.105H187.813V259.01H180.52ZM187.922 259.01V258.105H195.216V259.01H187.922ZM195.325 259.01V258.105H202.618V259.01H195.325ZM202.728 259.01V258.105H210.021V259.01H202.728ZM210.13 259.01V258.105H217.424V259.01H210.13ZM217.533 259.01V258.105H224.826V259.01H217.533ZM224.936 259.01V258.105H232.229V259.01H224.936ZM232.338 259.01V258.105H239.632V259.01H232.338ZM239.741 259.01V258.105H247.034V259.01H239.741ZM247.144 259.01V258.105H254.437V259.01H247.144ZM254.546 259.01V258.105H261.839V259.01H254.546ZM261.949 259.01V258.105H269.242V259.01H261.949ZM17.662 282.01V281.105H24.9552V282.01H17.662ZM25.0646 282.01V281.105H32.3578V282.01H25.0646ZM32.4672 282.01V281.105H39.7605V282.01H32.4672ZM39.8699 282.01V281.105H47.1631V282.01H39.8699ZM47.2725 282.01V281.105H54.5657V282.01H47.2725ZM54.6751 282.01V281.105H61.9684V282.01H54.6751ZM62.0777 282.01V281.105H69.371V282.01H62.0777ZM69.4804 282.01V281.105H76.7736V282.01H69.4804ZM76.883 282.01V281.105H84.1762V282.01H76.883ZM84.2856 282.01V281.105H91.5789V282.01H84.2856ZM91.6883 282.01V281.105H98.9815V282.01H91.6883ZM99.0909 282.01V281.105H106.384V282.01H99.0909ZM106.494 282.01V281.105H113.787V282.01H106.494ZM113.896 282.01V281.105H121.189V282.01H113.896ZM121.299 282.01V281.105H128.592V282.01H121.299ZM128.701 282.01V281.105H135.995V282.01H128.701ZM136.104 282.01V281.105H143.397V282.01H136.104ZM143.507 282.01V281.105H150.8V282.01H143.507ZM150.909 282.01V281.105H158.203V282.01H150.909ZM158.312 282.01V281.105H165.605V282.01H158.312ZM165.715 282.01V281.105H173.008V282.01H165.715ZM173.117 282.01V281.105H180.41V282.01H173.117ZM180.52 282.01V281.105H187.813V282.01H180.52ZM187.922 282.01V281.105H195.216V282.01H187.922ZM195.325 282.01V281.105H202.618V282.01H195.325ZM202.728 282.01V281.105H210.021V282.01H202.728ZM210.13 282.01V281.105H217.424V282.01H210.13ZM217.533 282.01V281.105H224.826V282.01H217.533ZM224.936 282.01V281.105H232.229V282.01H224.936ZM232.338 282.01V281.105H239.632V282.01H232.338ZM239.741 282.01V281.105H247.034V282.01H239.741ZM247.144 282.01V281.105H254.437V282.01H247.144ZM254.546 282.01V281.105H261.839V282.01H254.546ZM261.949 282.01V281.105H269.242V282.01H261.949Z" fill="#F5F8FC"/>
<rect x="65.8428" y="299.773" width="160.36" height="35.0075" rx="17.5038" fill="#00C8B6"/>
<defs>
<clipPath id="clip0_2845_7717">
<rect x="102.716" y="0.791016" width="93.3534" height="93.3534" rx="10.9398" transform="rotate(4 102.716 0.791016)" fill="white"/>
</clipPath>
</defs>
</svg>
