<svg width="292" height="391" viewBox="0 0 292 391" fill="none" xmlns="http://www.w3.org/2000/svg">
<rect x="0.158203" y="51.8457" width="291" height="304.128" rx="10.9398" fill="#838383"/>
<rect x="15.5558" y="340.658" width="72.0075" height="35.6692" rx="7.29323" transform="rotate(6 15.5558 340.658)" fill="#3D3D3D"/>
<path d="M30.4822 366.097L30.5768 365.198L37.8301 365.96L37.7355 366.86L30.4822 366.097ZM37.8443 366.871L37.9389 365.972L45.1921 366.734L45.0976 367.633L37.8443 366.871ZM45.2064 367.645L45.3009 366.745L52.5542 367.508L52.4597 368.407L45.2064 367.645ZM52.5685 368.419L52.663 367.519L59.9163 368.282L59.8218 369.181L52.5685 368.419ZM59.9306 369.192L60.0251 368.293L67.2784 369.055L67.1838 369.955L59.9306 369.192Z" fill="#F5F8FC"/>
<rect x="166.205" y="348.039" width="112.301" height="35.6692" rx="7.29323" transform="rotate(-3 166.205 348.039)" fill="#282828"/>
<path d="M186.409 369.846L185.875 359.649L187.331 359.573L187.799 368.502L193.32 368.213L193.387 369.48L186.409 369.846ZM199.756 369.146L199.67 367.515L199.581 367.213L199.436 364.431C199.404 363.838 199.206 363.391 198.839 363.089C198.482 362.776 197.959 362.638 197.269 362.674C196.813 362.698 196.37 362.799 195.941 362.978C195.512 363.146 195.154 363.365 194.866 363.633L194.228 362.615C194.609 362.273 195.073 362.006 195.617 361.812C196.172 361.607 196.754 361.489 197.366 361.457C198.425 361.402 199.254 361.616 199.854 362.101C200.454 362.585 200.782 363.357 200.837 364.416L201.081 369.077L199.756 369.146ZM197.226 369.367C196.653 369.397 196.143 369.326 195.696 369.155C195.258 368.983 194.914 368.733 194.663 368.405C194.412 368.068 194.275 367.681 194.252 367.244C194.23 366.826 194.307 366.442 194.483 366.092C194.67 365.742 194.981 365.453 195.417 365.225C195.862 364.998 196.469 364.864 197.236 364.823L199.683 364.695L199.736 365.7L197.347 365.825C196.648 365.862 196.183 366.003 195.952 366.249C195.722 366.495 195.615 366.783 195.632 367.113C195.652 367.492 195.819 367.79 196.132 368.007C196.445 368.215 196.868 368.304 197.402 368.276C197.927 368.249 198.377 368.108 198.753 367.855C199.139 367.601 199.408 367.246 199.559 366.79L199.886 367.737C199.726 368.203 199.42 368.585 198.968 368.881C198.515 369.167 197.935 369.329 197.226 369.367ZM205.268 368.857L201.993 361.288L203.319 361.218L206.234 368.076L205.608 368.109L207.893 360.978L209.073 360.917L212.032 367.773L211.42 367.805L213.661 360.676L214.914 360.61L212.434 368.482L211.094 368.552L208.327 362.299L208.735 362.278L206.608 368.787L205.268 368.857ZM217.221 371.152C216.852 371.172 216.489 371.127 216.133 371.019C215.777 370.921 215.467 370.762 215.202 370.542L215.744 369.462C215.948 369.637 216.169 369.766 216.407 369.851C216.646 369.936 216.896 369.972 217.158 369.958C217.498 369.94 217.775 369.838 217.989 369.651C218.203 369.465 218.396 369.143 218.567 368.686L218.992 367.598L219.128 367.415L221.791 360.25L223.16 360.178L219.861 368.867C219.667 369.422 219.436 369.863 219.171 370.188C218.915 370.513 218.626 370.748 218.302 370.891C217.979 371.044 217.619 371.131 217.221 371.152ZM218.916 368.39L214.974 360.607L216.43 360.531L219.791 367.249L218.916 368.39ZM228.208 367.743C227.382 367.786 226.645 367.654 225.996 367.348C225.357 367.04 224.847 366.6 224.466 366.025C224.095 365.451 223.89 364.78 223.849 364.013C223.809 363.246 223.939 362.557 224.238 361.948C224.547 361.337 224.984 360.852 225.549 360.491C226.124 360.12 226.78 359.916 227.518 359.877C228.266 359.838 228.935 359.968 229.525 360.268C230.115 360.568 230.586 361.011 230.938 361.596C231.3 362.172 231.501 362.857 231.543 363.654C231.546 363.712 231.545 363.78 231.539 363.858C231.543 363.936 231.542 364.009 231.536 364.077L224.966 364.422L224.914 363.417L230.755 363.111L230.205 363.49C230.189 362.994 230.064 362.558 229.83 362.18C229.596 361.803 229.284 361.518 228.894 361.324C228.513 361.12 228.075 361.031 227.58 361.057C227.094 361.082 226.668 361.217 226.301 361.46C225.933 361.693 225.653 362.015 225.46 362.424C225.267 362.824 225.184 363.276 225.21 363.781L225.222 364.014C225.249 364.529 225.39 364.984 225.645 365.379C225.908 365.765 226.26 366.058 226.699 366.259C227.137 366.46 227.634 366.546 228.187 366.517C228.644 366.493 229.052 366.394 229.413 366.219C229.784 366.044 230.102 365.793 230.367 365.468L231.186 366.331C230.858 366.757 230.438 367.09 229.924 367.332C229.421 367.572 228.849 367.709 228.208 367.743ZM233.794 367.362L233.389 359.642L234.729 359.572L234.839 361.67L234.681 361.152C234.866 360.607 235.204 360.18 235.694 359.872C236.185 359.564 236.799 359.39 237.537 359.352L237.608 360.706C237.549 360.7 237.491 360.698 237.432 360.701C237.384 360.704 237.335 360.706 237.287 360.709C236.539 360.748 235.958 361.002 235.545 361.472C235.131 361.942 234.946 362.599 234.991 363.444L235.192 367.289L233.794 367.362Z" fill="#F5F8FC"/>
<path d="M262 365.851L262 357.685C262 357.58 261.975 357.476 261.927 357.383C261.86 357.238 261.743 357.121 261.598 357.054L254.284 353.78C254.195 353.74 254.098 353.719 254 353.719C253.902 353.719 253.806 353.74 253.717 353.78L246.403 357.054C246.285 357.113 246.185 357.203 246.115 357.314C246.044 357.425 246.004 357.553 246 357.685L246 365.75C246.007 365.881 246.048 366.008 246.118 366.118C246.189 366.229 246.287 366.319 246.403 366.381L253.717 369.655C253.805 369.697 253.902 369.719 254 369.719C254.098 369.719 254.195 369.697 254.284 369.655L261.598 366.381C261.704 366.333 261.796 366.259 261.866 366.166C261.936 366.074 261.982 365.965 262 365.851ZM247.372 358.736L253.315 361.406L253.315 367.972L247.372 365.311L247.372 358.736ZM254.686 361.406L260.629 358.736L260.629 365.311L254.686 367.972L254.686 361.406ZM254.019 355.152L259.66 357.685L254.019 360.209L248.377 357.685L254.019 355.152Z" fill="#FFF177"/>
<g clip-path="url(#clip0_2954_5299)">
<rect width="93.3534" height="93.3534" transform="translate(102.716 0.792969) rotate(4)" fill="#707070"/>
<mask id="path-8-inside-1_2954_5299" fill="white">
<path d="M102.716 0.792969L128.907 2.62447L122.395 95.7505L96.2036 93.919L102.716 0.792969Z"/>
</mask>
<path d="M102.716 0.792969L103.123 -5.02741L97.3022 -5.43441L96.8952 0.385969L102.716 0.792969ZM96.2036 93.919L90.3832 93.512L89.9762 99.3323L95.7966 99.7393L96.2036 93.919ZM102.309 6.61334L128.5 8.44484L129.314 -3.1959L103.123 -5.02741L102.309 6.61334ZM122.802 89.9301L96.6106 88.0986L95.7966 99.7393L121.988 101.571L122.802 89.9301ZM102.024 94.326L108.536 1.19997L96.8952 0.385969L90.3832 93.512L102.024 94.326Z" fill="#595959" mask="url(#path-8-inside-1_2954_5299)"/>
<mask id="path-10-inside-2_2954_5299" fill="white">
<path d="M128.907 2.625L196.088 7.32276L189.576 100.449L122.395 95.751L128.907 2.625Z"/>
</mask>
<path d="M196.088 7.32276L201.908 7.72976L202.315 1.90938L196.495 1.50238L196.088 7.32276ZM189.576 100.449L189.169 106.269L194.989 106.676L195.396 100.856L189.576 100.449ZM128.5 8.44537L195.681 13.1431L196.495 1.50238L129.314 -3.19537L128.5 8.44537ZM190.268 6.91576L183.756 100.042L195.396 100.856L201.908 7.72976L190.268 6.91576ZM189.983 94.6284L122.802 89.9306L121.988 101.571L189.169 106.269L189.983 94.6284Z" fill="#3D3D3D" mask="url(#path-10-inside-2_2954_5299)"/>
<path d="M146.97 38.5539C148.557 38.6649 150.035 39.4019 151.079 40.6029C152.123 41.8039 152.647 43.3704 152.536 44.9578C152.425 46.5452 151.688 48.0235 150.487 49.0675C149.286 50.1115 147.72 50.6356 146.132 50.5246C144.545 50.4136 143.067 49.6766 142.023 48.4756C140.979 47.2746 140.455 45.7081 140.566 44.1207C140.677 42.5333 141.414 41.055 142.615 40.011C143.816 38.967 145.382 38.4429 146.97 38.5539ZM145.923 53.5173C152.537 53.9798 157.707 57.0329 157.475 60.3398L157.266 63.3325L133.325 61.6583L133.534 58.6656C133.765 55.3587 139.309 53.0549 145.923 53.5173Z" fill="#DDE2EB"/>
</g>
<rect x="66.5192" y="112.1" width="159.008" height="47.3383" rx="10.9398" fill="#707070"/>
<path d="M17.662 189.012V188.107H24.9552V189.012H17.662ZM25.0646 189.012V188.107H32.3579V189.012H25.0646ZM32.4673 189.012V188.107H39.7605V189.012H32.4673ZM39.8699 189.012V188.107H47.1631V189.012H39.8699ZM47.2725 189.012V188.107H54.5657V189.012H47.2725ZM54.6751 189.012V188.107H61.9684V189.012H54.6751ZM62.0778 189.012V188.107H69.371V189.012H62.0778ZM69.4804 189.012V188.107H76.7736V189.012H69.4804ZM76.883 189.012V188.107H84.1763V189.012H76.883ZM84.2857 189.012V188.107H91.5789V189.012H84.2857ZM91.6883 189.012V188.107H98.9815V189.012H91.6883ZM99.0909 189.012V188.107H106.384V189.012H99.0909ZM106.494 189.012V188.107H113.787V189.012H106.494ZM113.896 189.012V188.107H121.189V189.012H113.896ZM121.299 189.012V188.107H128.592V189.012H121.299ZM128.701 189.012V188.107H135.995V189.012H128.701ZM136.104 189.012V188.107H143.397V189.012H136.104ZM143.507 189.012V188.107H150.8V189.012H143.507ZM150.909 189.012V188.107H158.203V189.012H150.909ZM158.312 189.012V188.107H165.605V189.012H158.312ZM165.715 189.012V188.107H173.008V189.012H165.715ZM173.117 189.012V188.107H180.41V189.012H173.117ZM180.52 189.012V188.107H187.813V189.012H180.52ZM187.923 189.012V188.107H195.216V189.012H187.923ZM195.325 189.012V188.107H202.618V189.012H195.325ZM202.728 189.012V188.107H210.021V189.012H202.728ZM210.13 189.012V188.107H217.424V189.012H210.13ZM217.533 189.012V188.107H224.826V189.012H217.533ZM224.936 189.012V188.107H232.229V189.012H224.936ZM232.338 189.012V188.107H239.632V189.012H232.338ZM239.741 189.012V188.107H247.034V189.012H239.741ZM247.144 189.012V188.107H254.437V189.012H247.144ZM254.546 189.012V188.107H261.839V189.012H254.546ZM261.949 189.012V188.107H269.242V189.012H261.949ZM17.662 212.012V211.107H24.9552V212.012H17.662ZM25.0646 212.012V211.107H32.3579V212.012H25.0646ZM32.4673 212.012V211.107H39.7605V212.012H32.4673ZM39.8699 212.012V211.107H47.1631V212.012H39.8699ZM47.2725 212.012V211.107H54.5657V212.012H47.2725ZM54.6751 212.012V211.107H61.9684V212.012H54.6751ZM62.0778 212.012V211.107H69.371V212.012H62.0778ZM69.4804 212.012V211.107H76.7736V212.012H69.4804ZM76.883 212.012V211.107H84.1763V212.012H76.883ZM84.2857 212.012V211.107H91.5789V212.012H84.2857ZM91.6883 212.012V211.107H98.9815V212.012H91.6883ZM99.0909 212.012V211.107H106.384V212.012H99.0909ZM106.494 212.012V211.107H113.787V212.012H106.494ZM113.896 212.012V211.107H121.189V212.012H113.896ZM121.299 212.012V211.107H128.592V212.012H121.299ZM128.701 212.012V211.107H135.995V212.012H128.701ZM136.104 212.012V211.107H143.397V212.012H136.104ZM143.507 212.012V211.107H150.8V212.012H143.507ZM150.909 212.012V211.107H158.203V212.012H150.909ZM158.312 212.012V211.107H165.605V212.012H158.312ZM165.715 212.012V211.107H173.008V212.012H165.715ZM173.117 212.012V211.107H180.41V212.012H173.117ZM180.52 212.012V211.107H187.813V212.012H180.52ZM187.923 212.012V211.107H195.216V212.012H187.923ZM195.325 212.012V211.107H202.618V212.012H195.325ZM202.728 212.012V211.107H210.021V212.012H202.728ZM210.13 212.012V211.107H217.424V212.012H210.13ZM217.533 212.012V211.107H224.826V212.012H217.533ZM224.936 212.012V211.107H232.229V212.012H224.936ZM232.338 212.012V211.107H239.632V212.012H232.338ZM239.741 212.012V211.107H247.034V212.012H239.741ZM247.144 212.012V211.107H254.437V212.012H247.144ZM254.546 212.012V211.107H261.839V212.012H254.546ZM261.949 212.012V211.107H269.242V212.012H261.949ZM17.662 236.012V235.107H24.9552V236.012H17.662ZM25.0646 236.012V235.107H32.3579V236.012H25.0646ZM32.4673 236.012V235.107H39.7605V236.012H32.4673ZM39.8699 236.012V235.107H47.1631V236.012H39.8699ZM47.2725 236.012V235.107H54.5657V236.012H47.2725ZM54.6751 236.012V235.107H61.9684V236.012H54.6751ZM62.0778 236.012V235.107H69.371V236.012H62.0778ZM69.4804 236.012V235.107H76.7736V236.012H69.4804ZM76.883 236.012V235.107H84.1763V236.012H76.883ZM84.2857 236.012V235.107H91.5789V236.012H84.2857ZM91.6883 236.012V235.107H98.9815V236.012H91.6883ZM99.0909 236.012V235.107H106.384V236.012H99.0909ZM106.494 236.012V235.107H113.787V236.012H106.494ZM113.896 236.012V235.107H121.189V236.012H113.896ZM121.299 236.012V235.107H128.592V236.012H121.299ZM128.701 236.012V235.107H135.995V236.012H128.701ZM136.104 236.012V235.107H143.397V236.012H136.104ZM143.507 236.012V235.107H150.8V236.012H143.507ZM150.909 236.012V235.107H158.203V236.012H150.909ZM158.312 236.012V235.107H165.605V236.012H158.312ZM165.715 236.012V235.107H173.008V236.012H165.715ZM173.117 236.012V235.107H180.41V236.012H173.117ZM180.52 236.012V235.107H187.813V236.012H180.52ZM187.923 236.012V235.107H195.216V236.012H187.923ZM195.325 236.012V235.107H202.618V236.012H195.325ZM202.728 236.012V235.107H210.021V236.012H202.728ZM210.13 236.012V235.107H217.424V236.012H210.13ZM217.533 236.012V235.107H224.826V236.012H217.533ZM224.936 236.012V235.107H232.229V236.012H224.936ZM232.338 236.012V235.107H239.632V236.012H232.338ZM239.741 236.012V235.107H247.034V236.012H239.741ZM247.144 236.012V235.107H254.437V236.012H247.144ZM254.546 236.012V235.107H261.839V236.012H254.546ZM261.949 236.012V235.107H269.242V236.012H261.949ZM17.662 259.012V258.107H24.9552V259.012H17.662ZM25.0646 259.012V258.107H32.3579V259.012H25.0646ZM32.4673 259.012V258.107H39.7605V259.012H32.4673ZM39.8699 259.012V258.107H47.1631V259.012H39.8699ZM47.2725 259.012V258.107H54.5657V259.012H47.2725ZM54.6751 259.012V258.107H61.9684V259.012H54.6751ZM62.0778 259.012V258.107H69.371V259.012H62.0778ZM69.4804 259.012V258.107H76.7736V259.012H69.4804ZM76.883 259.012V258.107H84.1763V259.012H76.883ZM84.2857 259.012V258.107H91.5789V259.012H84.2857ZM91.6883 259.012V258.107H98.9815V259.012H91.6883ZM99.0909 259.012V258.107H106.384V259.012H99.0909ZM106.494 259.012V258.107H113.787V259.012H106.494ZM113.896 259.012V258.107H121.189V259.012H113.896ZM121.299 259.012V258.107H128.592V259.012H121.299ZM128.701 259.012V258.107H135.995V259.012H128.701ZM136.104 259.012V258.107H143.397V259.012H136.104ZM143.507 259.012V258.107H150.8V259.012H143.507ZM150.909 259.012V258.107H158.203V259.012H150.909ZM158.312 259.012V258.107H165.605V259.012H158.312ZM165.715 259.012V258.107H173.008V259.012H165.715ZM173.117 259.012V258.107H180.41V259.012H173.117ZM180.52 259.012V258.107H187.813V259.012H180.52ZM187.923 259.012V258.107H195.216V259.012H187.923ZM195.325 259.012V258.107H202.618V259.012H195.325ZM202.728 259.012V258.107H210.021V259.012H202.728ZM210.13 259.012V258.107H217.424V259.012H210.13ZM217.533 259.012V258.107H224.826V259.012H217.533ZM224.936 259.012V258.107H232.229V259.012H224.936ZM232.338 259.012V258.107H239.632V259.012H232.338ZM239.741 259.012V258.107H247.034V259.012H239.741ZM247.144 259.012V258.107H254.437V259.012H247.144ZM254.546 259.012V258.107H261.839V259.012H254.546ZM261.949 259.012V258.107H269.242V259.012H261.949ZM17.662 282.012V281.107H24.9552V282.012H17.662ZM25.0646 282.012V281.107H32.3579V282.012H25.0646ZM32.4673 282.012V281.107H39.7605V282.012H32.4673ZM39.8699 282.012V281.107H47.1631V282.012H39.8699ZM47.2725 282.012V281.107H54.5657V282.012H47.2725ZM54.6751 282.012V281.107H61.9684V282.012H54.6751ZM62.0778 282.012V281.107H69.371V282.012H62.0778ZM69.4804 282.012V281.107H76.7736V282.012H69.4804ZM76.883 282.012V281.107H84.1763V282.012H76.883ZM84.2857 282.012V281.107H91.5789V282.012H84.2857ZM91.6883 282.012V281.107H98.9815V282.012H91.6883ZM99.0909 282.012V281.107H106.384V282.012H99.0909ZM106.494 282.012V281.107H113.787V282.012H106.494ZM113.896 282.012V281.107H121.189V282.012H113.896ZM121.299 282.012V281.107H128.592V282.012H121.299ZM128.701 282.012V281.107H135.995V282.012H128.701ZM136.104 282.012V281.107H143.397V282.012H136.104ZM143.507 282.012V281.107H150.8V282.012H143.507ZM150.909 282.012V281.107H158.203V282.012H150.909ZM158.312 282.012V281.107H165.605V282.012H158.312ZM165.715 282.012V281.107H173.008V282.012H165.715ZM173.117 282.012V281.107H180.41V282.012H173.117ZM180.52 282.012V281.107H187.813V282.012H180.52ZM187.923 282.012V281.107H195.216V282.012H187.923ZM195.325 282.012V281.107H202.618V282.012H195.325ZM202.728 282.012V281.107H210.021V282.012H202.728ZM210.13 282.012V281.107H217.424V282.012H210.13ZM217.533 282.012V281.107H224.826V282.012H217.533ZM224.936 282.012V281.107H232.229V282.012H224.936ZM232.338 282.012V281.107H239.632V282.012H232.338ZM239.741 282.012V281.107H247.034V282.012H239.741ZM247.144 282.012V281.107H254.437V282.012H247.144ZM254.546 282.012V281.107H261.839V282.012H254.546ZM261.949 282.012V281.107H269.242V282.012H261.949Z" fill="#F5F8FC"/>
<rect x="65.8429" y="299.777" width="160.36" height="35.0075" rx="17.5038" fill="#00C8B6"/>
<defs>
<clipPath id="clip0_2954_5299">
<rect x="102.716" y="0.792969" width="93.3534" height="93.3534" rx="10.9398" transform="rotate(4 102.716 0.792969)" fill="white"/>
</clipPath>
</defs>
</svg>
