<svg width="404" height="286" viewBox="0 0 404 286" fill="none" xmlns="http://www.w3.org/2000/svg">
<g clip-path="url(#clip0_2959_11036)">
<circle cx="201.75" cy="201.846" r="110" stroke="#707070" stroke-width="4"/>
</g>
<circle cx="201.75" cy="201.846" r="84" fill="#595959"/>
<g filter="url(#filter0_d_2959_11036)">
<circle cx="201.75" cy="201.846" r="64" fill="#707070"/>
<circle cx="201.75" cy="201.846" r="64.5" stroke="#595959"/>
</g>
<path d="M233.75 218.373V185.709C233.749 185.29 233.648 184.876 233.457 184.502C233.188 183.922 232.722 183.455 232.141 183.186L202.884 170.091C202.528 169.929 202.141 169.846 201.75 169.846C201.359 169.846 200.972 169.929 200.616 170.091L171.359 183.186C170.889 183.422 170.491 183.782 170.207 184.226C169.924 184.67 169.766 185.183 169.75 185.709V217.971C169.777 218.494 169.94 219.002 170.222 219.445C170.504 219.887 170.896 220.249 171.359 220.494L200.616 233.589C200.97 233.758 201.358 233.846 201.75 233.846C202.142 233.846 202.53 233.758 202.884 233.589L232.141 220.494C232.563 220.301 232.931 220.006 233.212 219.636C233.493 219.266 233.678 218.832 233.75 218.373ZM175.236 189.916L199.007 200.596V226.859L175.236 216.215V189.916ZM204.493 200.596L228.264 189.916V216.215L204.493 226.859V200.596ZM201.823 175.578L224.388 185.709L201.823 195.805L179.259 185.709L201.823 175.578Z" fill="#FFF177"/>
<rect x="58.75" y="199.846" width="28" height="5" fill="#707070"/>
<circle cx="91.75" cy="201.846" r="8" fill="#707070"/>
<g clip-path="url(#clip1_2959_11036)">
<circle cx="32.75" cy="201.846" r="32" fill="#707070"/>
<g clip-path="url(#clip2_2959_11036)">
<path d="M45.5 177.846H20C13.7868 177.846 8.75 182.882 8.75 189.096V214.596C8.75 220.809 13.7868 225.846 20 225.846H45.5C51.7132 225.846 56.75 220.809 56.75 214.596V189.096C56.75 182.882 51.7132 177.846 45.5 177.846Z" fill="url(#paint0_radial_2959_11036)"/>
<path d="M45.5 177.846H20C13.7868 177.846 8.75 182.882 8.75 189.096V214.596C8.75 220.809 13.7868 225.846 20 225.846H45.5C51.7132 225.846 56.75 220.809 56.75 214.596V189.096C56.75 182.882 51.7132 177.846 45.5 177.846Z" fill="url(#paint1_radial_2959_11036)"/>
<path d="M32.7513 185.846C28.406 185.846 27.8606 185.865 26.1541 185.942C24.4507 186.02 23.288 186.29 22.2707 186.686C21.2183 187.094 20.3256 187.641 19.4364 188.531C18.5463 189.42 17.9996 190.313 17.5897 191.365C17.1929 192.382 16.923 193.545 16.8463 195.248C16.77 196.955 16.75 197.5 16.75 201.846C16.75 206.191 16.7692 206.735 16.8466 208.441C16.925 210.145 17.1946 211.307 17.59 212.325C17.9989 213.377 18.5457 214.27 19.4353 215.159C20.3244 216.049 21.217 216.597 22.2687 217.006C23.2867 217.401 24.4496 217.671 26.1526 217.749C27.8593 217.827 28.4043 217.846 32.7494 217.846C37.0951 217.846 37.6388 217.827 39.3453 217.749C41.0486 217.671 42.2126 217.401 43.2307 217.006C44.2827 216.597 45.174 216.049 46.063 215.159C46.9531 214.27 47.4996 213.377 47.9097 212.325C48.303 211.307 48.573 210.144 48.653 208.442C48.7297 206.735 48.7497 206.191 48.7497 201.846C48.7497 197.5 48.7297 196.955 48.653 195.248C48.573 193.545 48.303 192.382 47.9097 191.365C47.4996 190.313 46.9531 189.42 46.063 188.531C45.1731 187.641 44.283 187.094 43.2297 186.686C42.2097 186.29 41.0464 186.02 39.3431 185.942C37.6364 185.865 37.093 185.846 32.7463 185.846H32.7513ZM31.3159 188.729C31.742 188.728 32.2174 188.729 32.7513 188.729C37.0234 188.729 37.5296 188.744 39.2167 188.821C40.7766 188.892 41.6234 189.153 42.1873 189.372C42.9341 189.662 43.4664 190.009 44.026 190.569C44.586 191.129 44.9326 191.662 45.2233 192.409C45.4424 192.972 45.7033 193.819 45.7744 195.379C45.851 197.065 45.8676 197.572 45.8676 201.842C45.8676 206.112 45.851 206.619 45.7744 208.305C45.703 209.865 45.4424 210.712 45.2233 211.275C44.9334 212.022 44.586 212.554 44.026 213.113C43.4661 213.673 42.9344 214.02 42.1873 214.31C41.624 214.53 40.7766 214.79 39.2167 214.861C37.53 214.938 37.0234 214.955 32.7513 214.955C28.479 214.955 27.9726 214.938 26.2861 214.861C24.7261 214.789 23.8794 214.529 23.3149 214.31C22.5683 214.02 22.0349 213.673 21.4749 213.113C20.9149 212.553 20.5684 212.021 20.2776 211.274C20.0586 210.711 19.7976 209.864 19.7266 208.304C19.65 206.617 19.6346 206.111 19.6346 201.838C19.6346 197.565 19.65 197.061 19.7266 195.375C19.798 193.815 20.0586 192.968 20.2776 192.404C20.5677 191.657 20.9149 191.124 21.4751 190.564C22.0351 190.004 22.5683 189.657 23.3151 189.367C23.879 189.147 24.7261 188.887 26.2861 188.815C27.762 188.748 28.334 188.728 31.3159 188.725V188.729ZM41.292 191.386C40.232 191.386 39.372 192.245 39.372 193.305C39.372 194.365 40.232 195.225 41.292 195.225C42.352 195.225 43.212 194.365 43.212 193.305C43.212 192.245 42.352 191.385 41.292 191.385V191.386ZM32.7513 193.629C28.2137 193.629 24.5347 197.308 24.5347 201.846C24.5347 206.383 28.2137 210.061 32.7513 210.061C37.289 210.061 40.9667 206.383 40.9667 201.846C40.9667 197.308 37.2887 193.629 32.751 193.629H32.7513ZM32.7513 196.512C35.6967 196.512 38.0847 198.9 38.0847 201.846C38.0847 204.791 35.6967 207.179 32.7513 207.179C29.8057 207.179 27.4181 204.791 27.4181 201.846C27.4181 198.9 29.8057 196.512 32.7513 196.512Z" fill="white"/>
</g>
</g>
<rect x="94.8029" y="107.07" width="28" height="5" transform="rotate(45 94.8029 107.07)" fill="#707070"/>
<circle cx="116.723" cy="131.82" r="8" transform="rotate(45 116.723 131.82)" fill="#707070"/>
<g clip-path="url(#clip3_2959_11036)">
<circle cx="75.0039" cy="90.1005" r="32" transform="rotate(45 75.0039 90.1005)" fill="#707070"/>
<g clip-path="url(#clip4_2959_11036)">
<path d="M74.7993 66.377C68.4356 66.377 62.3268 68.9071 57.8306 73.4063C53.3297 77.9074 50.8006 84.0116 50.7993 90.377C50.7993 96.7396 53.3306 102.848 57.8306 107.348C62.3268 111.847 68.4356 114.377 74.7993 114.377C81.1631 114.377 87.2718 111.847 91.7681 107.348C96.2681 102.848 98.7993 96.7396 98.7993 90.377C98.7993 84.0143 96.2681 77.9056 91.7681 73.4063C87.2718 68.9071 81.1631 66.377 74.7993 66.377Z" fill="url(#paint2_linear_2959_11036)"/>
<path d="M61.6631 90.123C68.6606 87.075 73.3256 85.0654 75.6581 84.0945C82.3256 81.3222 83.7094 80.8407 84.6131 80.8244C84.8119 80.8212 85.2544 80.8703 85.5431 81.1037C85.7831 81.3006 85.8506 81.5669 85.8844 81.7538C85.9144 81.9405 85.9556 82.3662 85.9219 82.6984C85.5619 86.4934 83.9981 95.7027 83.2031 99.9533C82.8694 101.752 82.2056 102.355 81.5644 102.414C80.1694 102.542 79.1119 101.493 77.7619 100.608C75.6506 99.2232 74.4581 98.3614 72.4069 97.0103C70.0369 95.4488 71.5744 94.5904 72.9244 93.1879C73.2769 92.8208 79.4194 87.2352 79.5356 86.7285C79.5506 86.6652 79.5656 86.4289 79.4231 86.3044C79.2844 86.1795 79.0781 86.2223 78.9281 86.256C78.7144 86.304 75.3431 88.5345 68.8031 92.9472C67.8469 93.6049 66.9806 93.9255 66.2006 93.9087C65.3456 93.8903 63.6956 93.4242 62.4694 93.0259C60.9694 92.5373 59.7731 92.2789 59.8781 91.449C59.9306 91.017 60.5269 90.5749 61.6631 90.123Z" fill="white"/>
</g>
</g>
<rect x="311.779" y="109.9" width="28" height="5" transform="rotate(135 311.779 109.9)" fill="#707070"/>
<circle cx="287.03" cy="131.82" r="8" transform="rotate(135 287.03 131.82)" fill="#707070"/>
<g clip-path="url(#clip5_2959_11036)">
<circle cx="328.749" cy="90.1016" r="32" transform="rotate(135 328.749 90.1016)" fill="#707070"/>
<g clip-path="url(#clip6_2959_11036)">
<path d="M305.564 90.1674C305.563 94.2137 306.625 98.1646 308.645 101.647L305.371 113.545L317.602 110.353C320.985 112.186 324.776 113.147 328.627 113.147H328.637C341.353 113.147 351.703 102.846 351.709 90.1855C351.711 84.0504 349.313 78.2814 344.957 73.9411C340.601 69.6012 334.809 67.2098 328.637 67.207C315.92 67.207 305.57 77.5071 305.565 90.1674" fill="url(#paint3_linear_2959_11036)"/>
<path d="M304.741 90.1609C304.739 94.3528 305.839 98.445 307.931 102.052L304.54 114.377L317.21 111.07C320.7 112.965 324.631 113.964 328.63 113.965H328.641C341.812 113.965 352.534 103.294 352.54 90.1799C352.542 83.8244 350.058 77.848 345.546 73.3522C341.034 68.857 335.034 66.3796 328.641 66.377C315.467 66.377 304.746 77.0466 304.741 90.1609H304.741ZM312.286 101.431L311.813 100.683C309.824 97.5354 308.774 93.8977 308.776 90.1624C308.78 79.2622 317.691 70.394 328.648 70.394C333.954 70.3962 338.941 72.4555 342.692 76.1917C346.442 79.9284 348.506 84.8955 348.505 90.1784C348.5 101.079 339.589 109.948 328.641 109.948H328.633C325.068 109.946 321.571 108.993 318.522 107.192L317.797 106.763L310.278 108.726L312.286 101.431V101.431Z" fill="url(#paint4_linear_2959_11036)"/>
<path d="M322.667 80.2168C322.22 79.2269 321.749 79.207 321.324 79.1896C320.975 79.1747 320.577 79.1758 320.179 79.1758C319.781 79.1758 319.134 79.3249 318.587 79.9195C318.039 80.5146 316.497 81.9526 316.497 84.8774C316.497 87.8025 318.637 90.6291 318.935 91.0261C319.234 91.4224 323.066 97.6167 329.136 99.9996C334.18 101.98 335.207 101.586 336.302 101.487C337.397 101.388 339.835 100.049 340.332 98.6609C340.83 97.2728 340.83 96.083 340.681 95.8344C340.532 95.5867 340.133 95.4379 339.536 95.1408C338.939 94.8434 336.003 93.4052 335.456 93.2067C334.908 93.0085 334.51 92.9096 334.112 93.5048C333.714 94.0992 332.57 95.4379 332.221 95.8344C331.873 96.2318 331.525 96.2813 330.928 95.9839C330.33 95.6856 328.407 95.0586 326.125 93.0335C324.35 91.4577 323.152 89.5117 322.803 88.9165C322.455 88.3221 322.766 88 323.065 87.7037C323.334 87.4373 323.663 87.0095 323.962 86.6625C324.259 86.3153 324.359 86.0676 324.558 85.6711C324.757 85.2743 324.657 84.9271 324.508 84.6297C324.359 84.3324 323.198 81.3924 322.667 80.217" fill="white"/>
</g>
</g>
<rect x="345.25" y="203.873" width="28" height="5" transform="rotate(-180 345.25 203.873)" fill="#707070"/>
<circle cx="312.25" cy="201.873" r="8" transform="rotate(-180 312.25 201.873)" fill="#707070"/>
<g clip-path="url(#clip7_2959_11036)">
<circle cx="371.25" cy="201.873" r="32" transform="rotate(-180 371.25 201.873)" fill="#707070"/>
<g clip-path="url(#clip8_2959_11036)">
<path d="M383.657 177.92H358.157C351.944 177.92 346.907 182.957 346.907 189.17V214.67C346.907 220.883 351.944 225.92 358.157 225.92H383.657C389.87 225.92 394.907 220.883 394.907 214.67V189.17C394.907 182.957 389.87 177.92 383.657 177.92Z" fill="white"/>
<path d="M383.657 177.92H358.157C351.944 177.92 346.907 182.957 346.907 189.17V214.67C346.907 220.883 351.944 225.92 358.157 225.92H383.657C389.87 225.92 394.907 220.883 394.907 214.67V189.17C394.907 182.957 389.87 177.92 383.657 177.92Z" fill="#1D9BF0"/>
<path d="M385.541 195.696C385.562 195.994 385.562 196.291 385.562 196.592C385.562 205.741 378.597 216.293 365.86 216.293V216.288C362.098 216.293 358.413 215.215 355.247 213.184C355.794 213.249 356.343 213.282 356.895 213.284C360.013 213.286 363.042 212.24 365.494 210.314C364.049 210.286 362.649 209.808 361.489 208.946C360.329 208.084 359.468 206.881 359.025 205.505C360.063 205.705 361.132 205.664 362.151 205.386C358.921 204.733 356.597 201.895 356.597 198.599V198.511C357.56 199.047 358.638 199.345 359.74 199.378C356.697 197.344 355.759 193.297 357.597 190.132C359.335 192.271 361.504 194.021 363.962 195.267C366.421 196.514 369.114 197.229 371.867 197.366C371.593 196.185 371.633 194.952 371.985 193.791C372.336 192.63 372.987 191.582 373.87 190.751C376.659 188.129 381.045 188.264 383.667 191.051C385.218 190.745 386.705 190.176 388.064 189.37C387.547 190.973 386.466 192.334 385.02 193.199C386.393 193.038 387.733 192.67 388.997 192.11C388.067 193.501 386.897 194.716 385.541 195.696Z" fill="white"/>
</g>
</g>
<rect x="203.75" y="58.8457" width="28" height="5" transform="rotate(90 203.75 58.8457)" fill="#707070"/>
<circle cx="201.75" cy="91.8457" r="8" transform="rotate(90 201.75 91.8457)" fill="#707070"/>
<g clip-path="url(#clip9_2959_11036)">
<circle cx="201.75" cy="32.8457" r="32" transform="rotate(90 201.75 32.8457)" fill="#707070"/>
<rect x="225.75" y="8.8457" width="48" height="48" rx="24" transform="rotate(90 225.75 8.8457)" fill="#5865F2"/>
<path d="M213.419 22.4828C211.321 21.5009 209.101 20.8032 206.818 20.4082C206.533 20.9223 206.201 21.6138 205.972 22.164C203.51 21.7938 201.072 21.7938 198.655 22.164C198.426 21.614 198.087 20.9223 197.8 20.4082C195.514 20.8034 193.292 21.5029 191.193 22.488C187.015 28.8016 185.882 34.9582 186.448 41.0277C189.219 43.0971 191.905 44.3542 194.545 45.1768C195.201 44.2745 195.781 43.3191 196.279 42.3207C195.331 41.9598 194.418 41.515 193.549 40.9917C193.777 40.8222 194.001 40.6456 194.218 40.4621C199.483 42.9248 205.204 42.9248 210.407 40.4621C210.625 40.6444 210.849 40.821 211.076 40.9917C210.206 41.5164 209.29 41.9621 208.34 42.3233C208.841 43.3258 209.42 44.2821 210.075 45.1793C212.717 44.3568 215.405 43.0997 218.176 41.0277C218.841 33.9917 217.041 27.8916 213.419 22.4828ZM196.997 37.2951C195.416 37.2951 194.12 35.8195 194.12 34.0226C194.12 32.2257 195.388 30.7476 196.997 30.7476C198.605 30.7476 199.901 32.2231 199.874 34.0226C199.876 35.8195 198.605 37.2951 196.997 37.2951ZM207.628 37.2951C206.047 37.2951 204.751 35.8195 204.751 34.0226C204.751 32.2257 206.02 30.7476 207.628 30.7476C209.236 30.7476 210.533 32.2231 210.505 34.0226C210.505 35.8195 209.236 37.2951 207.628 37.2951Z" fill="white"/>
</g>
<defs>
<filter id="filter0_d_2959_11036" x="132.75" y="136.846" width="138" height="138" filterUnits="userSpaceOnUse" color-interpolation-filters="sRGB">
<feFlood flood-opacity="0" result="BackgroundImageFix"/>
<feColorMatrix in="SourceAlpha" type="matrix" values="0 0 0 0 0 0 0 0 0 0 0 0 0 0 0 0 0 0 127 0" result="hardAlpha"/>
<feOffset dy="4"/>
<feGaussianBlur stdDeviation="2"/>
<feComposite in2="hardAlpha" operator="out"/>
<feColorMatrix type="matrix" values="0 0 0 0 0 0 0 0 0 0 0 0 0 0 0 0 0 0 0.25 0"/>
<feBlend mode="normal" in2="BackgroundImageFix" result="effect1_dropShadow_2959_11036"/>
<feBlend mode="normal" in="SourceGraphic" in2="effect1_dropShadow_2959_11036" result="shape"/>
</filter>
<radialGradient id="paint0_radial_2959_11036" cx="0" cy="0" r="1" gradientUnits="userSpaceOnUse" gradientTransform="translate(21.5 229.543) rotate(-90) scale(47.5716 44.2453)">
<stop stop-color="#FFDD55"/>
<stop offset="0.1" stop-color="#FFDD55"/>
<stop offset="0.5" stop-color="#FF543E"/>
<stop offset="1" stop-color="#C837AB"/>
</radialGradient>
<radialGradient id="paint1_radial_2959_11036" cx="0" cy="0" r="1" gradientUnits="userSpaceOnUse" gradientTransform="translate(0.709813 181.303) rotate(78.681) scale(21.2648 87.654)">
<stop stop-color="#3771C8"/>
<stop offset="0.128" stop-color="#3771C8"/>
<stop offset="1" stop-color="#6600FF" stop-opacity="0"/>
</radialGradient>
<linearGradient id="paint2_linear_2959_11036" x1="74.7993" y1="66.377" x2="74.7993" y2="114.377" gradientUnits="userSpaceOnUse">
<stop stop-color="#2AABEE"/>
<stop offset="1" stop-color="#229ED9"/>
</linearGradient>
<linearGradient id="paint3_linear_2959_11036" x1="328.54" y1="113.545" x2="328.54" y2="67.207" gradientUnits="userSpaceOnUse">
<stop stop-color="#1FAF38"/>
<stop offset="1" stop-color="#60D669"/>
</linearGradient>
<linearGradient id="paint4_linear_2959_11036" x1="328.54" y1="114.377" x2="328.54" y2="66.377" gradientUnits="userSpaceOnUse">
<stop stop-color="#F9F9F9"/>
<stop offset="1" stop-color="white"/>
</linearGradient>
<clipPath id="clip0_2959_11036">
<rect width="224" height="119" fill="white" transform="translate(90.25 89.873)"/>
</clipPath>
<clipPath id="clip1_2959_11036">
<rect width="64" height="64" fill="white" transform="translate(0.75 169.846)"/>
</clipPath>
<clipPath id="clip2_2959_11036">
<rect x="8.75" y="177.846" width="48" height="48" rx="24" fill="white"/>
</clipPath>
<clipPath id="clip3_2959_11036">
<rect width="64" height="64" fill="white" transform="translate(75.0039 44.8457) rotate(45)"/>
</clipPath>
<clipPath id="clip4_2959_11036">
<rect x="75.0039" y="56.1602" width="48" height="48" rx="24" transform="rotate(45 75.0039 56.1602)" fill="white"/>
</clipPath>
<clipPath id="clip5_2959_11036">
<rect width="64" height="64" fill="white" transform="translate(374.004 90.1016) rotate(135)"/>
</clipPath>
<clipPath id="clip6_2959_11036">
<rect x="328.745" y="56.1602" width="48" height="48" rx="24" transform="rotate(45 328.745 56.1602)" fill="white"/>
</clipPath>
<clipPath id="clip7_2959_11036">
<rect width="64" height="64" fill="white" transform="matrix(-1 0 0 -1 403.25 233.873)"/>
</clipPath>
<clipPath id="clip8_2959_11036">
<rect x="395.247" y="177.871" width="48" height="48" rx="24" transform="rotate(90 395.247 177.871)" fill="white"/>
</clipPath>
<clipPath id="clip9_2959_11036">
<rect width="64" height="64" fill="white" transform="matrix(0 1 -1 0 233.75 0.845703)"/>
</clipPath>
</defs>
</svg>
