<svg width="1562" height="1262" viewBox="0 0 1562 1262" fill="none" xmlns="http://www.w3.org/2000/svg">
<path d="M907.27 695.295L664.281 836.12L426.147 680.897L669.17 540.08L907.27 695.295ZM1552.46 466.656C1548.95 464.36 1543.12 464.186 1539.5 466.268C1536.24 468.163 1535.9 471.237 1538.46 473.54L1491.96 500.503L1379.05 497.082L1173.43 616.254L994.444 610.898L881.831 676.184L830.424 642.657L961.428 566.712L1100.97 570.93L1260.9 478.234C1264.42 479.942 1269.44 479.897 1272.73 478.007C1276.32 475.923 1276.38 472.376 1272.87 470.045C1269.31 467.744 1263.49 467.57 1259.9 469.657C1256.61 471.547 1256.3 474.622 1258.83 476.928L1100.45 568.688L965.018 564.635L1137.49 464.7L1138.01 464.368L1139.4 380.013L1397.45 230.467C1401.01 232.176 1406.03 232.128 1409.29 230.272C1412.91 228.157 1412.97 224.607 1409.42 222.271C1405.87 219.98 1400.08 219.807 1396.45 221.883C1393.19 223.778 1392.85 226.852 1395.42 229.155L1137.89 378.365L1137.37 378.704L1135.98 463.056L828.39 641.303L784.166 612.486L968.518 505.652L969.036 505.356L971.836 335.789L1135.99 240.642C1139.55 242.351 1144.57 242.306 1147.82 240.418C1151.45 238.332 1151.51 234.743 1147.96 232.455C1144.41 230.116 1138.62 229.943 1134.99 232.067C1131.74 233.956 1131.39 237.03 1133.96 239.294L970.324 334.141L969.806 334.437L967.006 504.005L782.136 611.139L754.839 593.372L891.798 513.975L895.081 315.216L960.935 277.077L962.17 202.328L1020.32 168.609C1023.85 170.314 1028.87 170.311 1032.17 168.417C1035.75 166.298 1035.81 162.741 1032.3 160.41C1028.74 158.122 1022.92 157.948 1019.33 160.022C1016.08 161.92 1015.73 165.036 1018.26 167.293L960.139 200.98L958.904 275.768L893.05 313.901L889.768 512.627L752.812 592.025L715.98 568.041L820.789 507.283L826.235 175.255L824.181 175.194L820.968 369.7L769.494 336.139L771.296 227.076C773.273 227.015 775.226 226.567 776.784 225.677C780.402 223.562 780.46 220.012 776.916 217.676C773.358 215.385 767.572 215.212 763.943 217.288C760.321 219.409 760.263 222.96 763.81 225.289C765.331 226.27 767.231 226.834 769.247 227.015L767.425 337.326L820.927 372.202L819.958 430.867L752.243 386.706C754.662 384.552 754.344 381.575 751.222 379.528C747.674 377.231 741.852 377.057 738.261 379.14C734.635 381.216 734.576 384.805 738.13 387.102C741.393 389.267 746.594 389.54 750.207 387.932L819.917 433.368L818.752 505.971L713.949 566.69L681.14 545.32L732.085 515.799L732.84 470.092L720.219 461.901L720.604 438.593L630.63 379.94L631.283 340.434L558.055 292.712C560.693 290.564 560.451 287.469 557.259 285.385C553.705 283.088 547.919 282.915 544.295 284.997C540.671 287.111 540.612 290.662 544.163 293.001C547.355 295.047 552.368 295.388 555.979 293.897L629.216 341.663L628.564 381.126L718.535 439.786L718.192 460.554L566.988 361.986C569.406 359.868 569.089 356.855 565.967 354.844C562.419 352.512 556.63 352.338 553.006 354.456C549.379 356.535 549.32 360.086 552.874 362.418C556.138 364.547 561.336 364.82 564.952 363.215L686.181 442.25L624.72 440.41L554.977 394.937C557.612 392.793 557.369 389.701 554.178 387.613C550.63 385.317 544.841 385.143 541.214 387.226C537.587 389.34 537.528 392.891 541.082 395.227C544.273 397.311 549.287 397.621 552.904 396.123L624.137 442.58L689.509 444.537L689.511 444.423L730.764 471.314L730.051 514.49L679.112 544.011L669.722 537.874L669.211 537.543L656.085 545.152L446.511 408.527L446.29 408.397L388.538 406.669C388.227 405.567 387.401 404.529 386.059 403.666C382.544 401.377 376.718 401.202 373.092 403.278C369.504 405.4 369.445 408.954 372.96 411.282C376.514 413.579 382.34 413.754 385.927 411.67C387.296 410.889 388.155 409.901 388.502 408.861L445.707 410.573L654.009 546.345L621.489 565.214L447.338 451.665C449.976 449.553 449.73 446.462 446.542 444.374C442.985 442.041 437.199 441.868 433.578 443.986C429.951 446.068 429.892 449.661 433.447 451.948C436.635 454.036 441.649 454.342 445.262 452.893L619.419 566.393L585.751 585.933L339.639 425.48L341.754 297.403L460.217 228.782L568.145 232.012L654.494 181.989C658.055 183.694 663.075 183.65 666.332 181.758C669.959 179.679 670.018 176.086 666.463 173.796C662.912 171.499 657.123 171.326 653.5 173.408C650.243 175.299 649.902 178.374 652.463 180.68L567.631 229.806L463.767 226.697L607.718 143.294L608.233 142.994L610.117 28.9017C612.137 28.8419 614.051 28.3564 615.603 27.4603C619.229 25.3847 619.289 21.7919 615.734 19.4981C612.183 17.2078 606.394 17.0345 602.77 19.1102C599.146 21.1891 599.087 24.782 602.639 27.0724C604.165 28.0605 606.095 28.6611 608.068 28.8404L606.205 141.646L366.877 280.35L222.597 186.329L224.263 85.4583L121.78 18.6594C124.418 16.551 124.175 13.4561 120.984 11.3715C117.433 9.03884 111.65 8.86579 108.02 10.9835C104.393 13.0591 104.334 16.6552 107.889 18.9457C111.08 21.0335 116.13 21.3374 119.713 19.8878L222.193 86.6867L220.528 187.512L364.807 281.579L340.244 295.801L339.726 296.097L338.063 396.805L296.481 369.709L297.52 306.782L212.907 251.649C215.545 249.499 215.303 246.404 212.115 244.323C208.563 242.026 202.774 241.852 199.148 243.935C195.52 246.052 195.462 249.6 199.016 251.932C202.207 254.017 207.221 254.326 210.838 252.832L295.45 308.013L294.411 370.895L338.021 399.339L337.569 426.708L583.679 587.116L546.684 608.549L69.6149 297.579L71.3914 190.004L17.6654 155.007L17.6243 157.499L69.319 191.193L67.5425 298.769L544.577 609.773L514.644 627.117L268.786 466.827L268.572 466.697L87.8338 461.256L13.4092 412.743L13.3672 415.284L86.9936 463.298L87.2475 463.461L267.986 468.87L512.572 628.303L486.232 643.603L253.572 491.911L253.318 491.748L45.9128 485.541L12.5653 463.843L12.524 466.341L45.0757 487.586L45.3303 487.707L252.732 493.953L287.17 516.386L11.8337 508.146L11.7976 510.329L290.688 518.675L377.473 575.244L342.658 595.41L281.573 593.582L223.743 627.083C220.185 625.371 215.166 625.415 211.909 627.31C208.282 629.386 208.223 632.943 211.777 635.272C215.325 637.566 221.111 637.739 224.741 635.66C227.998 633.765 228.342 630.691 225.777 628.395L282.086 595.788L339.068 597.493L204.555 675.478L81.3878 671.792L13.3768 627.427C16.0174 625.312 15.7752 622.221 12.5808 620.133C11.8222 619.642 10.9518 619.262 10.0037 618.96L9.83731 629.034C10.3528 628.894 10.867 628.834 11.3099 628.652L80.5482 673.795L80.8021 673.959L205.068 677.678L379.504 576.56L452.152 623.917L411.605 622.704L378.684 641.791C375.123 640.047 369.991 640.049 366.694 641.94C363.073 644.061 363.015 647.608 366.562 649.941C370.083 652.237 375.906 652.411 379.532 650.329C382.75 648.436 383.126 645.435 380.674 643.141L412.122 624.907L455.667 626.21L484.163 644.795L423.597 679.888L422.046 680.775L441.116 693.215L334.007 755.272L298.669 754.215L256.872 726.956C259.47 724.844 259.27 721.753 256.039 719.664C252.522 717.333 246.697 717.158 243.075 719.276C239.485 721.356 239.426 724.949 242.944 727.242C246.166 729.327 251.186 729.633 254.759 728.18L297.829 756.224L298.046 756.384L334.523 757.475L412.363 712.395L411.647 755.756L338.692 798.061C335.128 796.352 330.108 796.397 326.814 798.287C323.224 800.37 323.165 803.963 326.683 806.249C330.237 808.546 336.06 808.721 339.65 806.637C342.904 804.746 343.248 801.672 340.72 799.366L413.671 757.107L414.43 711.169L443.144 694.527L542.146 759.041L495.274 786.223L435.138 784.423L339.058 840.093L266.873 837.933L167.577 773.176C170.18 771.07 169.939 767.936 166.751 765.845C163.233 763.559 157.41 763.385 153.784 765.457C150.196 767.582 150.137 771.133 153.652 773.461C156.876 775.554 161.893 775.86 165.474 774.364L266.071 839.934L266.288 840.099L339.568 842.292L435.648 786.623L491.684 788.3L210.182 951.444L13.3315 945.553L4.52628 950.64L4.48508 953.134L13.8451 947.749L210.695 953.64L544.176 760.389L581.262 784.542L244.564 979.654L244.046 979.954L242.022 1102.51L126.85 1169.29C123.292 1167.58 118.269 1167.62 114.978 1169.52C111.388 1171.6 111.329 1175.19 114.847 1177.48C118.398 1179.78 124.218 1179.95 127.811 1177.87C131.105 1175.97 131.412 1172.9 128.883 1170.64L244.053 1103.87L246.077 981.302L583.289 785.893L622.221 811.271L424.743 925.721L424.225 926.018L422.488 1031.21L753.934 1247.3L768.944 1247.75L768.808 1247.67C765.61 1245.58 760.6 1245.23 756.986 1246.73L512.579 1087.38L586.778 1089.6L718.588 1175.56C715.95 1177.66 716.192 1180.76 719.384 1182.84C722.932 1185.14 728.755 1185.31 732.348 1183.23C735.974 1181.16 736.034 1177.56 732.479 1175.26C729.291 1173.18 724.275 1172.84 720.654 1174.33L587.618 1087.59L587.364 1087.43L509.061 1085.08L424.563 1030.03L426.258 927.366L585.221 835.194L584.359 887.381L486.175 944.311L485.303 997.129C483.282 997.224 481.338 997.67 479.82 998.567C476.194 1000.64 476.134 1004.24 479.689 1006.53C483.206 1008.86 489.032 1009.03 492.653 1006.92C496.243 1004.84 496.302 1001.24 492.784 998.955C491.264 997.967 489.331 997.405 487.355 997.19L488.206 945.626L586.394 888.694L587.297 834.008L624.255 812.577L663.734 838.323L664.239 838.65L688.993 824.317L687.112 938.224L600.947 988.171C597.38 986.465 592.364 986.468 589.107 988.362C585.482 990.48 585.424 994.031 588.975 996.364C592.529 998.657 598.315 998.83 601.942 996.752C605.196 994.86 605.54 991.779 602.978 989.48L689.136 939.571L689.904 893.085L753.056 934.217L752.328 978.326L611.819 1059.73C608.257 1058.06 603.238 1058.07 599.981 1059.96C596.358 1062.04 596.298 1065.63 599.85 1067.93C603.404 1070.26 609.19 1070.43 612.811 1068.31C616.071 1066.42 616.415 1063.34 613.847 1061.07L753.844 979.937L754.362 979.638L755.132 933.031L689.946 890.541L691.06 823.095L726.322 802.67L755.541 821.7L754.859 862.963L799.159 891.817C796.521 893.971 796.763 897.063 799.954 899.147C803.506 901.438 809.291 901.611 812.918 899.535C816.506 897.416 816.564 893.862 813.05 891.57C809.861 889.488 804.808 889.139 801.228 890.631L756.928 861.773L757.568 823.051L854.182 886.005L852.688 976.447L704.337 1062.38L703.816 1062.68L703.253 1096.75L785.472 1150.33C782.837 1152.45 783.077 1155.54 786.268 1157.62C789.822 1159.95 795.605 1160.13 799.232 1158.01C802.859 1155.94 802.918 1152.34 799.363 1150.05C796.175 1147.96 791.158 1147.66 787.545 1149.11L705.326 1095.53L705.846 1064.03L854.201 978.059L854.719 977.759L856.254 884.822L728.394 801.481L754.771 786.179L920.553 894.283L917.753 1063.84L966.144 1095.36L963.57 1251.27L967.299 1253.69L971.409 1253.81L965.642 1250.08L968.175 1096.71L1220.63 1261.27L1224.73 1261.39L919.819 1062.62L922.62 893.055L756.843 784.993L786.773 767.648L948.164 872.846L947.632 873.769L1101.16 973.892L1100.82 994.731L1131.99 1015.07L1131.01 1074.75L1360.26 1224.2C1357.62 1226.35 1357.87 1229.44 1361.06 1231.53C1364.57 1233.82 1370.39 1234 1374.02 1231.92C1377.64 1229.8 1377.7 1226.25 1374.15 1223.95C1370.96 1221.87 1365.91 1221.52 1362.33 1223.02L1133.08 1073.57L1134.02 1016.38L1173.72 1042.26C1171.08 1044.4 1171.32 1047.49 1174.51 1049.58C1178.07 1051.87 1183.85 1052.05 1187.48 1049.97C1191.1 1047.85 1191.16 1044.3 1187.61 1041.97C1184.42 1039.88 1179.4 1039.57 1175.79 1041.06L1102.88 993.542L1103.23 972.663L950.938 873.403L1022.39 875.542L1326.98 1074.06L1326.16 1123.59L1446.84 1202.27C1444.21 1204.37 1444.45 1207.47 1447.64 1209.55C1451.19 1211.89 1456.98 1212.06 1460.6 1209.94C1464.23 1207.86 1464.29 1204.28 1460.73 1201.98C1457.55 1199.89 1452.49 1199.55 1448.91 1201.04L1328.23 1122.36L1329.05 1072.87L1026.49 875.664L1234.66 881.894L1412.01 997.524C1410.63 998.461 1409.81 999.724 1409.79 1001.13C1409.74 1004.29 1413.79 1006.95 1418.81 1007.1C1421.12 1007.17 1423.18 1006.72 1424.8 1005.83L1426.73 1004.52C1427.55 1003.69 1428 1002.73 1428.02 1001.67C1428.07 998.509 1424.01 995.849 1419 995.699C1417.28 995.647 1415.66 995.914 1414.26 996.421L1235.46 879.841L1235.25 879.718L949.475 871.166L788.846 766.423L819.846 748.445L936.321 824.376L936.538 824.539L1267.65 834.448L1497.42 984.222C1494.78 986.37 1495.02 989.461 1498.21 991.546C1501.77 993.846 1507.55 994.019 1511.17 991.934C1514.8 989.82 1514.86 986.272 1511.3 983.933C1508.13 981.852 1503.1 981.539 1499.49 983.036L1268.46 832.405L1268.24 832.281L1023.34 824.952L1088.12 787.366L1261.39 792.551C1261.7 793.613 1262.52 794.658 1263.83 795.52C1267.38 797.846 1273.2 798.02 1276.79 795.908C1280.42 793.823 1280.48 790.233 1276.92 787.946C1273.41 785.647 1267.58 785.472 1263.96 787.558C1262.62 788.337 1261.77 789.322 1261.42 790.368L1087.61 785.166L1019.2 824.828L937.124 822.372L821.918 747.262L849.217 731.438L951.161 797.912L951.415 798.04L992.872 799.281L1077.92 750.042L1331.73 757.637L1492.33 664.571C1495.85 666.201 1500.76 666.114 1503.98 664.257C1507.61 662.181 1507.67 658.589 1504.11 656.295C1500.56 653.959 1494.77 653.786 1491.15 655.907C1487.86 657.798 1487.55 660.957 1490.26 663.258L1331.21 755.434L1077.41 747.839L992.362 797.075L952.001 795.867L877.972 747.653L915.368 748.772L951.22 772.144L951.474 772.307L979.783 773.155L1043.45 736.237C1046.98 737.867 1051.89 737.78 1055.11 735.926C1058.7 733.843 1058.76 730.25 1055.24 727.961C1051.69 725.625 1045.87 725.451 1042.28 727.573C1038.95 729.462 1038.68 732.659 1041.39 734.924L979.267 770.913L952.06 770.099L916.171 746.725L915.954 746.56L874.464 745.318L851.295 730.256L889.737 707.976L945.84 709.655L1015.99 668.988C1019.54 670.697 1024.56 670.646 1027.82 668.754C1031.45 666.679 1031.51 663.125 1027.95 660.792C1024.44 658.503 1018.61 658.329 1014.99 660.404C1011.73 662.296 1011.39 665.37 1013.95 667.676L945.327 707.449L893.318 705.892L909.819 696.307L911.373 695.418L883.896 677.487L959.843 633.448L1038.96 635.816L1121.5 689.638C1118.9 691.787 1119.14 694.882 1122.33 696.966C1125.88 699.263 1131.67 699.436 1135.3 697.354C1138.89 695.235 1138.95 691.688 1135.43 689.35C1132.24 687.304 1127.19 686.961 1123.61 688.453L1081.05 660.74L1237.07 665.409L1282.39 639.155L1371.78 641.83C1372.1 642.896 1372.92 643.931 1374.22 644.789C1377.78 647.09 1383.6 647.264 1387.19 645.178C1390.81 643.066 1390.87 639.515 1387.32 637.176C1383.81 634.887 1377.98 634.713 1374.36 636.788C1373.03 637.568 1372.17 638.559 1371.82 639.608L1281.87 636.917L1236.55 663.209L1077.53 658.45L1039.76 633.805L1039.54 633.646L963.436 631.369L994.957 613.094L1173.94 618.45L1220.59 591.414L1357.56 595.513L1423.71 557.194C1427.24 558.902 1432.29 558.855 1435.55 556.96C1439.14 554.883 1439.2 551.332 1435.68 548.998C1432.12 546.707 1426.3 546.533 1422.72 548.61C1419.46 550.501 1419.11 553.578 1421.68 555.878L1357.01 593.312L1224.18 589.337L1379.56 499.281L1492.47 502.699L1540.49 474.846C1544.06 476.555 1549.07 476.513 1552.33 474.657C1555.96 472.536 1556.02 468.985 1552.46 466.656Z" fill="#3D3D3D"/>
</svg>
