<svg width="21" height="12" viewBox="0 0 21 12" fill="none" xmlns="http://www.w3.org/2000/svg">
<path d="M0.93918 11.5608C1.22047 11.842 1.60193 12 1.99968 12C2.39743 12 2.77889 11.842 3.06018 11.5608L10.4852 4.13582L17.9102 11.5608C18.1931 11.8341 18.572 11.9852 18.9653 11.9818C19.3586 11.9784 19.7348 11.8207 20.0129 11.5425C20.291 11.2644 20.4488 10.8882 20.4522 10.4949C20.4556 10.1016 20.3044 9.72272 20.0312 9.43982L11.5457 0.954321C11.2644 0.673114 10.8829 0.515141 10.4852 0.515141C10.0874 0.515141 9.70597 0.673114 9.42468 0.954321L0.93918 9.43982C0.657973 9.72111 0.5 10.1026 0.5 10.5003C0.5 10.8981 0.657973 11.2795 0.93918 11.5608Z" fill="#F5F8FC"/>
</svg>
