<svg width="32" height="32" viewBox="0 0 32 32" fill="none" xmlns="http://www.w3.org/2000/svg">
<g clip-path="url(#clip0_5609_19265)">
<path d="M30 0H2C1.795 0 1.593 0.0184616 1.396 0.0553847L1.392 2.21415L-1.338 2.20923C-1.77085 3.01395 -2.00113 3.95799 -2 4.92308V27.0769C-2 28.3826 -1.57857 29.6348 -0.828423 30.5581C-0.0782776 31.4813 0.939138 32 2 32H30C31.0609 32 32.0783 31.4813 32.8284 30.5581C33.5786 29.6348 34 28.3826 34 27.0769V4.92308C34 3.6174 33.5786 2.36519 32.8284 1.44194C32.0783 0.51868 31.0609 0 30 0Z" fill="#00247D"/>
<path d="M7.00088 25.8737L5.77888 27.2632L5.89988 25.2202L4.25488 24.9112L5.62788 23.7543L4.79888 21.9783L6.38988 22.5789L7.00088 20.6725L7.61288 22.5789L9.20388 21.9783L8.37388 23.7543L9.74788 24.9112L8.10288 25.2202L8.22388 27.2632L7.00088 25.8737ZM25.9509 5.61401L25.1519 6.52232L25.2309 5.18571L24.1539 4.98386L25.0529 4.22694L24.5109 3.06509L25.5509 3.45771L25.9509 2.21094L26.3519 3.45771L27.3929 3.06509L26.8499 4.22694L27.7479 4.98386L26.6719 5.18571L26.7509 6.52232L25.9509 5.61401ZM21.9509 12.9986L21.1519 13.9082L21.2309 12.5716L20.1539 12.3697L21.0529 11.6116L20.5109 10.4497L21.5509 10.8423L21.9509 9.59555L22.3519 10.8423L23.3929 10.4497L22.8499 11.6116L23.7479 12.3697L22.6719 12.5716L22.7509 13.9082L21.9509 12.9986ZM30.9509 10.5371L30.1519 11.4466L30.2309 10.11L29.1539 9.90817L30.0529 9.15002L29.5109 7.98817L30.5509 8.38078L30.9509 7.13401L31.3519 8.38078L32.3929 7.98817L31.8499 9.15002L32.7479 9.90817L31.6719 10.11L31.7509 11.4466L30.9509 10.5371ZM25.9509 27.7679L25.1519 28.6774L25.2309 27.3408L24.1539 27.1389L25.0529 26.3808L24.5109 25.2189L25.5509 25.6116L25.9509 24.3648L26.3519 25.6116L27.3929 25.2189L26.8499 26.3808L27.7479 27.1389L26.6719 27.3408L26.7509 28.6774L25.9509 27.7679ZM29.0009 13.5377L29.2949 14.2712L29.9519 14.3882L29.4769 14.958L29.5889 15.7642L29.0009 15.3839L28.4129 15.7642L28.5249 14.958L28.0499 14.3882L28.7069 14.2712L29.0009 13.5377Z" fill="white"/>
<path d="M17 16V0H2C1.68 0 1.396 0.0553847 1.396 0.0553847L1.392 2.21415L-1.338 2.20923C-1.338 2.20923 -1.38 2.28185 -1.465 2.46154C-1.81628 3.20978 -2.00084 4.05891 -2 4.92308V16H17Z" fill="#00247D"/>
<path d="M17 0H14.669L10 4.02339V0H5V3.16185L1.396 0.0553847C0.794851 0.165907 0.222611 0.446024 -0.276 0.873846L4.426 4.92308H2.69L-1.033 1.712C-1.14279 1.86995 -1.24465 2.036 -1.338 2.20923L1.813 4.92308H-2V11.0769H1.885L-2 14.4812V16H1.332L5 12.8394V16H10V11.9766L14.668 16H17V13.5028L14.185 11.0769H17V4.92308H14.186L17 2.49723V0Z" fill="#EEEEEE"/>
<path d="M9 0H6V6.15385H-2V9.84615H6V16H9V9.84615H17V6.15385H9V0Z" fill="#CF1B2B"/>
<path d="M16.9999 0H15.5389L9.99989 4.77415V4.92308H11.5709L16.9999 0.243692V0ZM-0.276113 0.873846C-0.556078 1.11294 -0.810419 1.39455 -1.03311 1.712L2.68989 4.92308H4.42489L-0.276113 0.873846ZM4.43689 11.0769L-1.26611 16H0.460886L4.99989 12.0886V11.0769H4.43689ZM16.9999 15.7563V14.2548L13.3129 11.0769H11.5699L16.9999 15.7563Z" fill="#CF1B2B"/>
</g>
<defs>
<clipPath id="clip0_5609_19265">
<rect width="32" height="32" rx="16" fill="white"/>
</clipPath>
</defs>
</svg>
