<svg width="32" height="32" viewBox="0 0 32 32" fill="none" xmlns="http://www.w3.org/2000/svg">
<g clip-path="url(#clip0_5609_19262)">
<path d="M-11 9.96094H43V21.7734H-11V9.96094Z" fill="#E6E7E8"/>
<path d="M34.5625 -2.69531H-2.5625C-8.15403 -2.69531 -11 1.46016 -11 6.58594V9.96094H43V6.58594C43 1.46016 40.154 -2.69531 34.5625 -2.69531Z" fill="#FF9933"/>
<path d="M-11 25.1484C-11 30.2742 -8.15403 34.4297 -2.5625 34.4297H34.5625C40.154 34.4297 43 30.2742 43 25.1484V21.7734H-11V25.1484Z" fill="#128807"/>
<path fill-rule="evenodd" clip-rule="evenodd" d="M16.2624 10.4531C17.3405 10.4531 18.3943 10.7729 19.2906 11.372C20.1868 11.9711 20.8852 12.8226 21.2974 13.8188C21.7096 14.815 21.817 15.911 21.606 16.9682C21.3951 18.0254 20.8753 18.9963 20.1124 19.758C19.3495 20.5197 18.3778 21.038 17.3203 21.2473C16.2627 21.4566 15.1669 21.3475 14.1714 20.9338C13.1758 20.5201 12.3254 19.8204 11.7277 18.9232C11.13 18.026 10.8118 16.9717 10.8135 15.8936C10.8159 14.45 11.3911 13.0663 12.4127 12.0463C13.4343 11.0263 14.8188 10.4533 16.2624 10.4531ZM12.6301 12.8114C12.7237 12.9177 12.7406 13.0316 12.6782 13.127C12.6517 13.1709 12.6109 13.2043 12.5626 13.2215C12.5255 13.2353 12.4856 13.2398 12.4464 13.2348C12.4072 13.2298 12.3697 13.2154 12.3373 13.1928C12.1906 13.4028 12.0617 13.6246 11.9517 13.856C12.0791 13.9395 12.1213 14.0441 12.0791 14.1597C12.0565 14.2186 12.0119 14.2663 11.9547 14.2927C11.8975 14.3192 11.8323 14.3223 11.7728 14.3015C11.7121 14.423 11.5779 14.936 11.5762 15.044C11.6321 15.0547 11.6823 15.0849 11.718 15.1292C11.7556 15.1732 11.775 15.23 11.772 15.2878C11.756 15.4464 11.6581 15.5139 11.5087 15.5198C11.4851 15.6726 11.4876 16.1839 11.5113 16.2843C11.6699 16.3012 11.7534 16.3703 11.7669 16.491C11.7855 16.6209 11.723 16.7053 11.5712 16.7644C11.6167 17.015 11.6817 17.2613 11.7669 17.5027C11.8264 17.4847 11.8901 17.4868 11.9483 17.5086C12.0049 17.533 12.0496 17.5752 12.0732 17.6334C12.0943 17.679 12.0985 17.7263 12.0875 17.776C12.0797 17.813 12.0633 17.8477 12.0397 17.8773C12.0161 17.9069 11.986 17.9305 11.9517 17.9465C12.0648 18.181 12.1896 18.4021 12.3373 18.6097C12.4689 18.5447 12.5837 18.5599 12.6613 18.6527C12.6955 18.6908 12.7149 18.7399 12.7161 18.7911C12.7188 18.8289 12.7121 18.8668 12.6969 18.9015C12.6816 18.9361 12.6581 18.9666 12.6284 18.9902C12.7971 19.1876 12.9769 19.3682 13.1726 19.5344C13.2831 19.4374 13.3979 19.4222 13.4966 19.4914C13.5413 19.5226 13.5725 19.5639 13.5869 19.6146C13.5972 19.6504 13.5993 19.6881 13.5932 19.7249C13.5871 19.7617 13.5728 19.7966 13.5515 19.8272C13.7649 19.974 13.9851 20.1006 14.2155 20.2102C14.3049 20.0845 14.407 20.0423 14.5175 20.0845C14.5657 20.1018 14.6075 20.1333 14.6374 20.1748C14.6795 20.2423 14.6855 20.3166 14.661 20.3959C14.904 20.4819 15.1487 20.5477 15.4018 20.5925C15.4516 20.4499 15.5376 20.3832 15.6524 20.3917C15.7055 20.3959 15.7536 20.4119 15.7958 20.4482C15.8549 20.5022 15.8827 20.5705 15.8777 20.6549C16.1375 20.6735 16.3915 20.6752 16.6438 20.6549C16.6624 20.4921 16.7273 20.4102 16.8581 20.3917C16.9078 20.3848 16.9583 20.3949 17.0015 20.4203C17.0331 20.4382 17.0603 20.463 17.0811 20.4928C17.1018 20.5226 17.1156 20.5566 17.1214 20.5925C17.3762 20.5452 17.6234 20.4803 17.8622 20.395C17.8411 20.2356 17.8799 20.1402 17.987 20.0904C18.0261 20.0737 18.0688 20.067 18.1111 20.071C18.155 20.0744 18.1946 20.0879 18.2267 20.1166C18.2579 20.1427 18.284 20.1748 18.3144 20.2077C18.5444 20.0992 18.7651 19.9719 18.9742 19.8272C18.8882 19.6922 18.9388 19.5631 19.0088 19.5057C19.0332 19.4848 19.0616 19.4689 19.0922 19.4591C19.1228 19.4492 19.1551 19.4455 19.1871 19.4483C19.2192 19.451 19.2504 19.4601 19.2789 19.4751C19.3074 19.49 19.3326 19.5105 19.3531 19.5352C19.548 19.3682 19.7311 19.1868 19.8948 18.9919C19.7994 18.883 19.7809 18.7683 19.8509 18.6696C19.8792 18.6253 19.9227 18.5929 19.9732 18.5784C20.0092 18.567 20.0473 18.564 20.0847 18.5697C20.122 18.5755 20.1575 18.5897 20.1884 18.6113C20.336 18.3987 20.4643 18.1785 20.574 17.9473C20.4508 17.8646 20.4061 17.7676 20.4432 17.6571C20.4567 17.6079 20.4864 17.5648 20.5276 17.5347C20.5603 17.5118 20.598 17.4969 20.6375 17.491C20.677 17.4852 20.7174 17.4886 20.7554 17.501C20.8102 17.382 20.9469 16.8808 20.9545 16.7593C20.8961 16.7487 20.8435 16.7176 20.806 16.6716C20.7864 16.6488 20.7716 16.6222 20.7628 16.5934C20.7539 16.5647 20.7511 16.5344 20.7545 16.5045C20.7578 16.4511 20.7799 16.4005 20.817 16.3619C20.8424 16.3352 20.8734 16.3144 20.9079 16.3013C20.9424 16.2881 20.9794 16.2829 21.0161 16.286C21.0372 16.0307 21.0372 15.7742 21.0161 15.519C20.855 15.503 20.7782 15.4405 20.7571 15.3131C20.7476 15.2649 20.7547 15.215 20.7773 15.1714C20.7947 15.1377 20.8197 15.1084 20.8503 15.086C20.8809 15.0636 20.9163 15.0487 20.9537 15.0423C20.9093 14.7902 20.8436 14.5424 20.7571 14.3015C20.601 14.3276 20.5048 14.2854 20.4533 14.1774C20.44 14.1486 20.4325 14.1173 20.4313 14.0855C20.4302 14.0537 20.4354 14.022 20.4466 13.9923C20.4579 13.9625 20.4749 13.9353 20.4968 13.9121C20.5186 13.889 20.5449 13.8705 20.574 13.8577C20.4647 13.6257 20.3357 13.4035 20.1884 13.1936C20.0525 13.2586 19.942 13.2434 19.8644 13.1506C19.8299 13.1114 19.8107 13.0611 19.8104 13.0088C19.8088 12.9718 19.8159 12.9348 19.8311 12.901C19.8464 12.8671 19.8693 12.8373 19.8981 12.8139C19.7315 12.6189 19.5501 12.437 19.3556 12.2697C19.2392 12.3693 19.1261 12.3819 19.0299 12.3128C18.9863 12.2836 18.9543 12.24 18.9396 12.1896C18.9291 12.1542 18.9269 12.1168 18.933 12.0804C18.9392 12.044 18.9535 12.0095 18.9751 11.9795C18.7647 11.8328 18.5426 11.7039 18.311 11.5939C18.2241 11.7187 18.1263 11.7601 18.0157 11.723C17.9667 11.7073 17.9239 11.6766 17.8934 11.6352C17.8711 11.6023 17.8569 11.5646 17.8519 11.5252C17.847 11.4857 17.8513 11.4457 17.8647 11.4082C17.624 11.3212 17.3761 11.2554 17.1239 11.2117C17.0758 11.3483 16.9889 11.4192 16.8767 11.4125C16.8242 11.4108 16.7738 11.3918 16.7332 11.3585C16.7031 11.3331 16.6797 11.3008 16.6648 11.2644C16.65 11.2279 16.6442 11.1884 16.648 11.1492C16.3931 11.1276 16.1368 11.1278 15.8819 11.1501C15.8642 11.3019 15.7984 11.3888 15.6861 11.4074C15.6357 11.4182 15.5831 11.4116 15.5368 11.3888C15.5023 11.3718 15.4723 11.3467 15.4494 11.3158C15.4266 11.2848 15.4114 11.2488 15.4052 11.2108C15.153 11.2567 14.9049 11.323 14.6635 11.4091C14.6905 11.5584 14.6483 11.6563 14.5454 11.7095C14.5007 11.7323 14.4534 11.7415 14.4011 11.7323C14.3618 11.7269 14.3246 11.7114 14.293 11.6873C14.2615 11.6632 14.2368 11.6313 14.2214 11.5947C14.0771 11.6487 13.6181 11.9145 13.5574 11.9812C13.6198 12.106 13.6055 12.2166 13.5194 12.2959C13.4951 12.3174 13.4667 12.3337 13.4359 12.344C13.4052 12.3543 13.3726 12.3583 13.3403 12.3558C13.3079 12.3533 13.2764 12.3443 13.2476 12.3294C13.2188 12.3144 13.1933 12.2939 13.1726 12.2689C12.9779 12.4353 12.7965 12.6167 12.6301 12.8114Z" fill="#010088"/>
<path fill-rule="evenodd" clip-rule="evenodd" d="M18.5995 19.9385C18.5894 19.9275 18.5793 19.9199 18.5717 19.9081C18.0811 19.1582 17.5892 18.4093 17.0959 17.6612C17.085 17.6401 17.0723 17.619 17.0622 17.5954C16.9474 17.3279 16.8352 17.0604 16.7179 16.7938C16.714 16.7801 16.7086 16.7668 16.7019 16.7542C16.6547 16.7719 16.6116 16.7921 16.561 16.8115L16.5779 16.8546C16.6834 17.1136 16.7846 17.3735 16.8918 17.6325C16.9204 17.7017 16.9323 17.7742 16.9474 17.8468C17.0301 18.2341 17.1078 18.6231 17.1913 19.0112L17.4765 20.3975C17.4779 20.4008 17.4784 20.4044 17.4779 20.4079C17.4775 20.4115 17.4761 20.4149 17.4739 20.4177L17.4621 20.3882C17.2309 19.6803 16.9939 18.9732 16.7618 18.2653C16.7154 18.1269 16.6741 17.9902 16.6234 17.8519C16.5998 17.7827 16.5922 17.7118 16.5813 17.6401C16.5517 17.4393 16.5264 17.2368 16.4935 17.036C16.4893 16.9879 16.4817 16.9406 16.4749 16.8942C16.4729 16.8749 16.4698 16.8558 16.4657 16.8368C16.415 16.8419 16.3686 16.8487 16.318 16.8546C16.318 16.8748 16.3197 16.8959 16.3214 16.917C16.3509 17.1642 16.3762 17.4123 16.4117 17.6587C16.4302 17.7937 16.4209 17.9261 16.4134 18.0611C16.4083 18.175 16.4007 18.2889 16.3956 18.4037C16.3804 18.6349 16.3686 18.8652 16.3526 19.0956L16.3273 19.5714C16.3129 19.8414 16.2961 20.1106 16.2817 20.3789C16.275 20.4548 16.2733 20.5325 16.2657 20.6067L16.2454 20.3511L16.2193 19.7976L16.1889 19.304C16.1805 19.1352 16.1695 18.9673 16.1602 18.7986C16.1526 18.688 16.1484 18.5775 16.1417 18.4687C16.1324 18.294 16.1214 18.1193 16.113 17.9464C16.1047 17.8542 16.1069 17.7613 16.1197 17.6696C16.1374 17.5447 16.1509 17.4173 16.1661 17.2908C16.183 17.1659 16.1974 17.0402 16.2125 16.917C16.2142 16.8976 16.2142 16.8773 16.2168 16.8546L16.0691 16.8352C16.0649 16.8689 16.0573 16.9018 16.0514 16.9356C16.0163 17.1933 15.9803 17.4509 15.9434 17.7084C15.9333 17.8088 15.8936 17.9017 15.8599 17.9953C15.6 18.7867 15.3393 19.579 15.076 20.3696C15.0701 20.384 15.0676 20.3975 15.0566 20.411C15.0566 20.4008 15.0566 20.3932 15.0608 20.384C15.1697 19.8507 15.2794 19.3166 15.3924 18.7834C15.465 18.429 15.5401 18.0755 15.6118 17.7219L15.632 17.6637C15.7409 17.3962 15.8455 17.1262 15.9569 16.8588C15.9608 16.843 15.9664 16.8277 15.9738 16.8132C15.9273 16.7933 15.8806 16.7739 15.8337 16.755C15.8278 16.7702 15.8185 16.7828 15.8134 16.798C15.697 17.0663 15.5831 17.3355 15.4667 17.6038C15.4594 17.624 15.4504 17.6435 15.4397 17.662C14.9418 18.4162 14.4454 19.1714 13.9504 19.9275C13.9436 19.9389 13.9348 19.9489 13.9243 19.957C13.9285 19.9435 13.9361 19.9326 13.9412 19.9207L15.1612 17.5017C15.1717 17.4798 15.1848 17.4591 15.2 17.4401L15.7215 16.7407C15.7324 16.7288 15.7392 16.7179 15.7493 16.7052C15.7063 16.674 15.6717 16.6453 15.6287 16.6124C15.6194 16.6234 15.6109 16.6327 15.6034 16.6436C15.4211 16.8723 15.2414 17.1026 15.0634 17.3304C15.0431 17.3515 15.0245 17.3735 15.0018 17.3929C14.3369 17.9877 13.672 18.5792 13.0046 19.1749C12.9911 19.1858 12.9776 19.1977 12.9607 19.2052C12.9683 19.1977 12.9725 19.1884 12.9776 19.1825C13.5252 18.5707 14.0686 17.9599 14.6136 17.3482C14.6449 17.3144 14.6761 17.2807 14.7056 17.2444C14.768 17.1718 14.8381 17.1077 14.914 17.0503L15.5198 16.5736C15.5333 16.5635 15.5434 16.5525 15.5586 16.5424C15.5287 16.502 15.4977 16.4623 15.4658 16.4234C15.4523 16.4318 15.4414 16.4403 15.4287 16.4496C15.1967 16.6234 14.9638 16.7955 14.7318 16.9702C14.7058 16.9897 14.6781 17.007 14.6491 17.0216C13.8568 17.4216 13.0603 17.8215 12.2663 18.2214C12.2511 18.2282 12.2368 18.2366 12.2191 18.2366L12.2511 18.2138L13.7328 17.2435C13.9909 17.0739 14.25 16.9043 14.5065 16.7339C14.5284 16.7212 14.5512 16.7103 14.5706 16.7002C14.8398 16.5862 15.1081 16.4715 15.3747 16.3567C15.3874 16.3517 15.4 16.3466 15.4152 16.339L15.3587 16.1998C15.3426 16.204 15.3325 16.2082 15.3199 16.2125C15.0465 16.3213 14.7756 16.4318 14.5006 16.5398C14.444 16.5609 14.3824 16.5711 14.3225 16.5837L12.4789 16.9668C12.2469 17.0166 12.0107 17.0655 11.7778 17.1136C11.7684 17.1158 11.7585 17.1146 11.7499 17.1102C11.8141 17.09 11.8782 17.0672 11.9415 17.0461C12.738 16.7837 13.5336 16.5221 14.3276 16.258C14.39 16.2369 14.4567 16.231 14.52 16.2209C14.7765 16.1855 15.0321 16.1483 15.2861 16.1121C15.3017 16.1093 15.3172 16.1059 15.3325 16.1019C15.3274 16.053 15.3199 16.0041 15.3156 15.9534L15.1924 15.9669L14.6828 16.0285C14.5875 16.0412 14.493 16.0513 14.3993 16.0631C14.3765 16.0657 14.3546 16.0665 14.3327 16.0657L13.796 16.0344L13.4788 16.0167L12.932 15.9847L12.1347 15.9408C11.9423 15.9307 11.755 15.918 11.5635 15.9045C11.5939 15.902 11.6276 15.8969 11.6605 15.8969L12.3144 15.8598L13.1784 15.8108L13.8939 15.7703L14.3428 15.7433C14.3605 15.7425 14.3816 15.745 14.3993 15.7467L14.914 15.8083L15.2785 15.8522H15.3156C15.3199 15.8041 15.3274 15.7585 15.3325 15.7062C15.3013 15.6995 15.2659 15.6944 15.2346 15.6885C15.0094 15.6573 14.7858 15.6244 14.5605 15.5915C14.5137 15.5861 14.467 15.5799 14.4204 15.5729C14.3946 15.5694 14.3692 15.5635 14.3445 15.5552C13.6737 15.335 13.0071 15.1131 12.3372 14.8928C12.1508 14.8317 11.9646 14.7699 11.7786 14.7072C11.7626 14.703 11.7474 14.6958 11.7339 14.6861L11.8512 14.7097L13.283 15.0076C13.6661 15.0877 14.0551 15.1671 14.4381 15.2481C14.4612 15.2532 14.4838 15.2602 14.5056 15.2692C14.7756 15.3755 15.0431 15.4852 15.3156 15.5932L15.3561 15.6092C15.3747 15.5628 15.3949 15.5181 15.4152 15.47C15.4015 15.4618 15.3871 15.4547 15.3722 15.4489C15.1039 15.3358 14.8364 15.2202 14.5689 15.1046C14.5479 15.0957 14.5276 15.0853 14.5082 15.0734C13.7513 14.5781 12.9979 14.0803 12.2402 13.5842C12.2302 13.5786 12.2222 13.5701 12.2174 13.5597L12.2478 13.5766C13.0021 13.9563 13.7572 14.336 14.5132 14.7148C14.6381 14.7772 14.7596 14.8523 14.871 14.9376C15.0549 15.0802 15.2422 15.2168 15.4295 15.3569C15.4422 15.3662 15.4532 15.3746 15.4667 15.3831L15.5595 15.2658L15.5266 15.2371L14.8406 14.6979C14.817 14.6794 14.7984 14.66 14.7782 14.6397C14.1808 13.9706 13.5826 13.3007 12.9869 12.6316C12.9783 12.6247 12.9716 12.6157 12.9675 12.6054C12.9852 12.6071 12.9919 12.6189 12.9995 12.6265C13.3615 12.9472 13.7201 13.2678 14.0795 13.5884L15.0094 14.417C15.0262 14.4322 15.0423 14.4507 15.0574 14.4676L15.5899 15.1443C15.6034 15.1595 15.6135 15.1755 15.6287 15.1957L15.751 15.1021C15.7434 15.0903 15.7333 15.081 15.7274 15.07C15.5536 14.838 15.3806 14.6051 15.2051 14.3739C15.187 14.3467 15.1704 14.3185 15.1553 14.2896C14.7503 13.4922 14.3487 12.6915 13.9462 11.8933C13.9386 11.8781 13.931 11.8663 13.9294 11.8503C13.9369 11.8587 13.9445 11.8663 13.9496 11.8739L14.8119 13.1918L15.4219 14.12C15.443 14.1554 15.4667 14.1925 15.4802 14.2313C15.5941 14.4912 15.7038 14.7519 15.8143 15.0118C15.8219 15.0236 15.8269 15.0363 15.8345 15.0515L15.9746 14.9932L15.9594 14.9578C15.8539 14.6946 15.751 14.4313 15.6439 14.1697C15.6143 14.1031 15.6034 14.0339 15.589 13.9647C15.497 13.5251 15.4084 13.0847 15.3165 12.6442C15.2262 12.2207 15.1401 11.8005 15.0515 11.3752C15.0499 11.3727 15.0515 11.3693 15.0549 11.3609L15.1292 11.5862C15.3941 12.3818 15.6565 13.1792 15.9164 13.9765C15.9383 14.039 15.9459 14.1073 15.9552 14.1723C15.9864 14.3933 16.0176 14.6161 16.0531 14.8388C16.059 14.881 16.0615 14.9232 16.0699 14.9696L16.2168 14.9511V14.8954C16.1957 14.719 16.1729 14.5418 16.1526 14.3663C16.14 14.2634 16.1307 14.163 16.1164 14.0626C16.1079 13.9951 16.1079 13.9268 16.1164 13.8592C16.1223 13.7445 16.1307 13.6306 16.1358 13.5167L16.1771 12.829C16.1847 12.7058 16.1872 12.581 16.1948 12.4578C16.2058 12.2975 16.2142 12.1346 16.2235 11.9735C16.2311 11.8553 16.237 11.7364 16.2421 11.6191C16.2488 11.4799 16.2598 11.3415 16.2716 11.2031C16.275 11.2411 16.2767 11.2799 16.2784 11.3204C16.2902 11.49 16.2986 11.6596 16.3087 11.83L16.3526 12.6029L16.3788 13.0366C16.3923 13.2872 16.4041 13.5386 16.4184 13.7892C16.4226 13.8272 16.4243 13.8626 16.4269 13.8997C16.4378 13.9976 16.4184 14.0947 16.41 14.1917L16.356 14.6338C16.3475 14.7173 16.3349 14.8009 16.3248 14.8852C16.3231 14.9055 16.3231 14.9274 16.3172 14.9519C16.3695 14.9595 16.4167 14.9646 16.469 14.9713C16.4766 14.935 16.48 14.9013 16.4859 14.8658C16.5264 14.5916 16.5652 14.3174 16.604 14.0415C16.6074 14.0212 16.6159 14.0002 16.6209 13.9791C16.896 13.1539 17.166 12.3278 17.4394 11.501C17.4529 11.463 17.463 11.4267 17.4841 11.3904C17.4818 11.4097 17.4787 11.4288 17.4748 11.4478C17.3516 12.0452 17.2234 12.6409 17.101 13.2366C17.0462 13.5158 16.9879 13.796 16.9297 14.0752C16.9256 14.0984 16.9182 14.1208 16.9078 14.1419L16.5821 14.9561C16.5762 14.9679 16.572 14.9806 16.5661 14.9958C16.6167 15.0152 16.658 15.0346 16.707 15.054L16.7264 15.0135L17.0664 14.2145C17.0799 14.1875 17.09 14.1613 17.1078 14.1394L18.5801 11.8933C18.5894 11.8815 18.597 11.8697 18.6113 11.8612C18.6054 11.8731 18.6012 11.8849 18.5936 11.8967L17.3828 14.3014C17.3702 14.3242 17.3575 14.3469 17.3423 14.3672C17.1668 14.6009 16.9905 14.8346 16.8175 15.0667C16.8091 15.08 16.7998 15.0926 16.7897 15.1046L16.9095 15.1983C16.9189 15.1882 16.9277 15.1775 16.9356 15.1662C17.1145 14.9384 17.2925 14.7097 17.4739 14.4819C17.4939 14.4563 17.5162 14.4326 17.5406 14.4111C18.2072 13.8154 18.8746 13.2205 19.542 12.6265C19.5529 12.6172 19.5605 12.608 19.5783 12.6029L19.5563 12.6299C19.2838 12.9379 19.0113 13.2442 18.7345 13.5504C18.4054 13.9175 18.0806 14.2837 17.7541 14.6507C17.7372 14.6692 17.7169 14.6853 17.6992 14.7005L17.0133 15.2396L16.9795 15.2666C17.0116 15.3071 17.0403 15.3459 17.074 15.3864L17.1103 15.3594L17.8131 14.8329C17.8311 14.8201 17.8496 14.8083 17.8688 14.7975C18.6788 14.3908 19.4838 13.9858 20.2887 13.5791C20.3022 13.5732 20.3132 13.5682 20.3275 13.5682C20.2904 13.5926 20.2558 13.6162 20.2187 13.639C19.4905 14.1174 18.7624 14.5958 18.0317 15.0742C18.0114 15.0861 17.9929 15.0979 17.9709 15.1072C17.7018 15.2236 17.4301 15.3383 17.1634 15.4539L17.1204 15.4708C17.1432 15.5181 17.1592 15.5628 17.1795 15.61L17.2183 15.5974C17.4891 15.4902 17.7583 15.378 18.0317 15.2742C18.0992 15.2472 18.1734 15.2354 18.2468 15.2202L19.4897 14.962C19.8761 14.8827 20.2592 14.8017 20.6464 14.7216C20.6819 14.714 20.7148 14.7064 20.7519 14.6996C20.7612 14.6996 20.7696 14.6979 20.7831 14.703L20.665 14.7418C19.8407 15.0143 19.0189 15.286 18.1945 15.5552C18.1321 15.5771 18.0629 15.583 17.9979 15.5932C17.8131 15.621 17.6309 15.6455 17.4512 15.6716C17.3854 15.6809 17.3204 15.691 17.2546 15.6995L17.2065 15.7079C17.2115 15.7577 17.2191 15.8041 17.2225 15.8581L17.3499 15.8446L17.8055 15.7906C17.9194 15.7762 18.0384 15.7602 18.1574 15.7492C18.2105 15.745 18.2645 15.7501 18.3194 15.7526C18.435 15.7577 18.5506 15.7678 18.6712 15.7729L19.353 15.8134C19.4542 15.8193 19.5555 15.8235 19.6601 15.8302L20.3554 15.8699C20.5199 15.88 20.6895 15.8876 20.8532 15.8977C20.8938 15.9001 20.9343 15.9037 20.9747 15.9087L20.8515 15.9188L20.341 15.9467L19.709 15.9838L19.2323 16.0091C19.0129 16.0226 18.7894 16.0353 18.5683 16.0496C18.4468 16.0547 18.3219 16.0665 18.1996 16.0673C18.1295 16.069 18.0561 16.0555 17.9878 16.0479C17.8378 16.0304 17.6879 16.0124 17.5381 15.9939L17.2504 15.9593H17.2225C17.2191 16.0083 17.2115 16.0564 17.2065 16.1078C17.5039 16.1519 17.8015 16.1949 18.0992 16.2369C18.1869 16.2479 18.2637 16.2825 18.3464 16.3087L20.746 17.1009C20.7616 17.1042 20.7763 17.1108 20.789 17.1203C20.7688 17.117 20.7494 17.1136 20.7291 17.1119L18.6451 16.6774L18.0949 16.5626C18.0772 16.5576 18.0536 16.5508 18.0342 16.5415C17.7634 16.4344 17.4917 16.3247 17.2191 16.2158L17.1829 16.2032C17.1631 16.2494 17.1426 16.2952 17.1213 16.3407L17.166 16.3618C17.4351 16.4766 17.7026 16.5905 17.9701 16.7061C17.9912 16.7153 18.0123 16.7263 18.0342 16.7415L20.2803 18.213C20.2912 18.2214 20.3056 18.2316 20.3149 18.2476C20.3039 18.2408 20.2912 18.2366 20.2819 18.2299L19.1117 17.6426C18.7033 17.4351 18.2915 17.2292 17.8789 17.0216C17.8526 17.0086 17.828 16.9924 17.8055 16.9735C17.5735 16.8006 17.3389 16.6267 17.1069 16.4521C17.0966 16.4434 17.0856 16.4355 17.074 16.4285C17.0419 16.4673 17.0133 16.5052 16.9795 16.5457L17.0116 16.5711C17.2377 16.7516 17.468 16.9322 17.695 17.1119C17.7208 17.1304 17.7444 17.1519 17.765 17.176L19.5529 19.1766C19.5602 19.1866 19.5659 19.1977 19.5698 19.2095C19.5605 19.1993 19.5479 19.1926 19.5386 19.185C18.8678 18.5851 18.1962 17.9886 17.5237 17.3895C17.5085 17.376 17.4949 17.3607 17.4832 17.3439L16.9365 16.647C16.9289 16.636 16.9196 16.6259 16.9103 16.6149C16.8715 16.647 16.8335 16.6757 16.7947 16.7094C16.7981 16.7196 16.8057 16.7305 16.8124 16.7407L17.3432 17.4477C17.3583 17.4683 17.3719 17.49 17.3837 17.5127C17.7861 18.3109 18.1878 19.1107 18.5894 19.9098C18.5959 19.9206 18.6002 19.9327 18.602 19.9452H18.5995V19.9385Z" fill="#010088"/>
<path fill-rule="evenodd" clip-rule="evenodd" d="M18.5918 19.9414C18.6002 19.9498 18.6053 19.9591 18.612 19.9667C18.6078 19.9684 18.6078 19.9709 18.6028 19.9718C18.6011 19.96 18.5952 19.9524 18.5935 19.9414H18.5918Z" fill="#010088"/>
</g>
<defs>
<clipPath id="clip0_5609_19262">
<rect width="32" height="32" rx="16" fill="white"/>
</clipPath>
</defs>
</svg>
