<svg width="36" height="36" viewBox="0 0 36 36" fill="none" xmlns="http://www.w3.org/2000/svg">
<rect width="36" height="36" rx="18" fill="#595959"/>
<path d="M17.0952 20.58C17.0952 20.06 17.1818 19.6067 17.3552 19.22C17.5285 18.8333 17.7418 18.4867 17.9952 18.18C18.2618 17.8733 18.5485 17.5933 18.8552 17.34C19.1618 17.0733 19.4485 16.8133 19.7152 16.56C19.9818 16.2933 20.1952 16.0133 20.3552 15.72C20.5285 15.4267 20.6152 15.0867 20.6152 14.7C20.6152 14.06 20.3618 13.54 19.8552 13.14C19.3485 12.74 18.6485 12.54 17.7552 12.54C16.9552 12.54 16.2618 12.6733 15.6752 12.94C15.0885 13.2067 14.5885 13.6 14.1752 14.12L12.7152 13.08C13.2752 12.3733 13.9885 11.8267 14.8552 11.44C15.7218 11.04 16.7352 10.84 17.8952 10.84C18.8552 10.84 19.6885 10.9867 20.3952 11.28C21.1018 11.56 21.6485 11.9667 22.0352 12.5C22.4352 13.02 22.6352 13.6533 22.6352 14.4C22.6352 14.96 22.5485 15.44 22.3752 15.84C22.2018 16.24 21.9818 16.5933 21.7152 16.9C21.4485 17.2067 21.1618 17.4933 20.8552 17.76C20.5618 18.0267 20.2818 18.2933 20.0152 18.56C19.7485 18.8267 19.5285 19.12 19.3552 19.44C19.1818 19.76 19.0952 20.14 19.0952 20.58H17.0952ZM18.1152 25.12C17.7418 25.12 17.4285 24.9933 17.1752 24.74C16.9352 24.4867 16.8152 24.1867 16.8152 23.84C16.8152 23.4667 16.9352 23.16 17.1752 22.92C17.4285 22.68 17.7418 22.56 18.1152 22.56C18.4885 22.56 18.7952 22.68 19.0352 22.92C19.2752 23.16 19.3952 23.4667 19.3952 23.84C19.3952 24.1867 19.2752 24.4867 19.0352 24.74C18.7952 24.9933 18.4885 25.12 18.1152 25.12Z" fill="#F5F8FC"/>
</svg>
