<svg width="9" height="5" viewBox="0 0 9 5" fill="none" xmlns="http://www.w3.org/2000/svg">
<path fill-rule="evenodd" clip-rule="evenodd" d="M8.00046 2.11525C5.93787 2.11089 3.95415 2.90753 2.46746 4.33725C2.37265 4.42812 2.26087 4.49943 2.13849 4.54711C2.01612 4.59478 1.88555 4.61788 1.75425 4.6151C1.62295 4.61231 1.49348 4.58369 1.37324 4.53087C1.253 4.47805 1.14434 4.40206 1.05346 4.30725C0.96259 4.21243 0.89128 4.10065 0.843607 3.97828C0.795933 3.8559 0.77283 3.72534 0.775616 3.59404C0.778401 3.46273 0.807022 3.33327 0.859843 3.21302C0.912664 3.09278 0.988651 2.98412 1.08347 2.89325C2.94254 1.10668 5.4221 0.110839 8.00046 0.115249C8.26568 0.115249 8.52004 0.220606 8.70757 0.408142C8.89511 0.595679 9.00046 0.850032 9.00046 1.11525C9.00046 1.38047 8.89511 1.63482 8.70757 1.82236C8.52004 2.00989 8.26568 2.11525 8.00046 2.11525Z" fill="#3D3D3D"/>
</svg>
